<?xml version="1.0" encoding="UTF-8" standalone="no"?>
<!-- Generator: Adobe Illustrator 15.1.0, SVG Export Plug-In . SVG Version: 6.00 Build 0)  -->

<svg
   xmlns:dc="http://purl.org/dc/elements/1.1/"
   xmlns:cc="http://creativecommons.org/ns#"
   xmlns:rdf="http://www.w3.org/1999/02/22-rdf-syntax-ns#"
   xmlns:svg="http://www.w3.org/2000/svg"
   xmlns="http://www.w3.org/2000/svg"
   xmlns:sodipodi="http://sodipodi.sourceforge.net/DTD/sodipodi-0.dtd"
   xmlns:inkscape="http://www.inkscape.org/namespaces/inkscape"
   version="1.1"
   id="Calque_1"
   sodipodi:docname="130702 France-carte-noms-regions.svg"
   inkscape:version="0.48.4 r9939"
   x="0px"
   y="0px"
   width="569.732px"
   height="573.002px"
   viewBox="0 0 569.732 573.002"
   enable-background="new 0 0 569.732 573.002"
   xml:space="preserve"><metadata
   id="metadata26"><rdf:RDF><cc:Work
       rdf:about=""><dc:format>image/svg+xml</dc:format><dc:type
         rdf:resource="http://purl.org/dc/dcmitype/StillImage" /><dc:title></dc:title></cc:Work></rdf:RDF></metadata><defs
   id="defs24" />
<sodipodi:namedview
   objecttolerance="10"
   borderopacity="1"
   id="namedview212"
   inkscape:window-width="640"
   bordercolor="#666666"
   guidetolerance="10"
   pagecolor="#ffffff"
   gridtolerance="10"
   inkscape:pageopacity="0"
   inkscape:pageshadow="2"
   inkscape:window-height="480"
   showgrid="false"
   inkscape:zoom="0.43179948"
   inkscape:cx="284.86499"
   inkscape:cy="273.27499"
   inkscape:window-x="273"
   inkscape:window-y="115"
   inkscape:window-maximized="0"
   inkscape:current-layer="Calque_1">
	</sodipodi:namedview>
<polygon
   id="Corse"
   fill="#FF4D4D"
   points="661.939,564.742 661.939,559.242 667.34,547.342 663.54,521.342 659.54,515.742   660.04,505.142 658.521,496.932 658.34,496.042 655.439,494.942 653.04,496.942 653.54,514.342 644.94,513.042 641.44,517.942   630.74,522.142 629.84,525.042 627.04,525.342 624.84,528.142 625.141,531.542 621.24,536.542 621.24,536.742 620.74,539.442   623.34,538.442 627.141,542.642 621.84,546.442 622.94,551.942 630.84,556.342 628.24,557.942 625.24,566.342 632.54,563.742   633.44,569.542 630.74,576.542 640.24,578.442 635.34,581.742 635.141,584.742 639.94,589.142 651.141,592.542 652.34,595.342   655.439,596.542 661.24,581.842 657.939,581.442 660.641,579.542 662.49,574.682 662.641,574.142 661.939,565.742 " />
<path
   id="Centre"
   fill="#729B87"
   d="M548.74,265.2l-1.182,1.3l-1.76,8.201l-6.13,6.799l-0.95,4.101V285.5L523.57,287l-8.95,4.201  l-5.602-6.301l-5.488-1.9l-1.29-2.6l-5.682-1.699l-2.35-2.601l-1,0.3l-2.5,0.4v1.3l-3,1l0.1,5.899l-2.1,1.701l4,7l-1.9,2.1l0.7,2.9  l-11.3,5.698l-7-2.801l6.7,13.5l7.898,2.9l1.602,2.399l-0.5,5.5l-3.7,4.601l-3.9,1.301l-0.5,3l1.5,12.4l-5.5,4.799l-3.5-4.299  l-6.398-0.4l-1.4-3.201l-13.1-0.5l-1.602-2.5l-3.3,0.5l-4.398-4.5l1.198-2.799l-2.3-1.701l-11.2,8l-2.5-1.199l-0.5,4.101  l2.302,6.701l-9.301,8.6l4.399,5.5l1.2,5.601l-1.7,2.399l1.2,7.9l0.7,6l-6.2-2l-0.6,3.5l-7.602,9.5l1.8,2.198l-2.3,1.892l-0.3,3.49  l-3.101,1.08l1.5,3.35l-3.201,1.799h-0.1l-6.699-0.1l-5.301,2.801l-6.699-6.1l-8.101,0.799l-3.5-7l-3.2-0.699l-0.199-3l-2.301-1.5  l2-1.801l-1.699-3l3.601-4.601l-2.9-4.698l-5.698-2.201l2-2.699l-7.201-5.6l-9.5,1.1l0.101-4.701l-6.2-3h-0.1l3.4-3.799l2.799-0.6  l4-8l2.601-1.103l0.601-3.199l-4.701-3.6l0.201-5.103l-4.801-0.6l-1.3,2.5l-3.8,1.4l-4.1-3.9l-2.201,1.801l1.399,2.4l-2.899,0.799  l-9.101-3l0.802-2.799l-4.5-3l3.198-8.5l-6.399-0.201l0.101-2.799l-2.101-2l-0.5-5.801l3.399-5.5l-1.5-3l-2.698,0.899l4.5-14.1  l-2.69-1.201l0.81-3l-3.38-9l6.649-5.899V275l5.75-15.299l1.65-9.3l0.699-2.4l-7.398-0.1l-5.201-3.3l-3.1,1.3l-2-2l-0.199-3.5  l-6.701,0.2l-0.6-2.7l-5.101-1.7l-5.899,2.7l-3-0.4l-8.701-3.6l-2.1,1.9l-10.5-3.5l3.6-8.59l5.5-2.18l-1.9-17.271l1.5-2.34  l0.1-11.98l8.62,1.06h0.1l3.6-4.75l1.8-6.95l-4.101-4.2l5.399-2.9l0.9-2.7l2.699,1.3l6.4-2.3l4.899,3l2.601-1.7l5.699,1.1l2.899-0.3  l7.2-5.4l7-1.7l5.601,1l0.2,3.2l6.3,0.5l7.8,9.5l-1.699,2.3l3.399,2.1l2.399-2.6l6-1.1l5.3-3.2l2.801,1.6l6-1.3l-0.2-2.8l6-6.9  l3.602,6.6l0.5,10.9l6.199,5.4l1.199,5.6l2.301,2.2l3.1-0.7l2.801,10.6l6.9-0.7l1.898-2.9l1.5,2.7l2.801-1.8l3.699,0.6l0.7,3.1  l4.2,4.3l-0.602,2.7l-2.6,1.5l9.2,0.7l11.2-2.7l3.898-5.4l0.2-5.8l15.4-3l3.6,1.5l4.5,5.5l2.5,8.3l2-2.2l3.6,4.1l5,10.9l12.602-1.6  l2.898,1.4l2.2-2l6.102-0.9l4.698-3.9l3.9,0.5l3.5,0.7l0.5,2.7l2.6,1l-0.3,2.9l2.9,0.3l1.79,2.2l0.988,3.1l-2.818,2.4l2.25,4.8  l9.1,2l2.8,1.6v2.8l5.2-1.8h0.101l2.699-1.65l2,2.95l0.102,3.2l-4.602,4.1l2.602,1.4L548.74,265.2z" />
<path
   id="Loire-Ocean"
   fill="#CE63A6"
   d="M406.62,428.201l1.699-5.701l-3.801-5.949l-1-5.381l-6.699-0.188l-5.301,2.711  l-6.699-6.103l-8.1,0.801l-3.5-7l-3.201-0.7l-0.199-3l-2.301-1.5l2-1.8l-1.699-3l3.601-4.6l-2.899-4.701l-5.699-2.199l2-2.7  l-7.2-5.601l-9.5,1.101l0.101-4.699l-6.201-3h-0.1l3.4-3.801l2.8-0.601l4-8l2.6-1.1l0.602-3.199l-4.7-3.602l0.2-5.101l-4.802-0.6  l-1.299,2.5l-3.801,1.399l-4.1-3.899l-2.2,1.801l1.399,2.397l-2.899,0.802l-9.101-3l0.801-2.802l-4.5-3l3.199-8.5l-6.399-0.198  l0.101-2.802l-2.101-2l-0.5-5.799l3.399-5.5l-1.5-3l-2.699,0.9l4.5-14.101l-2.7-1.201l0.8-3l-3.35-9l6.648-5.9V275l5.75-15.299  l1.682-9.3l0.688-2.4l-7.41-0.1l-5.198-3.3l-3.102,1.3l-2-2l-0.2-3.5l-6.698,0.2l-0.602-2.7l-5.102-1.7l-5.898,2.7l-3-0.4l-8.7-3.6  l-2.1,1.9l-10.5-3.5l-0.4,2.2l-6.8-3.6l-9,3.9l-1.6,2.9l-13.2,0.4l-5.2,3.4l-0.4,6l-13.18,3.89l0.18,0.31l0.9,2.2l-3,0.5l-0.9,2.5  l0.5,4.9l2.2,1.2l2.2-1l4.1,3.2l6.6-3.7l5.5,0.7l-5.8,1.1l-1.4,2.1l0.5,2.5l-0.6,2.2l-3,1.3l7.8,3l2.8,4.1l-1.8,1l-0.3,0.101  l-0.8,2.601l-3.4,4.299l-1.2,2.302l0.2,2.399l8.7,9.5l2.7,5.6l1.2,5.299l8,5.4l3.4,0.5l3.9,4.301l2.9-0.1l2,1.199l1.8,2.5  l-0.9-2.101l3.9,3.299l0.5-2.698l2.4,0.301l0.5,0.1l-0.6,3.4l-4.5,5.897l2.4,0.302l2.2,1.698l3,7.201l-1.5,1.9l-0.2,5.1l-3.3,3.101  l-0.1,2.6l-2.2,0.4l-1.5,1.698l1.1,4.302l9,6.5l1.5,2.6l4.3,2.701l3.7,4.799l1.81,7.301l0.588,2.4l-1.699,3.1l-2.8-7.6l-9-9  l-1.4-4.701l-3.3,3.4l-0.9,2.801l-6.2,50l1.2-3.801l2.8-4l3.5,3.399l1.1,4.601l-3.1,0.198l-1.8-1.397l-1.9,1.699l-0.3,2.301  l-2,3.199v4.42l5.4-2.42l0.11,0.039l0.09-0.039l3.6,1.301l-0.49,1.818l0.48-1.818l-3.63-1.262L259.72,438v0.4l-2.2,11.698  l-8.9,37.802l-3.95,7.1l-1.11,1.51l-3.53,4.892l-2.71,1.899l-4.5,0.9l1.9,4.5l4.5-0.201l0.2,2.201l2.4,1l2.2-2.103l2.4,1.302  l2.5,0.1l1.4,2.801l-2.5,6.699l-2.1,2.201l1.3,2.199l4.3-0.101l0.7-3.399l2.3-0.101l-1.3,2.4l5.9,2.397l1.5,1.9h2.5l6.1,3.701  l5.8,0.35l2.3-1.02l1.4,2.09l0.3,2.789l2.7,1.301l3.9,4l2.101,0.9l1.1-2.103l2.701,2.103l3.6-1.103l0.189-0.16l2.109-1.84l7.801,5.5  l1.1,2.5l2.101,1.701l2.2,0.9l6.9-2.103l3.898,0.301l1.899,1.699l2.5,0.5l2.399-1.799l2.301,1.6l0.699-0.198l1.7-0.302l8.8,0.699  l-0.199-7.6l1.199-2.4l5.5,1.5l-0.5-1.397l3.601-5.201l2.601-1V528l4.102-4l2.898-1.1l6.25,4.1l-0.38-5.6L372,519.8l-2.99-4.8  l2.8-1.1l3.4,5.5l2.8-0.5l0.601-2.802l5.699,2.201l2-2.301l8.4-10l1.398,2.701l5.201-1.801l0.5-0.8l-1-2.801L386.51,494l0.7-5.398  l-2.3-2.102l-0.2-2.799l-2.602-1.201l-1.398-6.299l0.5-2.801l4.8-3.199l1-2.701l-1.8-2.199l3-1.1l2.7,1.1l9.198-3.199l-4.299-3.602  l2.299-2.398l-3.1-2.7l0.4-3l-0.801-9.101l7.601-5l5.899-1.6L409.81,433h0.1L406.62,428.201z M267.72,442.089L267.72,442.089  L267.72,442.089l16.91-0.889l-0.08,0.199L267.72,442.089z M284.61,444.541l-0.49-0.34l0.04-0.183l0.45,0.423l10.51,7.608l0.01,0.049  L284.61,444.541z M302.12,457l1.602-3.799l2.1,2.6l0.01,0.039l-0.01-0.02l-2.1-2.609L302.12,457z M304.12,513.9l2.199-1.101  l0.101,2.699L304.12,513.9z M310.3,451.71l-1.479-2.49l0.01-0.01l1.49,2.48L310.3,451.71z M317.722,428L317.722,428l0.17,0.08  L317.722,428z" />
<path
   id="SUD-EST"
   fill="#FF4D4D"
   d="M653.52,456.4l-1.5-2.199l0.302-2.603l-2.7,1.802l-10.3,2.399l-1.802-1.399l-2.5,0.399  l-4.199-2.8l-6.9-1.6l-6.91-7.789l-0.188-0.211l1.8-4.802l-3.5-4l0.6-2.897l2.2-1.5l0.37-4.5l0.03-0.4l2-2.301l3-1.5l-3.2-4.699  l0.7-2.1l-2.2-1.301l-5.7-0.5l-3-2.302l-1.2-2.198l-0.398-3l-1.102-2l-2.55-0.601l-1.95-4.5v-0.1l2.15-1.801l5.17-1.302l2.54,1.4  l1.52-2.4l4.512-3.397l2.197-0.7l3.102-1.4l1-10.299l-2.2-1.201l-5.1-4l-1.302-5.198l0.7-3l-2.8-0.4l-1.5-1.9l-2.7-1.1l-1.88-4.66  l-0.02-0.039l0.6-3.701l4.9-0.897l2.5-1.701l1.3-5l-4.602-6.6l-2,1.399l0.102-4.801l-4.602-1.699l0.602-1.5l2.1-6.399l-4.2-4.101  l0.5-2.701l-3.198-0.6l-9.5,1.301l-3.602,2.9l-2.3-1l-2.4,0.799l-1.8,5.1l2.8,1.302l-1,2.301l-2.1,1l-3.4,3.5l-2.3-0.103l-2.3,1  l-2.24-0.909l-0.46-0.189l-0.2-2.799l1.9-2l4.4-1.5l-0.302-2.5L579.11,321l-4.5-2.699l2.58-8.11l-3.682-3.488l3.602-7.4l2.1-2.301  l-4.2-4.1l-2.898-0.5l-5.802-10.101l-3,0.8l-1.5-2.5l-2,2.1l-1.198-2.5l3-5.1l-5.2-7.8l-5.4-0.1l-2.3-2l-1.2,1.3l-1.8,8.2l-6.05,6.8  l-0.95,4.101V285.5l-15.15,1.5l-8.869,4.2l-5.641-6.3l-5.52-1.9l-1.312-2.6l-5.71-1.7l-2.398-2.6l-1.102,0.3l-2.7,1.7l-2.8,1  l0.3,5.899l-2.1,1.7l4,7l-1.9,2.101l0.7,2.9l-11.3,5.699l-7-2.802l6.7,13.5l7.898,2.9l1.602,2.4l-0.5,5.5l-3.7,4.6l-3.9,1.301  l-0.5,3l1.5,12.4l-5.5,4.799l-3.5-4.299l-6.398-0.4l-1.4-3.201l-13.1-0.5l-1.602-2.5l-3.3,0.5l-4.398-4.5l1.198-2.799l-2.3-1.701  l-11.2,8l-2.5-1.198l-0.5,4.1l2.302,6.701l-9.3,8.6l4.398,5.5l1.2,5.601l-1.7,2.399l1.2,7.9l0.7,6l-6.2-2l-0.601,3.5l-7.601,9.5  l1.8,2.199l-2.3,1.899l-0.3,3.5l-3.1,1.101l1.5,3.301l-3.201,1.8h-0.1l1,5.5l3.801,6.051l-1.701,5.619l3.302,4.83h-0.101  l-1.701,1.701l-5.898,1.5l-7.602,5.049l0.802,9.121l-0.4,3.01l3.101,2.709l-2.299,2.4l4.299,3.6l-9.199,3.201l-2.7-1.102l-3,1.102  l1.8,2.199l-1,2.699l-4.8,3.2l-0.5,2.8l1.399,6.301l2.601,1.199l0.2,2.801l2.3,2.1l-0.7,5.4l14.301,9.301l1,2.799l-0.5,0.801  l-5.201,1.8L394.72,506l-8.398,10l-2,2.301l-5.701-2.201l-0.6,2.802l-2.801,0.5l-3.398-5.5l-2.801,1.1l3,4.801l-5.4,1.601l0.4,5.6  l-6.199-4.1l-3,1.1l-4.102,4v5.9l-2.601,1l-3.699,5.198l0.55,1.4l13.221,3.9l1.311,2.801l10.01,0.6l2.801,5.9l2.399,0.799l1.3-2.1  l2.801-0.4l1.699,1.701l3.7,0.1l2,2.101l2.601,1.1l-0.78,0.891l-2.021,2.31l2,2.102l7.5,2l1.7,4.8l1.899,1.7l4.601-1.852l1-1.949h3  l2.5-1.551l7,2.83l4,3.061l2.899-1.02l2.399,0.688l2.101-1.209l0.601-2.399l2.399-1.101l3,0.199l6.899-4.051l8.101,2.551h2.301  l-1.9-3.65l-3.899-3.219l-0.25-15.59l-0.149-9.551l0.899-3.49l5.199-9.289l1.471-1.531l1.131-0.92l5.5-3.75h6.8l4.3-6.85l-2.1,3.381  l4.3-4.262l7.2-4.629l3.6-3.211l5.9-2.609l2.398,0.09h0.102l1.1,3.4l1.9,1.6l2.8,0.801l0.2,0.299h13.199l2.199,0.701l1,2.101  l-1.6,1.448l2.2,1.382l7.399,0.09l3.199,1.289l1.801-1.699l-1.5-2.801l0.399-2.398l4.899,1l3,5.299l10-0.799l2.601-1.102l1.8,2  l-0.199,2.5l1,1.899l-1.2,2.101h9.2l1.3,2.102l2.2-0.75l1.699,0.219l0.5,0.111l6.4,4.109l-0.602,2.299l3,1.102l1.5-1.7l2.301,0.399  l-0.899-2.199l3.101-0.102l1.601,1.602l2.199-0.7l2.399,1.7l-1.399,1.8l2.2-1.601l0.399-2.301l1.601-1.6l2.699-0.5l4.9,1.5  l-0.102-2.699l3.5-1.101l4.801-2.5l4-0.2l2-4.8l-5-0.7l5.5-5.699l0.699-2.5l6.801-1.701l1.381-2.529l0.42-0.77l0.1-2.201l1.3-1.799  l3.2,0.1l1.4-1.698l2.398-0.603l-0.1-2.799l1.8-2.4l2.3-0.5l1.5-2.1l3,0.9l0.9-2.4l2.3-0.5l3.5-2.9l1.101-2.698l-1.101-2.701  l0.5-1.601l3.3-5l2.7-1.6l0.2-2.301l1.6-1.9L653.52,456.4z M533.82,449.201l-4,1.199l-1.9-2.199l1.2-3l2.7-2.301l4.5,2.801  L533.82,449.201z M545.72,502l-2.1,1.801l-0.45,0.101l-4.62,0.899l-0.31-2.5l-2.11-1.399l-0.41-2.4V498.3l0.9-2.701l4.2,2.5  l2.3,2.603l2.6-1.201V502L545.72,502z" />
<path
   id="EST"
   fill="#CCB42F"
   d="M653.02,156l-2.8,9.4l-7.8,10.5l-2,1.5l-1.4,3.3l0.302,4.9l-2.4,7.2l0.7,3.6l-1.5,2l-1.2,5.5  l-3.16,6.22l-0.04,0.08v5.3l1.602,1.9l0.199,3.4l-2.199,11.1l0.1,6.7l1.8,1.51l0.602,3.5l-2.2,2.01l-0.2,2.33l-3.1,0.95l0.5,2.3  l-1.5,1.8h-2.7l-3.8,1.2l-3-1.3l0.3-2.5l-2.4-1.1l-0.398,0.1l-0.102,0.1l-2.79,0.39l-1.108-0.39l-3.19,4.34l-0.109,0.16l-2.199,4.9  l7-0.7l-1.5,2.3l-2.4,2.2l0.4,3l-4.801,6.2l-4.801,4l-0.398,2.9l-2.5,2.699l-5.7,1.701l-0.3,0.299l-1.7,2.301l0.899,2.699  l-0.699,4.5l0.5,2.5l-9.5,8.801l-2.9,5.199l-0.22,0.691l-3.681-3.49l3.601-7.4l2.1-2.301l-4.199-4.1l-2.899-0.5l-5.8-10.101l-3,0.8  l-1.5-2.5l-2,2.101l-1.2-2.5l3-5.101l-5.2-7.8l-5.399-0.1l-2.301-2l-3.898-8.2l-2.602-1.39l4.602-4.1l-0.102-3.19l-2-2.97  l-2.699,1.65h-0.101l1.2-2.55l6.6-3.95l2.11,1.8l3.2-1l0.31-8.3l2.03-2.4l2.95,0.3l2.398-3.2v-1.4v-0.1l-1.5-2.5l-2.898,1.1  l-0.2-3.1l-5.5-4.7l1.7-8.6l-12.7-9.5l2.399-2.3l6.899-3.4l3,0.5l1.9-2.3l0.199-2.9l-2.5-2l1.699-2.8l-1.3-8.6l2.2-13.8l0.899-2.7  l-4.899-11.5l1.5-5.9l-1.2-2.69l-4.399-4.8l-5.301,2.01l-0.699-5.27l4.801-1.65l2-1.8h6.8l2.55,2.36l0.65,0.64h2.398l1.5,1.95  l2.301,0.55l2.301-0.5l1-2.3l2-1.2l2.199-0.2l4.511,2.3l4.898-0.1l3.12,3.8l2.32,1.9l-0.45,2l3.8,3.2l3,4.5v2.3l4,0.7l1-1.9  l-0.3-2.4l2.601-0.2l3.801,1.8l1.398,3.5l2.102-1.5l2.5,1.9l5.8-0.4l5.3-4.2l2.2,1.4l0.5,2.1l2.399,2.4l3.199,1.5h0.03l8.87,0.6  l2.399-0.6L653.02,156z" />
<path
   id="IDF"
   fill="#939392"
   d="M465.32,186.4l-2.602-1.7l-3.5-8.3l2.602-2.2l0.398-2l-9.3-6l-3.899-4.2l0.699-2.8l-1.8-2.5  l-2.6-0.7l-8.102,2.9l-2.5-1.6l-2,2.2l-6.898-1l-10.9-6.4l-2.199,1.6l-9.201-2.2l-6.299,1.8l-5.601-1.1l-1.601-3.2l-4,9.5l-3.8-0.1  l-2.301,2.6l1.801,5.8l3.601,6.6l0.5,10.9l6.199,5.4l1.2,5.6l2.3,2.2l3.101-0.7l2.8,10.6l6.9-0.7l1.899-2.9l1.5,2.7l2.8-1.8l3.7,0.6  l0.699,3.1l4.2,4.3l-0.601,2.7l-2.601,1.5l9.2,0.7l11.2-2.7l3.898-5.4l0.2-5.8l15.4-3l-0.4-8.5l2.9-0.8L465.32,186.4z" />
<path
   id="Bretagne"
   fill="#97C00D"
   d="M274.53,204.705l1.5-2.4l0.101-12.1l-5.4-2.3l-7.1,4.8l-2.7-1l-4.7-9.6l-7.3,0.6l-2.9-2.4  l1.5-2.3l-2.2-1l-2.3,0.6l-2.2,1.5l-0.699,2.5l2.3,5.1l-1.4,2.1l0.5-2.1l-1.3-2l-1.7-4.4v-0.1h-2.1l-0.7,0.1l-0.05,0.85l-0.05,0.86  v0.09l-2.5-0.2l-1.301,1.9l-1.8-4.4l-2.899,1.1l2-2.5l-2.7,0.2l-8.101,3.3l-2.399,2.7l-3,1l-0.7,2.2l-0.8-3.7l-3-2l-2.2-5.4  l-7.2-7.8l1.1-2l-2.6,0.5l-1.7,3.1l1.2-4.4l0.1-2.3l-2.9,0.8l-3,3.6l1.5-2.6l-0.9-2l-1.5,1.8l-2.2-0.3l-2.1,1h-2.5l-1.9-1.4  l-2.2,0.6l-1.5,1.6l-1.1,7.7l-3.2,0.4l-1.2-1.4l-1.2-1.7l-4.7-0.3l-1.2,4.5l-1.3-2.5l-2.2,1.5l-0.4-5l-2.9,0.5l-1,2.2l-3-1.6  l-6.7,3.1l-2.3-2.6l-3.8,2l-2.9,0.1l-1.2,1.9l1.9,1.7l-1.6-1.4l-2.5,1.2l1.9,1.1l-5.1-1.5l-2.1,0.8l-1.8,1.6l-0.8,2.6l2.2,0.9  l-2.5,1.6l-0.6,5.3l1.5,1.8l2.7-1.2l2.7,1.2l7.5-2.9l2.3-0.1l4.4-2.2l-7.1,4.5l0.8,2.2l2.7-0.8l2.6,0.2l-2,1.5l4.2,2l-2.2,0.5l2.8,2  l3.7,0.9l-5.4-1l-2.1-3.1l-4.6,0.8l-4.9-1l-1.7-2.3l0.3,2.2l-1.3,1.8l2.6,4.2l1.5-2.6l6.8,2.5l1.6,3.6l-0.7,2.5l-2,1.3l-1.8-1.8  l-12.5,1.8l-2.2,1.3l7.5,2.2l2.1-1.4l-1.6,1.7l2.8,1.8l2.4,3.1l1.5,5.5l-1.5,1.6l2.1,1.6l5.9,0.2l1-2.8l2.2-1l-1.3-1.9l2.4-4.3  l-1.6,4.6l3.5,3.1l2.3-0.2l0.8-2.5l4.2,6.1l2.2,1l2.5-0.7v-2.7l0.3,2.7l3-0.8l-2.2,0.7l1.2,1.9l5.5,1.2l0.8-1.4l0.1,1.5l2.9,4.4  l2.3-0.2l1.5-1.7l-0.8-5.1l0.6,2.399l1.7,1.7l1.9-1.7l-2.5,4.2l2.2,1.4l-2.3-0.601l3.2,1.9l0.1,0.1l1.6,1l1.7-2.5l-1.6,3.101  l2.1,2.6l0.6,3.5l-0.9,2.8l2.1,1.101l-1.2-3l0.5-3.8l2.2,1.6l5.1,0.1l-0.7-5l1.4,2l2.1,1.5l4.8-0.5l2.1,2.4l-1,2.2l-2.1-0.601  l-4.8,0.4l3.8,3.3l12.9-0.899l3.1,1.5l-3.399,0.1l1.42,2.391l13.18-3.891l0.4-6l5.199-3.4l13.2-0.399l1.601-2.9l9-3.899l6.8,3.6  l0.399-2.2l3.601-8.6l5.5-2.2L274.53,204.705z M172.83,204.005v-0.1l0.04,0.01L172.83,204.005z" />
<path
   id="SPC"
   fill="#4096EE"
   d="M562.72,226.29v-0.1l-1.45-2.5l-2.778,1.1l-0.24-3.1l-5.521-4.7l1.689-8.6l-12.7-9.5l2.4-2.3  l-16.9-10.4l-3.398-5.2l-0.5-4.1l-3.2-4.6l0.06-0.32l3.142,4.521l0.5,4.1l3.398,5.2l16.9,10.4l6.898-3.4l3,0.5l1.9-2.3l0.2-2.9  l-2.5-2l1.7-2.8l-1.302-8.6l2.2-13.8l0.9-2.7l-4.9-11.5l1.5-5.9l-1.2-2.7l-4.398-4.8l-5.3,2l-0.7-5.3l-1.9-5.6l-1.5-1.6l-1.2,0.07  l-0.618,0.44l-1.48,0.09l0.9-2.4l-2-1.7l-4.9-0.6l-2.8-3.8l-4.3-2.4l-3.302,0.9l-1.398-1.9l-0.602-3.1l1-2.4l-3.3-4.5l0.45-5.2  l1.55-1.6v-3.8l-2.648,0.2l-3.92,3.8l-1.062,6l-7.28,3.2l-9.79-0.4l-0.789-0.26l-2.909-0.94l-16.7-4.6l-5.2,1.8l-2.3-1.7l-2.602,2.2  l-12.6,0.6l-3.3-2.6l-8.602,1.8l-0.8-3.2l-2.398,1.7l-2.802-4.6l-0.8,2.8l-8.398-3.5l-2.501,3.1l-1.699-3.1l2.601-5.7l-12,2.5  l-7.101-5.8l-1-3l-10.53-1.02l0.03,0.02l-2.899-0.7l-1.2,5.1l5.601,6l-3.5-0.3l-1.399-1.8l-0.101,0.1l-1.899,1.1l-3.399,6.6  l-2.392,1.91l-5.108,4.09l-8.5,4.4l-2.4-0.3l-4.8,1.8l-10.3,2.1l-2.302,1.6l-13.799,7.4l-4.399,9.7l0.1,2.3l1.2,2l7.609,1.8  l1.289,0.3l-0.799,0.35l0.899,0.25h-1.521l-0.279,0.05l-1.7,0.57l0.3,8.38h-0.1l-0.301-8.5l-5.101,1l-4.101,3.65l-4.699,2.48  l-5.7,0.69l-6.899-3.41l-13.899-1.5l-9.4-3.3l-3.4,0.3l-1.9,2.1l-1.7-0.8v0.7v0.1l0.378,6.229l-0.069-0.025l-0.5-6.6v-0.1l0.101-0.7  l-1.101-4.3l-4-6.5l3.2-5.2l-0.9-2.7l-1.8-1.7l-5.1-0.6l-4,2.6h-2.4l-11.899-4.2l-2.101,0.2l1,2.5l2.2,1.1l0.5,2.3l-0.1,2.8  l-1.801,1.8l1.4,1.9l0.7,5.9l2.899,4.1l2.4,1.2l-0.3,2.2l2,5l2.5-0.3l-1.5,2l-0.4,7.4l1.8,3.6l0.301,4.9l-2,6.1l0.3,5.3l5.1,5.6  l2.4-1.3l-0.5,2.2l-2.5,1.1l-4.8-0.4l-1.9,0.2l4.7,9.6l2.7,1l7.1-4.8l5.4,2.3l8.6,0.8h0.1l3.601-4.5l1.799-6.7l-3.846-3.939  l5.147-2.764l0.899-2.7l2.699,1.3l6.4-2.3l4.898,3l2.602-1.7l5.699,1.1l2.899-0.3l7.2-5.4l7-1.7l5.6,1l0.7-2.2l-2.3-4.1l1.4-3  l-2.801-9.25l2.189-1.85h0.21l-2.3,1.95l2.8,9.33l-1.399,2.96l2.301,4.08l-0.7,2.19l0.2,3.2l6.3,0.5l7.8,9.5l-1.7,2.3l3.399,2.1  l2.399-2.6l6-1.1l5.302-3.2l2.799,1.6l6-1.3l-0.199-2.8l6-6.9l-1.801-5.8l2.301-2.6l3.8,0.1l4-9.5l1.601,3.2l5.601,1.1l6.3-1.8  l9.2,2.2l2.2-1.6l10.898,6.4l6.9,1l2-2.2l2.5,1.6l8.1-2.9l2.602,0.7l1.8,2.5l-0.7,2.8l3.9,4.2l9.3,6l-0.4,2l-2.6,2.2l3.5,8.3  l2.6,1.7l-3,5l-2.898,0.8l0.398,8.5l3.602,1.5l4.5,5.5l2.5,8.3l2-2.2l3.6,4.1l5,10.9l12.602-1.6l2.898,1.4l2.2-2l6.1-0.9l4.7-3.9  l3.9,0.5l3.5,0.7l0.5,2.7l2.6,1l-0.3,2.9l2.9,0.3l1.8,2.2l1,3.1l-2.8,2.4l2.3,4.8l8.95,2l2.738,1.58v2.8l5.052-1.9l1.328-2.5  l6.66-3.9l2.13,1.8l3.222-1l0.31-8.3l2-2.4l2.9,0.3l2.45-3.2L562.72,226.29z M524.86,161.46l-2.54-1.27l0.09-0.36l2.51,1.26  L524.86,161.46z M526.35,126.96l0.771,8.44l-0.03,0.05l-0.77-8.45L526.35,126.96z M524.04,140.71l1.28,2.29l-0.15,0.13l-1.25-2.23  L524.04,140.71z M520.72,147l0.261-0.05l2.239,8.75l-0.2,0.2l-2.3-8.8V147z M277.724,163.784l-0.194-0.279l8.019-4.851l0.093,0.347  L277.724,163.784z M283.515,150.719l-0.084-0.314l1.772-2.304l0.269,0.1L283.515,150.719z M278.979,165.983l0.152,0.218  l-4.343,5.114l-0.158-0.21L278.979,165.983z" />
<path
   id="NPDC"
   fill="#FFB600"
   d="M491.52,96.1l-1.398-3.3l-2.602-0.2l1.4-4.7l2.1-2.4l-2.3-0.2l-5.5-6l-4.3,1.7l-2.4-1.1l-4.6,0.3  l-1.1,2.6l-1.4-1.9l-0.7-2.3l0.602-2.3l-1.802-4.4l-2.8-1l-2.2,0.7l0.5-2.2l-2.398,0.2l-2.102,1.2l-2.8-0.8h-0.1l-2-3.3l-1.3-5.1  l-0.102-0.95l-3.8-7.48l-8.1,3.21l-0.6,2.62h-2.1l-3.102-1.7L431.82,52h-3.4l-1.2-5.8l-0.6-0.8l1.6-1.9l-2.3-3.7l-1.2-4.8v0.1  l-4.4,1.9l-2.899-0.3l-7.899,2.1l-1.101,2.1l-2-0.8l-0.87,0.26l-11.73,3.44l-6.399,5.4l0.899,5.6l-1.699,4.6l0.602,6.7l2,4.2  l-1.701-1.4l-0.299,9.7l2.27,1.58l10.529,1.02l1,3l7.101,5.8l12-2.5l-2.601,5.7l1.7,3.1l2.499-3.1l8.4,3.5l0.8-2.8l2.8,4.6l2.4-1.7  l0.8,3.2l8.6-1.8l3.302,2.6l12.6-0.6l2.6-2.2l2.302,1.7l5.198-1.8l16.7,4.6l-0.2-2.5L491.52,96.1z M444.72,93.5l-2.8,0.8l3.5-3.3  L444.72,93.5z" />
<path
   id="Cont-intext"
   fill="none"
   stroke="#FFFFFF"
   stroke-width="2"
   stroke-miterlimit="10"
   d="M465.33,186.4l3.2,4.5l9,1.2v-3.3  l9.5-7.6l6.5-0.9l3.1,0.5l0.4,6.1l2.6,2c1.9,0.8,3.8,1.5,5.602,2.3l2.5-1.5 M507.73,189.7L507.73,189.7 M484.43,137.7l6.69,0.9   M507.73,189.7L507.73,189.7 M523.72,181l-8.6,2.2l2.2,2.5l-2.302,2.2l0.7,2.9h-4.7 M511.02,190.79l-3.289-1.1 M484.43,137.7l-1,2.8  l-5.3-1.8l-8,4l-1.2,2.6l3.2,8l-5.5,2.3l1.602,2.4l-0.802,2.7l2.5,1.3l-7.698,10.2 M459.83,200.7l-15.4,3l-0.199,5.8 M462.33,191.4  l-2.9,0.8l0.4,8.5 M445.33,156l2.6,0.7 M513.42,222.29l-0.2-4.8l5.602-2.5l0.1-2.7l-0.5-9.9l-5.6-3l-2.4-5.2l0.601-3.4   M317.431,200.1L317.431,200.1 M484.43,137.7L484.43,137.7 M546.32,353.791L546.32,353.791 M440.03,244.5l-3-2.8l5.3-3.3l1.6-2.4  l-1.1-2.9l4.6-4.9l-0.398-5.8l-6.7-7.5l-11.2,2.7l-9.2-0.7l2.602-1.5l0.6-2.7l-4.199-4.3l-0.699-3.1 M542.03,318.291l2.8-1.1  l-0.8-5.302l2.8-5l-2.2-8.698l-2.5-1.603l5-3.699l-8.3-4.399l-0.4-2.9 M542.03,318.291l-4.8-3.301l-5.4,1.301l-5.9-1.5   M513.42,222.29l-3.9-0.5l-4.698,3.9l-6.102,0.9l-2.2,2 M546.32,326L546.32,326 M546.32,353.791L546.32,353.791 M534.53,357.599l6,2  l3-5.1l2.79-0.699 M539.53,281.5l-1.102,4.101 M493.03,276.4l1.1-0.3l2.4,2.601l5.7,1.699l1.3,2.6l5.5,1.9l5.6,6.301l8.8-4.201  l15-1.5v0.101 M539.52,281.5l6.2-6.799l1.8-8.201l1.2-1.3 M546.33,326l-4.3-7.699 M546.32,353.791l11.198,15.199l5.7-6.699l2.3-13.6   M541.93,246.9h0.102l2.7-1.6l2,3l0.1,3.2l-4.6,4.1l2.6,1.4l3.9,8.2l2.3,2l5.39,0.1 M327.83,248l-0.7,2.4l-1.7,9.3l-5.8,15.3v0.101  l5.5,3.2l0.301,3.199l2.899-0.299l1.3,6.1l2.8,1.4l10-0.4l-1.399-2.9l5.301,3l0.3,3.1l7.101,10 M343.92,243.1l0.601-3.5l3.201-1.1  l6.299-10.6l-0.399-5.5l-1.7-2.2l2-2.1V218 M333.931,250.6L333.931,250.6 M343.92,243.1l-7.698,4.5l-2.802-0.3l0.5,3.3   M354.431,243.6l-0.199,5.5l2.199-1.8l6,3.4l-0.699,2.7l3.398,5.1l-1.2,9.1l2.4,1.9l2.6-1.3l4.2,6.7 M343.92,243.1l10.5,0.5   M303.229,240.6l6.699-0.2l0.2,3.5l2,2l3.101-1.3l5.199,3.3l7.4,0.1 M317.431,200.1l-4.301,2.7l0.301,6.9l-4.4,4l1.201,2.9l-5,4.6  l1.398,3.4l-5.5,7.7l1.5,5.6 M320.42,200.2l-2.989-0.1 M333.92,250.6L333.92,250.6 M353.729,301.5l5.601-0.5l-1-2.699l3.3-11.9  l5.102-2.699l2.299,1.699l2.601-3.5l2.5-2.1l-1-4.9l0,0 M440.32,214.9l3.898-5.4 M333.92,250.6l-6.09-2.6 M425.12,182.29l1.1-4.09   M425.63,183.29l-0.5-1l-0.01-0.01 M411.528,248.29l13.502,3.1l3.898,4.8l9-1.7 M413.229,322.291l-4.899-0.201 M432.72,159.5  L432.72,159.5 M432.72,159.5L432.72,159.5 M408.33,322.099l1.5-3.5l-0.899-8.897l-4.699-7.9l1.398-2.701l-2.3-2.198l2.5-5.101  l-2.302-11.7l-11.6-1.601l2.801-5.5 M394.729,273L394.729,273l-5.211-3.5l-6.398,0.9l-1.5,2.6l-2.5-1.3l-5.99,3.2 M394.729,273  L394.729,273 M411.528,248.29l-5,2.4 M381.819,225.89L381.819,225.89 M394.729,273l2.789,0.1l0.602-2.8l9.7-2l-2.101-5.9l5.899-4.1  l-5.101-7.6 M459.83,200.7l3.6,1.5l4.5,5.5l2.5,8.3l2-2.2l3.602,4.1l5,10.9l12.6-1.6l2.891,1.4 M359.33,447.589l-7.5,2v2.9  l2.399,1.399l-4.399,5.5l1.3,2.699l-2.8-0.199l-3.601,4.699 M362.42,447.089l-3.09,0.5 M400.13,462.089l-9.199,3.201l-2.699-1.1  l-3,1.1l1.799,2.199l-1,2.701l-4.799,3.198l-0.5,2.802 M353.83,483.9l-2-6.9l-5.101-4.1l3.299-4.601l-5.299-1.701 M594.22,401.201  l-7.688-3.5 M360.028,435.4l-3.398,3.1l2.7,9.1 M362.42,447.089l-2.101,2.301l4.5,4l2.699,1l2.4-1.5l0.5,4l8.7-2.5l2.601,2.302  l7.5-5.5l6.199-0.802 M423.62,386.201L423.62,386.201 M473.83,352l-3.5-4.299l-6.4-0.4l-1.398-3.201l-13.102-0.5l-1.6-2.5l-3.3,0.5  l-4.4-4.5l1.2-2.799l-2.3-1.701l-11.2,8l-2.5-1.198 M423.63,386.201L423.63,386.201 M423.62,386.201l-6.189-2l-0.601,3.5l-7.601,9.5  l1.799,2.199l-2.299,1.899l-0.301,3.5l-3.1,1.101l1.5,3.399l-3.2,1.9h-0.101 M430.42,383.701l-7.5-3.5l0.7,6 M395.42,450.4  l-0.8-9.101l7.602-5l5.898-1.399l1.7-1.5h0.1l-3.3-5l1.7-5.802l-3.802-6 M323.028,423.099l-1.198,2.5l-2.7-0.897L318.028,428  l2.9,1.4l-8.5,8.6l-0.6,8.9l-3,2.301l1.5,2.5l-4.5,4 M368.528,382.099l-5.698-2.198l2-2.699l-7.2-5.603l-9.5,1.103l0.1-4.701l-6.2-3  l-5.699,6.1l-2.101,5.302l-7.899,5.899l-0.7,5.699l-4.102,5.801l-5.5,0.699l-2,2 M310.83,348.5l-2.7,11.6l-2.7,0.103l-2.3-2  l-8.102,3.299l3.201,5.6l-2.201,2.103l5,3.1l0.302,3l2.399,1.699l-1.701,2.6l1.5,2.603l-2.398,1.699l2.3,2l-1.698,3l6,1.198  l6.299,6.302v0.1 M314.028,396.5l-0.1,0.4l-2,5l3.7-0.601l1.2,2.799l-2.8,5.5l-0.2,5.701l-2,2l9.8,2.299l2-3.198l2.399,2.6  l-0.899,2.9l1,1.301 M324.028,341h-0.1l-0.8,0.801l-3.5-0.399l-5.8,2.5l-0.3,3l-2.7,1.6 M313.028,281L313.028,281l3.4,9   M360.028,435.4l-4.198-4.199l-5.399,2.699l-1.5-6l-6.101,1l-2.2-1.802l-2.8,2l-8.899,0.5 M304.13,513.9l2.301,1.6l-0.101-2.699  L304.13,513.9z M344.729,466.589l-2.7,1.301l-8.601-1l-5,2.9l-8.3-0.701l-1.399,2.5l-3.7-0.699v0.101 M315.028,471l-0.398,2.9  l-2.5,1.301l-0.602-3l-9.398,2.699l0.5,6.399l-4.199,11.101l1.6,2.698 M306.63,495.4l-6.602-0.302 M315.028,471l-0.698-2.6  l3.601-5.199l-11.699-2.9l-0.4-4.6 M395.819,458.5l2.301-2.4l-3.102-2.698l0.4-3 M560.12,456.701l2.3-0.103l1-0.198 M555.83,461.5  l2.2,5.4l-1.2,3l3.7,5.198l-1.7,2.5l3.4,1.103l6.1,6 M555.83,461.5l4.3-4.799 M555.83,461.5l-5.2-2.299l-0.1-2.801l-9.3-0.9  l-0.5-5.799l-2.5,2.199l-2.4-1.4l-8.7,3.9l-3.5-4.199 M567.62,424.5l-0.3,3.4l-5.802,0.301l-2.5,6.699l3,2.301l-2.5,2.5l-4.198-1.4  l-3.2,5.101l1.5,2.6l10,5.701l-0.2,4.699 M531.52,386.701l4.9,2.699l3.3,7.801l-1.1,6.299l2.7-1l8.2,1.9l3-1.699l0.8,17.5l3-0.5  l5.398,4l5.9,0.799 M581.33,396.201l-1-5.4l2.3-5.5l-2.7-6.301l-9.398-2.1l-0.3,2.801l-6.2-0.201l-6.5-10.5 M586.53,397.701  L586.53,397.701l-5.21-1.5 M586.53,397.701L586.53,397.701 M517.82,453.191L517.82,453.191 M568.63,421.39l5.5-1.198l0.9-2.802  l12.6-3.899l3.102,1.1l0.398-5.799l-4.398-3.1l-1.802-4.201l1.602-3.799 M567.62,424.5l1-3.1 M461.43,460.5l7.801,3.4l3.899-0.5  l0.101-3.302l8.699,2.201l6.301-1.801l-1.399-3l1.2-2.9l-3.9-7.698l3.602-2.5l1.1-2.101 M460.33,411.201l2.3,1.699l1.5,5.698  l6.4,1.201l0.1-2.801l2.9,0.201l9,7.699 M430.43,383.701l1.5,2.5l6.7,0.299l6.5,5.4l3.7-4.101 M482.53,424.89l2.1,9.101l4.2,8.301   M483.23,387.099L472.13,387.8l-5.2-3.201l-8.5-0.1l-9.6,3.201v0.1 M460.33,411.201l-1,1l-6.8,5.699l-1.7-2.302l-6.9,15.9   M460.33,411.201l-3.5-8l3.4-0.201l-2.602-1.1l-3.3-8.699l-5.5-1.5v-3.9 M503.24,333.519l2.08,2.98l-4.9,3.5l-1.6,8.6l5.198,6.701  l-1.698,5.9l2.3,1.6l-1.3,2.5l1.1,3l4.6,4.101l5.9,2.1l0.9,3 M482.53,424.89l6.7-6.399 M279.53,285.291l2.3,5.699 M508.83,394  l3.5-0.799l3.2-4.9l5-2.701 M523.62,450.201l-5.9-0.701 M489.22,418.5l5.9-1.9l3.398-5.897l3.4-0.4l-0.7-2.801l2.602-2.299  l1.5-5.201l2.6,1.201V398.1l0.9-4.1l-2.2-2.4l-2.602,1l-0.698-5.5l-6-2.198l-6.2,3l-2.8,0.399l-2.302-2 M517.72,449.5l2.102-14.4  l3-5.897l-1-7.103l3.5-4.5l1.5-6.198L523.02,400.1 M531.52,386.701L531.52,386.701 M517.82,453.191l-0.102-3.691 M525.93,314.791  L525.93,314.791 M525.93,314.791L525.93,314.791 M520.03,335.701l-1.5,8l3.1,9.199l2.8-0.5l3.7,5.698l6.4-0.5 M520.03,335.701  l5.898-20.9 M404.528,416.599l-1-5.397 M323.021,423.099L323.021,423.099 M415.33,174.7l-0.399,4.1 M400.13,462.089l-4.3-3.6   M425.12,182.29L425.12,182.29 M323.028,423.099L323.028,423.099 M328.92,429.589l-2.8-6.397l-3.09-0.103 M398.63,196.79l2.801,10.6   M520.03,335.701l-5.7-7.701l-1.6,2.301l-2.5-1.5l-2.2,1.601l-2.2-1.699l-2.3,1.897l-0.29,2.92 M520.43,380.099l-4.6-2.6   M373.13,274.9L373.13,274.9 M376.229,326.701l1.199,2.6 M377.42,329.291l-3,5.299l6.601,9.801l1.801,5.199l-0.9,3.4l2.9,1.5  l0.1,2.801l6.4,0.5l4.699,3l0.601,5.9 M520.53,385.599v-4.397l-0.2-1.103h0.1 M522.53,389.791l0.5,10.299 M527.93,448.201l1.9,2.199  l4-1.199l2.5-3.5l-4.5-2.801l-2.7,2.301L527.93,448.201z M531.52,386.701L531.52,386.701 M531.52,386.701l-8.988,3.1   M520.53,385.599l2,4.201 M520.43,380.099l4.4-3.897l-1.9-2.5l2.5-2.5l6.9-1.5l2.5-5l-0.3-7.103 M396.13,508.701l5.189-1.801   M445.42,91l-3.5,3.3l2.8-0.8L445.42,91z M390.028,149l-4,9.5 M491.13,103.44v-0.04 M303.229,240.6L303.229,240.6 M236.42,180.7  h-0.69l-0.01,0.1 M235.72,180.79L235.72,180.79 M235.63,182.5l0.09-1.71 M448.88,543.57l0.05,0.028 M235.63,182.5L235.63,182.5   M217.55,252.39l-0.02,0.01 M391.05,558.9h-0.021 M243.53,496.5l0.02,0.01 M562.33,226.29l8-5.8 M556.42,267.29L556.42,267.29   M425.83,506.9l-0.5,2.801 M235.72,180.79l0.7-0.1 M403.63,363.291L403.63,363.291 M570.32,220.5L570.32,220.5 M570.32,220.5  L570.32,220.5 M401.83,506.089l-0.5,0.801 M284.94,386.791l3.782-0.5 M260.92,192.2l-4.7-9.6 M378.63,516.089L378.63,516.089   M396.13,508.701L396.13,508.701 M396.13,508.701L396.13,508.701 M617.02,442.611l0.012-0.013 M403.63,363.291L403.63,363.291   M425.33,339.39l-0.5,4.101 M376.729,408.39l8.101-0.801l6.7,6.103l5.3-2.701l6.7,0.201 M362.431,447.089L362.431,447.089   M368.528,382.099l2.9,4.701l-3.6,4.601l1.699,3l-2,1.801l2.301,1.5l0.199,3l3.201,0.699l3.5,7 M360.028,435.4l4.701-6.5l6-3.4  l-0.601-3.6l4.5-3.199l1.399-5.301l0.701-5 M445.03,299.099l1.3-8.897l0.2-5.801l-2.2-2l-0.3-5.9l-3.102-7.6l-2.698-2.1l1.698-5.8  l-2-6.5 M445.03,299.099h-0.102h-4l-4.8,3.701l-8.398,2.9l-2.302,1.897l1.7,5.302l-1.7,2.399l-8.699,1l-3.5,5.9v0.1 M425.33,339.39  l-3.6-8.399c-2.501-1.601-4.9-3.199-7.4-4.799l-1.101-3.9 M408.33,322.099l-2.7,0.802l-13.2-2.699l-1.899,2.5l-11.5,1.1l-2.799,2.9   M403.63,363.291l11.189,5.199l2.301-2.601l2.699,0.802l2.399-2.4l-4.399-5.5l9.301-8.6l-2.3-6.701 M422.23,364.291l1.198,5.6  l-1.698,2.4l1.198,7.9 M362.42,447.089L362.42,447.089 M313.028,281L313.028,281 M333.13,344l-9.102-3 M316.431,290l-0.801,3  l2.7,1.201l-4.5,14.1l2.7-0.899l1.5,3l-3.4,5.5l0.5,5.801l2.102,2l-0.102,2.799l6.4,0.201l-3.2,8.5l4.5,3l-0.8,2.799 M319.62,275.1  l-6.592,5.9 M303.229,240.6L303.229,240.6 M302.63,237.9l0.602,2.7 M353.729,301.5l2.101,3l-0.8,5.801l4.6,4.4h2.9l2.6,5.397  l2.5,1.302l-1.5,2.801 M376.229,326.701l-1.7-2.5l-5.8,1.1l-2.601-1.1 M366.13,324.201l-0.8-0.301l-1.3,2.399l-3.301-0.899l-1.301,3  l-5.6,2.698l-3,5v3.5 M333.13,344L333.13,344 M342.021,365h-0.101l3.399-3.799l2.801-0.603l4-8l2.6-1.1l0.602-3.199l-4.7-3.6  l0.2-5.103l-4.801-0.6l-1.3,2.5l-3.801,1.4l-4.101-3.9l-2.199,1.801l1.398,2.4L333.13,344 M333.13,344L333.13,344 M403.63,363.291  l-7,3.4l-8.699,4l-4.9,4.6l-5.699,1.299l-4.7,4l-2.5-1.199l-1.601,2.699 M489.53,264.9h0.09l-1.3-2.7l1.3-8.1l6.7-10.4l-1.7-2.3  l2.8-2.1l0.3-3.7l-3.1-3.9l1.898-3.1l0,0 M496.52,228.6L496.52,228.6 M494.12,276.1v-0.8l0.398-3.2l-3.698-1.2 M493.03,276.4  l-2.7,0.4v1.3 M490.83,270.9l-1.3-6 M493.03,276.4l-2.7,1.7 M476.93,315.099l-6.699-13.5 M487.53,279.1l2.8-1 M439.43,252.1  l-1.5,2.4 M442.22,251.4l-2.2-6.9 M439.42,252.1l2.8-0.7 M445.03,299.099l5.7,6.302l6.398,0.198l2.8-1.698l4.4,3.698l5.899-6   M470.23,301.599L470.23,301.599 M470.23,301.599l6.988,2.802l11.301-5.699l-0.699-2.9l1.898-2.1l-4-7L487.82,285l-0.301-5.899   M470.23,301.599L470.23,301.599L470.23,301.599 M482.22,330.5l3.7-4.6l0.5-5.5l-1.6-2.4l-7.9-2.9 M489.53,264.9L489.53,264.9  l-5.511,0.4l-1.5-2.8l-2.801,0.9l-0.898-3.7l-5.801,0.9l-5.5-3l-3.899-5.6l-4.601,4.3h-6l-7.399-4.8h-3.4v-0.1 M470.23,301.599  L470.23,301.599 M503.24,333.519l-0.01,0.08 M482.23,333.5v-3l-3.9,1.301l-0.5,3l1.5,12.4l-5.5,4.799 M483.23,387.099l3-7.1  l-2.7-7.5l-4.602-3.799l-4.698-7.7l2.1-6.299l-2.5-2.701 M486.02,386.291L486.02,386.291 M482.22,333.5l5.2,3.301l8-1.5l2.1,2.101  l5.7-3.802v-0.1l0.021,0.02 M483.23,387.099l2.789-0.799 M486.02,386.291L486.02,386.291 M172.83,204.5l-6.8,3.2l0.5,3.5l3.4,5.5  l8.1,1.3l0.1,5.4l-2.5,2.8l-2.8-0.8l2,3.4l0,0 M283.93,326.89l-2.4-1.801l-6.5,0.301l1.4-2.899l-7.1,2.701 M234.32,280.5l5.6,5.601  l11.7,5l0.2-9.5l3.4-0.2v3.1l2.3,1.701l2.4-2.101l-0.5-3l3.2-0.7l1.5-2.4l4.8,3.5 M313.028,281l-2.288-2.289l-9.601,0.199  l-5.601,0.801l-3.7,4.799l-12.3,0.801 M266.93,235.5l-6.8-3.6l-9,3.9l-1.6,2.9l-13.2,0.4l-5.2,3.4 M172.87,204.41l-0.04,0.09   M217.55,252.39l13.18-3.89l0.4-6 M283.93,326.89L283.93,326.89v3.699l5.9,6.5l17.399,6.701l3.601,4.699 M283.93,326.89  L283.93,326.89 M288.722,386.291l0.698,2.799l6.399,1.701l0.601,5.799l6.101,4.301l9.399,1 M288.722,386.291L288.722,386.291   M305.83,455.701L303.729,453l-1.601,3.6h-6.399l-0.601-4.698l-11-7.699l0.4-2.801l-17.2,0.698l1.5-5.397l-3.7-1.301l-5.8,2.6   M172.87,204.41l-0.04-0.01v0.1 M283.93,326.89l9.088-4.5l-2.5-2l0.201-7.399l-4.701-17.9l-4.2-4.1 M288.722,386.291  L288.722,386.291 M378.34,98.21l-5.108,4.09l-8.5,4.4l-2.4-0.3l-4.8,1.8l-10.3,2.1l-2.301,1.6l-13.801,7.4l-4.398,9.7l0.1,2.3l1.2,2  l7.61,1.8 M378.33,98.2L378.33,98.2 M333.528,136.38l-5.1,1.12l-4.1,3.7l-4.7,2.5l-5.7,0.7l-6.9-3.4l-13.898-1.5l-9.4-3.3l-3.4,0.3  l-1.9,2.1l-1.8-0.8l-1.1-4.3l-4-6.5l3.2-5.2l-0.9-2.7l-1.8-1.7l-5.1-0.6l-4,2.6h-2.4l-11.9-4.2l-2.1,0.2l1,2.5l2.2,1.1l0.5,2.3  l-0.1,2.8l-1.8,1.8l1.4,1.9l0.7,5.9l2.9,4.1l2.4,1.2l-0.3,2.2l2,5l2.5-0.3l-1.5,2l-0.4,7.4l1.8,3.6l0.3,4.9l-2,6.1l0.3,5.3l5.1,5.6  l2.4-1.3l-0.5,2.2l-2.5,1.1l-4.8-0.4l-9.2,0.8l-2.9-2.4l1.5-2.3l-2.2-1l-2.3,0.6l-2.2,1.5l-0.7,2.5l2.3,5.1l-1.4,2.1l0.5-2.1l-1.3-2  l-1.7-4.5h-2.11 M335.642,135.1l5.89-2.4l7.6,5l3.4-0.7l4.899,3l-1.899,2.4l2.1,2.1l5.4,2.4l1.399-2.7l8.199-2.5l4.801-7l13.101,3.3   M381.729,166.79l-6,6.9 M235.63,182.5l1.6,3.99l2.5,0.3 M237.22,186.5h-0.3 M172.42,173.7l-1.1,4.3l3.6,4.7l-2.5,8.3l2.5,9.3   M172.87,204.41l2.06-4.11 M229.92,204.2l-4.9,7.1 M231.13,242.5l-1-5.8l3-0.7l-2.8-1.5l2.4-2.2l1-3.2l-2.4-1.7l1.6-2.6l-1.2-2.5  l-5.1-2.8l-0.5-2.8l3.5-0.9l-3.6-0.1l-1-4.4l-2.9,1.1l-1.5-2.7l-3.5-0.9l-6.2,7.5l-1.8-6l-3,0.9l-12.9-6.5l-7.9,3l-12.46-3.29   M229.93,204.2l9-2.5l1.9-13l-0.4-1.7l-0.3-0.2 M337.729,513l3.101-1.1l3.5-5.302l11.399,2.5l0.699-5.799l6.5-6.1l-9.1-13.301   M396.13,508.701l-1.4-2.701l-8.399,10 M378.63,516.089l5.689,2.201 M407.729,553.701l-7.399,0.199l-1.3,2.6l-7.98,2.4   M380.729,476.201l1.399,6.299l2.601,1.201l0.199,2.799l2.301,2.1l-0.7,5.4l14.301,9.301l1,2.799 M401.83,506.089l1.8,2.301l6.3,0.9  l1.101-3.301l2.801-0.5l12,1.399 M284.94,386.791l0.588,2.4l-1.698,3.1l-2.8-7.6l-9-9l-1.4-4.701l-3.3,3.399l-0.9,2.802l-6.2,50  l1.2-3.802l2.8-4l3.5,3.4l1.1,4.6l-3.1,0.199l-1.8-1.397l-1.9,1.698l-0.5,2.302l-2.2,3.198v4.601 M386.33,516l2.198,5.5l8.701,3.9  l2.199,5.198l0.2,3.103l-2.2,2.299l2.4,2.5l-1.2,3l-3.2,0.6l0.801,5.701l3.399,1.5l3.3-1.201l4.801,5.603 M442.23,490l-1.302-2.799  l-11.1-1.301l-4.2-5l-4.3-11.5l-4.8-4.302l-10.3-5.799l-6.102,2.799 M443.93,431.5l-2.6-5.1l0.5-3l-2.4-1.601l-1.3-4.201l-5.2-4  l-4.699,4.201l-3,9.101l-3.801,4.801l-6.399-1.5l-5.1,3.199 M442.23,490c-2.2,1.5-4.5,2.9-6.802,4.4l-6.1-2.199l0.7,9.699l-0.801,3  l-3.399,2 M448.88,543.57l-9.45-5.57l-8.199,5.4l-13.601-1l-2.7,1.399l1.4,6l-8.601,3.9 M456.12,519.5l-1.7-2l-13.8-4.699l-1-2.899  l-3.8,5.301L432.72,516l-1.398-2.9l-2.5,1.603l-3.5-5 M386.33,516l-2,2.301 M243.55,496.5l1.08-1.51l3.9-7.101l8.8-37.801l2-11.699  V438 M443.93,431.5v0.1l4.2,4.5l2.9,8.802l-0.5,8.698l1.5,2.4l9.398,4.5 M243.55,496.5l3.98,1.891l11-2.5l1.2,2.802l2.7-1.302  l2.5,1.4l1.6-2.201l9.8-2l2.5,2.301l2.3-1.5l2.2,2l4.8-1.899l3.301,1.1l8.6-1.5 M262.63,351.39l1.4,5l1.3-3.198l-1.4-8.4l-2.9-0.5  l-1.7-1.801l-1.5,3.6l1.3,2.301L262.63,351.39z M295.33,540.201l1.198-8.701l1.602-2.799l3.398-0.801l-0.398-2.9l8-9.299l-0.8-3.103  l2.7-1.397l-0.5-7.201h-2.9l1.5-2.799l-2.5-5.801 M284.94,386.791L284.94,386.791 M386.028,158.5l-3.799-0.1l-2.301,2.6l1.801,5.8   M378.63,516.089L378.63,516.089 M378.63,516.089l-0.602,2.801l-2.799,0.5l-3.399-5.5l-2.8,1.101l3,4.801l-5.4,1.6l0.4,5.601  l-6.2-4.101l-2.8,1.101l-3.9,4v5.899l-2.8,1l-3.8,5.199l0.5,1.4 M337.729,513l-7.101,11.201l4.601,4l-0.601,3.5l3.101-0.301  l0.8,2.698l-2.601,5.302l-5.5,3.198l0.601,7 M306.63,495.4l3.898-0.5l2,3.5l3.302,1.301l2.601,8.699l5.5-0.601l1.399,3l12.399,2.199   M353.83,483.9l9.899-0.9l1.699,2.301l5.801-2.5l-2.201-2.301l11.701-4.299 M263.13,334.201l-5.8-4.5l-4.4-1.5l-0.6,2.897l2.7,0.103  l4.8,3.299L263.13,334.201z M617.02,442.611l-6.788,7.789l-2,5.301l4.3,8.5l7,7.699l-5.2-0.601l-5.2,3.799l1.2,2.603l-3,1.397   M621.51,497.07l-2.18-3.972l0.8-2.897l-5.6-2.603l-1.7-5.6l-5.5-2.9 M495.32,496.9l3.3-4.4 M495.32,496.9h0.108l1.102,3.399  l1.898,1.601l3,0.698h13.2l2.2,0.9l1,2.201l-1.6,1.5l2.198,1.397l7.4,0.103l3.2,1.299l1.8-1.699l-1.5-2.801l0.4-2.4l4.898,1l3,5.302  l10-0.802l2.602-1.1l1.8,2l-0.2,2.5l1,2l-1.2,2.201h9.2l1.3,2l2.2-0.801l2.2,0.301l6.398,4.1l-0.6,2.299l3,1.103l1.5-1.701l2.3,0.4  l-0.898-2.199l3.1-0.103l1.6,1.603l2.2-0.701l2.4,1.701l-1.4,1.799l2.2-1.6l0.4-2.302l1.6-1.6l2.7-0.5l4.898,1.5l-0.1-2.699l3.5-1.1  l4.8-2.5l4-0.201l2-4.799l-5-0.701l5.5-5.699l0.7-2.5l6.8-1.7l1.38-2.529 M495.32,496.9L495.32,496.9 M381.729,166.79l3.601,6.6  l0.5,10.9l6.2,5.4l1.199,5.6l2.301,2.2l3.1-0.7 M621.72,497.4l-0.2-0.302 M621.51,497.07l0.021,0.028 M608.18,253.79L608.03,254  l-2.2,4.9l7-0.7l-1.5,2.3l-2.4,2.2l0.4,3l-4.8,6.2l-4.8,4l-0.4,2.9l-2.5,2.699l-5.7,1.701l-0.3,0.299l-1.7,2.301l0.9,2.699l-0.7,4.5  l0.5,2.5l-9.5,8.801l-2.9,5.199l-2.8,8.801l4.5,2.699l-1.8,4.701l0.3,2.5l-4.399,1.5l-1.899,2l0.2,2.799l2.699,1.1l2.301-1  l2.3,0.103l3.399-3.5l2.101-1l1-2.301l-2.8-1.302l1.8-5.1l2.399-0.799l2.301,1l3.6-2.9l9.5-1.301l3.2,0.6l-0.5,2.701l4.2,4.101  l-2.102,6.399l-0.6,1.5l4.6,1.699l-0.1,4.801l2-1.399l4.6,6.6l-1.3,5l-2.5,1.701l-4.899,0.897l-0.601,3.701l1.9,4.699l2.7,1.102  l1.5,1.898l2.8,0.4l-0.7,3l1.3,5.2l5.101,4l2.199,1.199l-1,10.301l-3.1,1.398l-2.2,0.701l-4.5,3.399l-1.5,2.398l-2.5-1.398l-5.1,1.3  l-2,1.801l1.8,4.6l2.4,0.601l1.1,2l0.4,3l1.198,2.2l3,2.3l5.7,0.5l2.2,1.301l-0.7,2.1l3.2,4.699l-3,1.5l-2,2.301l-0.4,4.9  l-2.198,1.5l-0.602,2.897l3.5,4l-1.8,4.802l0.188,0.211 M621.51,497.07l0.42-0.771l0.102-2.201l1.3-1.799l3.2,0.101l1.398-1.699  l2.4-0.603l-0.1-2.799l1.8-2.399l2.3-0.5l1.5-2.101l3,0.9l0.9-2.4l2.3-0.5l3.5-2.899l1.1-2.699l-1.1-2.701l0.5-1.6l3.3-5l2.7-1.601  l0.2-2.301l1.6-1.9l-0.3-3.198l-1.5-2.199l0.3-2.603l-2.7,1.802l-10.3,2.399l-1.8-1.399l-2.5,0.399l-4.2-2.801l-6.9-1.6l-6.91-7.789   M495.32,496.9l-2.392-0.101l-5.898,2.601l-3.602,3.198l-7.198,4.603l-4.302,4.199l2.102-3.5l-4.3,6.6h-6.802l-5.5,4l-1.13,1.17   M184.33,257.29l1.3,2.7l5.1,1.2l1.1-2.1l-2.9-1.2l-2.1-2.2l-2.1-1.4L184.33,257.29z M284.94,386.791l-1.81-7.301l-3.7-4.799  l-4.3-2.701l-1.5-2.601l-9-6.5l-1.1-4.301l1.5-1.699l2.2-0.399l0.1-2.601l3.3-3.1l0.2-5.1l1.5-1.9l-3-7.201l-2.2-1.699l-2.4-0.301  l4.5-5.897l0.6-3.4l-2.9-0.4l-0.5,2.699l-3.9-3.299l0.9,2.1l-1.8-2.5l-2-1.198l-2.9,0.1l-3.9-4.301l-3.4-0.5l-8-5.4l-1.2-5.299  l-2.7-5.6l-8.7-9.502l-0.2-2.398l1.2-2.301l3.4-4.3l0.8-2.601l2.1-1.1l-2.8-4.1l-7.8-3l3-1.3l0.6-2.2l-0.5-2.5l1.4-2.1l5.8-1.1  l-5.5-0.7l-6.6,3.7l-4.1-3.2l-2.2,1l-2.2-1.2l-0.5-4.9l0.9-2.5l3-0.5l-0.9-2.2l-0.18-0.31 M174.83,228.79l0.1,1.5l2.9,4.4l2.3-0.2  l1.5-1.7l-0.8-5.1l0.6,2.4l1.7,1.7l1.9-1.7l-2.5,4.2l2.2,1.4l-2.3-0.6l4.9,3l1.7-2.5l-1.6,3.1l2.1,2.6l0.6,3.5l-0.9,2.8l2.1,1.1  l-1.2-3l0.5-3.8l2.2,1.6l5.1,0.1l-0.7-5l1.4,2l2.1,1.5l4.8-0.5l2.1,2.4l-1,2.2l-2.1-0.6l-4.8,0.4l3.8,3.3l12.9-0.9l3.1,1.5l-3.4,0.1  l1.42,2.39 M174.83,228.79v0.1 M217.62,297.701l1.8,1.5l2.1-0.9L217.62,297.701z M235.63,182.5v0.09l-2.5-0.2l-1.3,1.9l-1.8-4.4  l-2.9,1.1l2-2.5l-2.7,0.2l-8.1,3.3l-2.4,2.7l-3,1l-0.7,2.2l-0.8-3.7l-3-2l-2.2-5.4l-7.2-7.8l1.1-2l-2.6,0.5l-1.7,3.1l1.2-4.4  l0.1-2.3l-2.9,0.8l-3,3.6l1.5-2.6l-0.9-2l-1.5,1.8l-2.2-0.3l-2.1,1h-2.5l-1.9-1.4l-2.2,0.6l-1.5,1.6l-1.1,7.7l-3.2,0.4l-2.4-3.1  l-4.7-0.3l-1.2,4.5l-1.3-2.5l-2.2,1.5l-0.4-5l-2.9,0.5l-1,2.2l-3-1.6l-6.7,3.1l-2.3-2.6l-3.8,2l-2.9,0.1l-1.2,1.9l1.9,1.7l-1.6-1.4  l-2.5,1.2l1.9,1.1l-5.1-1.5l-2.1,0.8l-1.8,1.6l-0.8,2.6l2.2,0.9l-2.5,1.6l-0.6,5.3l1.5,1.8l2.7-1.2l2.7,1.2l7.5-2.9l2.3-0.1l4.4-2.2  l-7.1,4.5l0.8,2.2l2.7-0.8l2.6,0.2l-2,1.5l4.2,2l-2.2,0.5l2.8,2l3.7,0.9l-5.4-1l-2.1-3.1l-4.6,0.8l-4.9-1l-1.7-2.3l0.3,2.2l-1.3,1.8  l2.6,4.2l1.5-2.6l6.8,2.5l1.6,3.6l-0.7,2.5l-2,1.3l-1.8-1.8l-12.5,1.8l-2.2,1.3l7.5,2.2l2.1-1.4l-1.6,1.7l2.8,1.8l2.4,3.1l1.5,5.5  l-1.5,1.6l2.1,1.6l5.9,0.2l1-2.8l2.2-1l-1.3-1.9l2.4-4.3l-1.6,4.6l3.5,3.1l2.3-0.2l0.8-2.5l4.2,6.1l2.2,1l2.5-0.7v-2.7l0.3,2.7  l3-0.8l-2.2,0.7l1.2,1.9l5.5,1.2l0.8-1.4 M456.13,519.5l0.17,0.17 M456.3,519.669l-1.47,1.531l-5.2,9.299l-0.899,3.5l0.149,9.57   M461.03,476.4l-3.7,1l-3,5.301l-6.3-1.301l-0.102,8.698l-5.698-0.1 M243.55,496.5l-3.52,4.891l-2.7,1.9l-4.5,0.9l1.9,4.5l4.5-0.201  l0.2,2.201l2.4,1l2.2-2.103l2.4,1.301l2.5,0.101l1.4,2.801l-2.5,6.699l-2.1,2.201l1.3,2.198l4.3-0.1l0.7-3.4l2.3-0.1l-1.3,2.4  l5.9,2.299l1.5,1.801h2.5l6.1,3.799l5.8,0.4l2.3-1l1.4,2.1l0.3,2.801l2.7,1.302l3.9,4l2.101,0.897l1.101-2.1l2.7,2.1l3.6-1.1  l2.301-2l7.8,5.5l1.101,2.5l2.102,1.701l2.199,0.897l6.899-2.1l3.899,0.301l1.899,1.699l2.5,0.5l2.399-1.799l2.301,1.6l2.4-0.5  l8.799,0.699l-0.199-7.601l1.199-2.399l18.701,5.399l1.299,2.802l10,0.6l2.801,5.9l2.4,0.799l1.299-2.1l2.801-0.4l1.699,1.701  l3.701,0.1l2,2.1l2.6,1.101l-0.78,0.899 M391.05,558.9l-2.021,2.301l2,2.1l7.5,2l1.701,4.799l1.899,1.701l4.601-2l1-2.1h3l2.5-1.4  l7,2.9l4.001,3.1l2.898-1l2.4,0.699l2.1-1.199l0.602-2.399l2.398-1.101l3,0.199l6.9-3.9l8.1,2.701h2.3l-1.898-3.801l-3.9-3.299  l-0.25-15.631 M222.53,281.1l3.2,1.8l2.9,4.1l-1.4-3.799l-1.9-1.201l0.5-2.199l-2.1-0.9L222.53,281.1z M456.3,519.669l0.03,0.031   M387.931,80.1l12.1,1.1l1,3l7.101,5.8l12-2.5l-2.601,5.7l1.701,3.1l2.499-3.1l8.399,3.5l0.8-2.8l2.801,4.6l2.399-1.7l0.8,3.2  l8.602-1.8 M445.53,98.2l3.5-10.6l-1.8-2.4l-3-0.4l0.698-2.7l-3.898-5.2l3.1-1.6l-3.8-5.3l-5.9-1l1-6.1l-1.3-2.5l-1.7,2.2l-11.6-0.5  l-4.101-4.2l0.601-2.8l-5.5-2.6l-6.271-12.14 M405.562,40.35l-11.73,3.44l-6.4,5.4l0.9,5.6l-1.7,4.6l0.601,6.7l2,4.2l-1.7-1.4  l-0.3,9.7l2.3,1.6l-2.899-0.7l-1.199,5.1l5.6,6l-3.5-0.3l-1.399-1.8l-2,1.2l-3.399,6.6l-2.391,1.91 M491.13,103.44l-2.898-0.94  l-0.2-2.5l3.5-3.9l-1.4-3.3l-2.6-0.2l1.398-4.7l2.102-2.4l-2.3-0.2l-5.5-6L478.93,81l-2.398-1.1l-4.602,0.3l-1.1,2.6l-1.4-1.9  l-0.699-2.3l0.601-2.3l-1.8-4.4l-2.8-1l-2.2,0.7l0.5-2.2l-2.4,0.2l-2.1,1.4l-2.8-0.6l-2.102-3.5l-1.3-5.2l-0.1-1l-3.802-7.5l-8.1,3  l-0.601,2.4h-2.101l-3.1-1.5l-2.7-5.1h-3.4l-1.199-5.8l-0.601-0.8l1.601-1.9l-2.301-3.7L424.73,35v0.1l-4.4,1.9l-2.899-0.3  l-7.899,2.1l-1.101,2.1l-2-0.8l-0.869,0.26 M537.43,123.27l-2.1,0.13l0.9-2.4l-2-1.7l-4.9-0.6l-2.8-3.8l-4.3-2.4l-3.302,0.9  l-1.398-1.9l-0.602-3.1l1-2.4l-3.3-4.5l0.602-5.2l1.698-1.6v-3.8l-2.8,0.2l-4,3.8l-1.1,6l-7.301,3.2l-9.801-0.4l-0.8-0.26   M405.562,40.35l-0.031-0.06 M393.528,116.6l-3.398-8.4l-11.79-9.99 M410.028,169l-5.5-6.1l-9-3.6l-9.5-0.8 M537.43,123.27  l-1.6,1.13l-2,2.7l-5.7-2.1l-1.898,2l0.8,8.8l-3.2,5.1l1.4,2.5l-4.2,3.6 M425.83,158.5l-10.899-6.4l-2.199,1.6l-9.201-2.2  l-6.299,1.8l-5.602-1.1l-1.602-3.2 M661.72,569.5l-3.79-0.5 M393.528,116.6l-3.1,4.7l1.4,8.7l-1.301,8 M390.028,149l4-2.6l-3.5-8.4   M630.24,152.9l0.12-0.31 M615.39,249.46l0.342-0.16l2.398,1.1l-0.3,2.5l3,1.1l3.8-1.4h2.7l1.5-1.6l-0.5-2.2l3.1-0.9l0.2-2.3l2.2-2  l-0.6-3.5l-1.802-1.5l-0.1-6.7l2.2-11.1l-0.2-3.4l-1.6-1.9v-5.3l3.198-6.3l1.2-5.5l1.5-2l-0.7-3.6l2.4-7.2l-0.3-4.9l1.399-3.3l2-1.5  l7.801-10.5l2.8-9.4l-11.5-3.1l-2.4,0.6l-8.89-0.6 M661.72,569.5L661.72,569.5 M624.22,538.589v0.201h0.011 M661.72,569.5  L661.72,569.5 M661.72,569.5l3.2-1.699 M537.43,123.27l0.102-0.07 M527.13,186.2l16.9,10.4l6.898-3.4l3,0.5 M630.24,152.9l-1.71,4.4  l-1.4,2.6l-8.9,0.3l-9.1-4.6l-0.8-2.8l-5,10.8l5.5,2.4l-1.6,2.5l2.3,1.7l1.3-2.5l3,0.3l4.3,3.4l-3,13.3l-2.3,1.8l-3.4-0.3   M542.03,130.4l-1.9-5.6l-1.5-1.6l-1.2,0.07 M630.24,152.9L630.24,152.9l-3.21-1.5l-2.4-2.4l-0.5-2.1l-2.2-1.4l-5.3,4.2l-5.8,0.4  l-2.5-1.9l-2.1,1.5l-1.4-3.5l-3.8-1.8l-2.602,0.2l0.302,2.4l-1.2,1.9l-4.2-0.7v-2.3l-2.8-4.5l-3.7-3.2l0.5-2l-2.3-1.9l-3.102-3.8  l-4.898,0.1l-4.5-2.3l-2.2,0.2l-2,1.2l-1,2.3l-2.3,0.5l-2.3-0.7l-1.5-2.1h-2.4l-3.2-2.9h-6.8l-2,1.9l-4.8,1.7 M555.83,191.4l0.2-2.9  l-2.5-2l1.7-2.8l-1.302-8.6l2.2-13.8l0.9-2.7l-4.9-11.5l1.5-5.9l-1.2-2.7l-4.398-4.8l-5.3,2l-0.7-5.3 M266.93,235.5l7.2,13.3  l-2.7-0.4l-1.9,2.4l8.5,3.3l0.3,5.9l-14.3,2.1l-2.9,2.2l3,0.8l3.6,4.7l0.8,2.8l-2.8,4.5l2.8,1.399l0.4,3l10.6,3.801 M408.319,206.7  l1.9-2.9l1.5,2.7l2.799-1.8l3.701,0.6l3.399-4.8l4-17.2 M418.83,172.7l-0.802-2.7l-3.198-0.5 M425.12,182.29l-2.29-2.19l-2.802,0.8  l-5.1-2.1 M415.33,174.7l5.3-0.1l-1.8-1.9 M414.83,169.5l0.101-1.1l-1.301-2 M413.63,166.4l3.301-1.3l2.6,1.1  c1.601-1.1,3.2-2.2,4.7-3.3 M411.229,177.29l-7.101,5.4l-1.601,2.6l0.701,2.9l-4.602,8.6 M488.22,102.5l-16.688-4.6 M461.43,460.5  l-2,3.9l-2.8,1.1l8.4,4.1l-4.3,5.302l0.3,1.5 M408.33,206.7l-6.899,0.7 M414.83,169.5l-2.5,1.7l3,3.5 M414.931,178.79l-3.699-1.6  v0.1 M410.028,169l3.602-2.6 M381.819,225.89L381.819,225.89l2.511,7.11l-1.8,3.2l1.699,5.6l3-1.3l2.399,1.5l1.101,3.8l2.899,0.6  l1.9-2.3l15.2,1.6l0.8,2.6 M462.32,191.4l3-5l-2.602-1.7l-3.5-8.3l2.602-2.2l0.398-2l-9.3-6l-3.899-4.2l0.699-2.8l-1.8-2.5   M432.72,159.5l2-2.2l2.5,1.6l8.102-2.9l2.1-1.7l-0.5-2.8l-2.899-1.1l-2.399,1.5l-0.7-2.9l3,0.2l-2.899-4.5l2.601-1.7l2.399-5.7  l2.601-1.1l-2.2-1.8l0.8-4.5l-0.398-10.2l-10.301,1.5 M448.83,100.79l-0.4,3.8l-3.898,8.1l2.3,7 M471.53,97.9L471.53,97.9   M448.83,100.79l12.6-0.6l2.602-2.2l2.3,1.7l5.2-1.8 M471.53,97.9L471.53,97.9 M424.23,162.9l0.1-0.1l1.7-2.3l-0.2-2 M426.23,178.2  l-0.302-2.9 M425.93,175.29v-0.1l-1.3-4.7l1.3-2.5l-1.699-5.1 M432.72,159.5l-6.89-1 M448.83,100.79l-3.3-2.6 M393.528,116.6  l4.102,3.7l3.102-1.2l14.398,2.2l12.8,6.7l8.602-6.8 M425.93,175.29l-7.1-2.6 M337.431,165.5l-5.601-1l-7,1.7l-7.2,5.4l-2.898,0.3  l-5.701-1.1l-2.6,1.7l-4.9-3l-6.399,2.3l-2.7-1.3l-0.899,2.7l-5.399,2.9 M284.83,191.5l3.601-4.5l1.801-6.7l-4.102-4.2   M333.528,136.38l1.701-0.38l0.279-0.1 M267.33,233.29l10.5,3.5l2.1-1.9l8.7,3.6l3,0.4l5.898-2.7l5.102,1.7 M335.51,135.9h-0.079   M381.63,223.1l6-2.8l8.5-0.6l4.801-10.8l0.5-1.5 M317.431,200.1L317.431,200.1V200v-2.9l-3.301-1.6l-1.898-6l-2.701-0.2l-0.699,2.7  h-9.1l-6.701,3.3l-2.5-1.7l-2.399,1.6l-3.3-3.7 M267.33,233.29l3.6-8.6l5.5-2.2l-1.9-17.3l1.5-2.4l0.1-12.1 M267.33,233.29l-0.4,2.2   M276.13,190.7l-5.4-2.3l-7.1,4.8l-2.7-1 M276.13,190.7l8.6,0.8h0.1 M276.43,137.7l0.1,0.8v0.1l0.5,6.6l8.4,3.1l-2,2.6l2.2,8.2  l-8.1,4.9l1.6,2.3l-4.5,5.3l1.8,2.4l9.7,2.1 M333.528,136.38V136 M352.229,212.4l-1.101-7.5l7.5-5.1l-0.5-4.6l0.2-4.5l-4.8-4.4  l-0.102-3.2 M352.229,212.4l-3.2-0.7l-3.101-3.5l-2.899,1l-7.199-5l-1.601-8.4l-2.801-1.5l-11,5.9 M353.431,183.1l-3.4-2.1  l1.701-2.3l-7.801-9.5l-6.301-0.5l-0.199-3.2 M353.431,183.1l2.399-2.6l6-1.1l5.3-3.2l2.8,1.6l6-1.3l-0.198-2.8 M352.229,212.4  l2.101,3.8l-0.399,1.8l6.301-1.3l12.799,10.8l5.5-3.5l3.291,1.89 M335.42,135.9l-1.899,0.1 M381.62,223.1l0.199,2.79 M335.642,135.1  L335.642,135.1l-0.512,0.3l0.971,0.29 M337.431,165.5l0.699-2.2l-2.3-4.1l1.399-3l-2.801-9.4l2.301-2.1h-2.899l-0.3-8.3v-0.02   M335.51,135.9l0.591-0.21 M335.51,135.9h1.521l-0.899-0.2l-0.03-0.01 M336.101,135.69l0.83-0.29l-1.289-0.3 M410.028,169l-2,3.1  l3.201,5.2 M546.33,326h2.89l0.102,3l2.898-0.1l4-4.4l3.4,1.6l0.4,2.802l3.8-0.199l5.5-3.201l5.3-7.199 M601.72,246.7l-0.2,0.1  l-5.898-0.8l-0.5,2.8l-3.2,0.4l-1.8,2.2l-2.8-0.9l-5.602,1.9l-3,4.7l-22.3,10.2 M570.32,336.5l-2.7,2.9h-2.9l0.8,9.301   M576.62,309.701l-3.102-3l3.602-7.4l2.1-2.301l-4.2-4.101l-2.898-0.5l-5.8-10.1l-3,0.8l-1.5-2.5l-2,2.101l-1.2-2.5l3-5.101  l-5.2-7.8l0,0 M603.03,397.291l-6.8,1.9l-2,2 M565.52,348.701l2.7,6.699l2.7,0.899l1.3,2.5l3,1.699l2.602-1.6l3.198,0.801l4.602,3.6  l9.398-13.899l2.4,1.6l-0.6,3l2.3,1.801l6.2,2.299l2.2-1.5l0.1-0.397 M555.83,191.4l5.8,0.6l-0.1,2.9l4.1,4.8l5.7-0.7l1.1-2.8l5.4-2  l2.4,1.8l6-1l5.3-3.8l1.6,2.7l6.09,1.6 M573.63,484.9l2.7-1.802l4,4.802l10.1-8.5l5.9,3.6l1.2-3.5l9.8-0.4 M601.52,231.2l-2.3,5.7  l1.102,4.3l1.398,5.5 M599.22,195.5L599.22,195.5 M601.52,231.2l-8.398-6.6l-5.102,2.2l-4.898-3.6l-5.8,1.6l-7-4.3 M599.23,195.5  L599.23,195.5 M543.12,503.9l0.398-0.101l2-1.801v-2.5l-2.5,1.201l-2.198-2.603l-4.2-2.5l-0.9,2.701v0.199l0.4,2.4l2.1,1.399  l0.3,2.5L543.12,503.9 M501.22,502.5l3.102-4.9l5.8-1.799l-1-2.701l4.2-4.799l3.3,0.9l1.898-10.603 M522.43,474.5L522.43,474.5  l4.49-5l-6.3-6.4l-0.2-5.5l-2.6-4.397v-0.01 M522.43,474.5l-3.898,4.1 M488.83,442.291l2.7,5.9l7.8,5l7.1-4.302l0.102,3.101  l2.5-2.299h2.8l5.99,3.487 M522.43,474.5L522.43,474.5 M498.63,492.5l-1.5-3l-6.1-6.699l-3-0.201l-0.2-3l-6.8-1.397l0.898-2.701  l-1.898-2.6l-3.9,0.6l-4.2,3.9l-0.1,2.801l-5.3-2.5l-2.2,1.699l-0.4-2.9l-2.898-0.1 M558.33,129.9l2.5,9.4l2.5,1.6l1.2,3.6l-1.7,3.1  l1,5.6l-2.8,0.1l4.3,7.5l11.5,4l-0.3,2.9l2.7,5.1l8.5,1.5l5.3,3.9l14.398,5.3l2,2.7 M484.43,137.7L484.43,137.7l-0.3-14.3l2.7-0.3  l5-7.2l-1.3-3.1l1.3-3.5l-0.7-5.86 M573.62,484.9l-5.3-0.199l-0.102,0.397 M543.12,503.9l-0.5,0.899 M522.43,474.5l10.392,2.9  l5.5,5.698l4.5,2.302l3.5-0.699l12,4.799l3.198-0.199L568.12,485l0.1,0.1 M617.92,424.89l-0.2,0.302l-6,3.299l-9,10.201l-11.1-3.302  l-3.8,4.199l-0.7,3.801l-3.5-4.5l-3.3,0.699l-5.302,4l-1.398,8.603l-3.9-1.103l3.4,4.9l-3.8-1l-5.9,1.399 M566.02,517.589l0.2-2.1  l2.5-2l-2.2-6.299l1.102-2.603l2.7-0.5l-5.5-9.1l2-5.299l3.3-0.802l-1.9-3.801 M527.12,186.2l-3.4-5.2 M615.22,249.5L615.22,249.5   M553.93,193.7L553.93,193.7 M553.93,193.7L553.93,193.7 M513.42,222.29l3.5,0.7l0.5,2.7l2.6,1l-0.3,2.9l2.9,0.3l1.8,2.2l1,3.1  l-2.8,2.4l2.3,4.8l9.2,2l3,1.6v2.8l4.8-1.9l1.2-2.5l6.6-3.9l2.102,1.8l3.198-1l0.302-8.3l2-2.4l2.898,0.3l2.3-3.2l-0.198-1.4v-0.1  l-1.302-2.5l-2.698,1.1l-0.2-3.1l-5.5-4.7l1.7-8.6l-12.7-9.5l2.398-2.3 M609.43,186.2l1.9,1.3l-1.3,10l5.2,2.2l3.1,0.2l8.5,5.6  l0.3,2.8l4.2,2 M553.93,193.7l1.9-2.3 M491.13,138.6l9.8,6.6l20.09,1.9 M521.02,147.1V147 M521.02,147.1L521.02,147.1 M523.22,156.1  l-1,4.1l2.602,1.3l-0.602,3.9l-3.1,1.1l-1.102,5.8l3.2,4.6l0.5,4.1 M523.22,156.1l-2.2-9l0,0 M615.39,249.46l-0.06-0.06l-2-5  l-2.8,0.2l-0.5-9l-7.602-5 M612.44,249.89l-1.11-0.39l-3.15,4.29 M608.18,253.79l0.54-0.59l2.8-3.2 M611.32,187.5l-1.5,0.4  l-10.602,7.6 M608.18,253.79l-0.46,0.51l-1.398-2.4l1.398-2.5l-5.898-2.7h-0.102 M611.53,250l0.8-0.1l0.11-0.01 M601.52,231.2  l0.9-0.6l2.8-2.4V222l4.8-7.8l4.102-13.5l1.1-1 M612.44,249.89l1.188,0.41l1.68-0.8 M615.31,249.5l0.08-0.04 M615.42,249.5h-0.11   M615.23,249.5l-2.79,0.39 M615.39,249.46l0.04,0.04 M615.23,249.5h0.078" />
<path
   id="path13"
   fill="#E8A000"
   d="M322.681,40.35h1.479V52.5h-1.58l-3.851-6.16c-0.851-1.35-1.66-2.74-2.25-4.05l-0.051,0.02  c0.09,1.53,0.11,2.99,0.11,5.01v5.19l-1.49-0.01V40.36h1.73l3.87,6.14c0.88,1.42,1.6,2.68,2.16,3.94l0.049-0.02  c-0.14-1.62-0.18-3.1-0.18-4.97v-5.1H322.681z M334.71,48.06c0,3.24-2.25,4.65-4.318,4.65l-0.021-0.01  c-2.342,0-4.182-1.73-4.182-4.48c0-2.92,1.932-4.63,4.32-4.63C333.01,43.59,334.71,45.41,334.71,48.06z M333.069,48.11  c0-1.48-0.739-3.33-2.609-3.33c-1.852,0-2.67,1.729-2.67,3.38c0,1.91,1.08,3.35,2.609,3.35h0.021  C331.931,51.51,333.069,50.09,333.069,48.11z M338.29,52.5v-4.65c0-0.27,0.01-0.53,0.05-0.76c0.21-1.17,1-2.02,2.12-2.02  c0.221,0,0.38,0.02,0.561,0.04v-1.48c-0.141-0.03-0.271-0.05-0.431-0.05c-1.062,0-2.028,0.74-2.43,1.91h-0.052l-0.068-1.71h-1.391  c0.051,0.81,0.07,1.689,0.07,2.72l-0.011,6H338.29z M341.851,48.27c-0.021-2.92,1.801-4.68,3.909-4.68c1.351,0,2.25,0.63,2.632,1.31  h0.039v-5.19l1.579,0.01v10.53c0,0.77,0.021,1.66,0.07,2.25h-1.42l-0.07-1.51h-0.04c-0.488,0.97-1.529,1.71-2.949,1.71  C343.49,52.7,341.851,50.92,341.851,48.27z M343.45,48.18c0,1.78,0.88,3.24,2.568,3.24c1.062,0,2.03-0.72,2.32-1.89  c0.051-0.22,0.07-0.43,0.07-0.68l0.01-1.52c0-0.22-0.02-0.47-0.07-0.68c-0.229-0.99-1.1-1.82-2.289-1.82  C344.42,44.83,343.45,46.27,343.45,48.18z M292.812,62.89c0.67,0.58,1.08,1.46,1.08,2.54c0,1.1-0.32,1.96-0.951,2.59  c-0.83,0.88-2.181,1.33-3.709,1.33c-0.472,0-0.9-0.02-1.262-0.11v4.86h-1.57V62.13c0.761-0.14,1.75-0.25,3.011-0.25  C290.96,61.88,292.09,62.24,292.812,62.89z M292.312,65.52c0-1.62-1.131-2.4-2.86-2.4c-0.681,0-1.21,0.07-1.479,0.13v4.71  c0.34,0.09,0.789,0.13,1.299,0.13C291.181,68.09,292.312,67.15,292.312,65.52z M301.601,72.01c0,0.76,0.041,1.49,0.131,2.09h-1.42  L300.17,73h-0.05c-0.471,0.68-1.42,1.3-2.67,1.3c-1.762,0-2.66-1.24-2.66-2.5c0-2.11,1.87-3.26,5.239-3.24v-0.18  c0-0.72-0.199-2.03-1.979-2.02c-0.83,0-1.67,0.23-2.29,0.65l-0.358-1.06c0.72-0.45,1.779-0.76,2.879-0.76  c2.681,0,3.33,1.82,3.33,3.56L301.601,72.01z M300.05,69.65c-1.729-0.04-3.689,0.27-3.689,1.96c0,1.04,0.681,1.51,1.479,1.51  c1.15,0,1.892-0.72,2.142-1.46c0.049-0.16,0.068-0.34,0.068-0.5V69.65L300.05,69.65z M306.95,69.03  c-1.141-0.43-1.641-0.75-1.641-1.49c0-0.65,0.5-1.19,1.439-1.19c0.811,0,1.439,0.3,1.779,0.5l0.381-1.13  c-0.46-0.31-1.24-0.54-2.12-0.54c-1.86,0-3.011,1.16-3.011,2.56c0,1.05,0.74,1.89,2.32,2.47c1.149,0.43,1.601,0.84,1.601,1.6  c0,0.74-0.54,1.3-1.671,1.3c-0.799,0-1.619-0.32-2.109-0.61l-0.37,1.18c0.61,0.36,1.5,0.61,2.45,0.61c2.03,0,3.24-1.08,3.24-2.63  C309.24,70.34,308.438,69.59,306.95,69.03z M322.601,71.85c0,0.77,0.021,1.66,0.069,2.25h-1.42l-0.069-1.51h-0.039  c-0.49,0.97-1.531,1.71-2.951,1.71c-2.109,0-3.75-1.78-3.75-4.43c-0.021-2.92,1.801-4.68,3.91-4.68c1.351,0,2.25,0.63,2.631,1.31  h0.039v-5.19l1.58,0.01V71.85L322.601,71.85z M321.021,68.93c0-0.22-0.021-0.47-0.069-0.68c-0.23-0.99-1.101-1.82-2.29-1.82  c-1.641,0-2.61,1.44-2.61,3.35c0,1.78,0.88,3.24,2.57,3.24c1.06,0,2.03-0.72,2.319-1.89c0.051-0.22,0.069-0.43,0.069-0.68  L321.021,68.93z M332.278,69.27c0,0.32-0.02,0.58-0.049,0.76l-6.101-0.021c0.04,2.14,1.39,3.021,2.97,3.021  c1.131,0,1.84-0.2,2.41-0.43l0.29,1.12c-0.56,0.25-1.53,0.561-2.92,0.561c-2.67,0-4.29-1.78-4.29-4.39c0-2.65,1.57-4.72,4.11-4.72  C331.54,65.17,332.278,67.67,332.278,69.27z M330.76,68.88c0.021-0.99-0.409-2.57-2.18-2.57c-1.62,0-2.3,1.48-2.431,2.57H330.76z   M343.778,63.09c1.012,0,1.852,0.21,2.432,0.5l0.398-1.28c-0.408-0.22-1.39-0.54-2.879-0.54c-3.761,0-6.34,2.55-6.34,6.37  c0,4,2.561,6.16,5.979,6.16c1.479,0,2.649-0.29,3.21-0.58l-0.32-1.24c-0.63,0.3-1.6,0.5-2.57,0.5c-2.938,0-4.648-1.89-4.648-4.88  C339.04,64.91,340.938,63.09,343.778,63.09z M354.521,72.01c0,0.76,0.041,1.49,0.131,2.09h-1.42L353.09,73h-0.05  c-0.471,0.68-1.42,1.3-2.67,1.3c-1.762,0-2.66-1.24-2.66-2.5c0-2.11,1.87-3.26,5.24-3.24v-0.18c0-0.72-0.2-2.03-1.98-2.02  c-0.828,0-1.67,0.23-2.29,0.65l-0.358-1.06c0.72-0.45,1.779-0.76,2.88-0.76c2.68,0,3.329,1.82,3.329,3.56L354.521,72.01z   M352.972,69.65c-1.73-0.04-3.691,0.27-3.691,1.96c0,1.04,0.681,1.51,1.479,1.51c1.15,0,1.892-0.72,2.142-1.46  c0.05-0.16,0.07-0.34,0.07-0.5V69.65L352.972,69.65z M357.05,74.1h1.58V61.32h-1.58V74.1z M367.41,72.01c0,0.76,0.04,1.49,0.13,2.09  h-1.42l-0.141-1.1h-0.051c-0.47,0.68-1.42,1.3-2.67,1.3c-1.76,0-2.66-1.24-2.66-2.5c0-2.11,1.87-3.26,5.24-3.24v-0.18  c0-0.72-0.199-2.03-1.98-2.02c-0.83,0-1.67,0.23-2.289,0.65l-0.359-1.06c0.72-0.45,1.78-0.76,2.88-0.76c2.681,0,3.33,1.82,3.33,3.56  L367.41,72.01z M365.858,69.65c-1.729-0.04-3.688,0.27-3.688,1.96c0,1.04,0.681,1.51,1.479,1.51c1.149,0,1.891-0.72,2.141-1.46  c0.05-0.16,0.068-0.34,0.068-0.5V69.65L365.858,69.65z M370.74,61.74c-0.62,0-1.03,0.45-1.03,1.01s0.398,1.03,0.99,1.03h0.02  c0.631,0,1.03-0.47,1.03-1.03S371.351,61.74,370.74,61.74z M369.938,74.1h1.58v-8.71h-1.58V74.1z M376.972,69.03  c-1.142-0.43-1.642-0.75-1.642-1.49c0-0.65,0.5-1.19,1.438-1.19c0.812,0,1.44,0.3,1.78,0.5l0.38-1.13  c-0.459-0.31-1.24-0.54-2.119-0.54c-1.859,0-3.011,1.16-3.011,2.56c0,1.05,0.74,1.89,2.32,2.47c1.149,0.43,1.601,0.84,1.601,1.6  c0,0.74-0.541,1.3-1.671,1.3c-0.8,0-1.62-0.32-2.11-0.61l-0.368,1.18c0.608,0.36,1.5,0.61,2.448,0.61c2.03,0,3.24-1.08,3.24-2.63  C379.26,70.34,378.46,69.59,376.972,69.03z" />
<path
   id="path15"
   fill="#4096EE"
   d="M530.57,84.18c0,1.87-1.37,3.51-4.23,3.51c-1.17,0-2.45-0.36-3.1-0.79l0.43-1.31  c0.7,0.45,1.71,0.79,2.79,0.79c1.6,0,2.54-0.83,2.54-2.07c0-1.12-0.65-1.78-2.29-2.39c-1.979-0.72-3.21-1.76-3.21-3.46  c0-1.89,1.57-3.29,3.92-3.29c1.22,0,2.14,0.29,2.67,0.59l-0.43,1.28c-0.38-0.23-1.19-0.58-2.29-0.58c-1.66,0-2.29,0.99-2.29,1.82  c0,1.13,0.74,1.689,2.41,2.34C529.54,81.43,530.57,82.4,530.57,84.18z M536.45,87.68c-2.67,0-4.29-1.78-4.29-4.39  c0-2.65,1.57-4.72,4.109-4.72c2.851,0,3.579,2.5,3.579,4.11c0,0.32-0.02,0.58-0.05,0.76l-6.1-0.03c0.04,2.14,1.39,3.02,2.97,3.02  c1.13,0,1.84-0.2,2.41-0.43l0.29,1.12C538.81,87.37,537.84,87.68,536.45,87.68z M533.71,82.28h4.61c0.02-0.99-0.41-2.57-2.182-2.57  C534.52,79.71,533.84,81.19,533.71,82.28z M541.81,87.5h1.58v-8.71h-1.58V87.5z M542.61,75.14c-0.62,0-1.03,0.45-1.03,1.01  s0.4,1.03,0.99,1.03h0.02c0.63,0,1.03-0.47,1.03-1.03S543.23,75.14,542.61,75.14z M550.38,78.58c-1.438,0-2.45,0.81-2.88,1.62h-0.04  l-0.09-1.42h-1.41c0.05,0.72,0.07,1.44,0.07,2.36h0.02v6.36h1.58v-5.26c0-0.25,0.04-0.54,0.11-0.74c0.28-0.88,1.09-1.62,2.12-1.62  c1.5,0,2.02,1.19,2.02,2.59v5.021h1.58v-5.2C553.46,79.3,551.59,78.58,550.38,78.58z M563.07,82.68c0,0.32-0.021,0.58-0.052,0.76  l-6.1-0.03c0.04,2.14,1.391,3.02,2.97,3.02c1.13,0,1.842-0.2,2.41-0.43l0.29,1.12c-0.56,0.25-1.53,0.56-2.92,0.56  c-2.67,0-4.29-1.78-4.29-4.39c0-2.65,1.57-4.72,4.11-4.72C562.33,78.57,563.07,81.07,563.07,82.68z M561.54,82.28  c0.02-0.99-0.41-2.57-2.18-2.57c-1.62,0-2.302,1.48-2.432,2.57H561.54z M572.52,82.06h-4.448v1.15h4.448V82.06z M579.81,87.5h-1.568  l0.01-11.97c0.76-0.14,1.75-0.25,3.01-0.25c1.55,0,2.682,0.36,3.4,1.01c0.67,0.58,1.08,1.46,1.08,2.54c0,1.1-0.32,1.96-0.96,2.59  c-0.83,0.88-2.182,1.33-3.71,1.33c-0.472,0-0.9-0.02-1.261-0.11L579.81,87.5L579.81,87.5z M579.81,81.36  c0.342,0.09,0.79,0.13,1.302,0.13c1.908,0,3.04-0.94,3.04-2.57c0-1.62-1.132-2.4-2.86-2.4c-0.68,0-1.21,0.07-1.48,0.13L579.81,81.36  L579.81,81.36z M588.44,77.18h0.02c0.63,0,1.03-0.47,1.03-1.03s-0.392-1.01-1.01-1.01c-0.62,0-1.03,0.45-1.03,1.01  S587.85,77.18,588.44,77.18z M589.26,78.79h-1.58v8.71h1.58V78.79z M597.84,86c-0.46,0.19-1.05,0.41-1.95,0.41  c-1.729,0-3.028-1.24-3.028-3.26c0-1.82,1.08-3.31,3.08-3.31c0.869,0,1.46,0.21,1.84,0.41l0.358-1.21  c-0.438-0.24-1.26-0.47-2.198-0.47c-2.842,0-4.682,1.97-4.682,4.65c0,2.69,1.71,4.47,4.34,4.47c1.171,0,2.092-0.3,2.5-0.5L597.84,86  z M606.11,85.41c0,0.76,0.04,1.49,0.12,2.09h-1.422l-0.14-1.1h-0.05c-0.47,0.68-1.42,1.3-2.67,1.3c-1.76,0-2.66-1.24-2.66-2.5  c0-2.11,1.87-3.26,5.24-3.24v-0.18c0-0.72-0.2-2.03-1.98-2.021c-0.83,0-1.67,0.23-2.29,0.65l-0.358-1.06  c0.72-0.45,1.778-0.76,2.88-0.76c2.68,0,3.33,1.82,3.33,3.56V85.41L606.11,85.41z M604.56,83.05c-1.729-0.04-3.688,0.27-3.688,1.96  c0,1.04,0.68,1.51,1.479,1.51c1.15,0,1.892-0.72,2.142-1.46c0.05-0.16,0.068-0.34,0.068-0.5V83.05L604.56,83.05z M608.66,87.5h1.58  v-4.65c0-0.27,0.01-0.53,0.05-0.76c0.21-1.17,1-2.02,2.12-2.02c0.22,0,0.38,0.02,0.56,0.04v-1.48c-0.14-0.03-0.27-0.05-0.43-0.05  c-1.06,0-2.03,0.74-2.43,1.91h-0.052l-0.068-1.71H608.6c0.052,0.81,0.07,1.689,0.07,2.72L608.66,87.5z M613.8,83.27  c-0.02-2.92,1.8-4.68,3.91-4.68c1.35,0,2.25,0.63,2.63,1.31h0.04v-5.19l1.58,0.01v10.53c0,0.77,0.021,1.66,0.07,2.25h-1.42  l-0.07-1.51h-0.04c-0.49,0.97-1.53,1.71-2.95,1.71C615.44,87.7,613.8,85.92,613.8,83.27z M615.4,83.18c0,1.78,0.88,3.24,2.568,3.24  c1.062,0,2.04-0.72,2.32-1.89c0.05-0.22,0.07-0.43,0.07-0.68l0.01-1.52c0-0.22-0.021-0.47-0.07-0.68c-0.229-0.99-1.1-1.82-2.29-1.82  C616.37,79.83,615.4,81.27,615.4,83.18z M624.58,87.5h1.58v-8.71h-1.58V87.5z M625.38,75.14c-0.62,0-1.03,0.45-1.03,1.01  s0.4,1.03,0.99,1.03h0.021c0.63,0,1.028-0.47,1.028-1.03S625.99,75.14,625.38,75.14z M635.79,83.44l-6.1-0.03  c0.04,2.14,1.39,3.02,2.97,3.02c1.13,0,1.84-0.2,2.41-0.43l0.29,1.12c-0.562,0.25-1.53,0.56-2.922,0.56  c-2.67,0-4.288-1.78-4.288-4.39c0-2.65,1.568-4.72,4.108-4.72c2.84,0,3.58,2.5,3.58,4.11C635.84,83,635.82,83.26,635.79,83.44z   M634.32,82.28c0.02-0.99-0.42-2.57-2.182-2.57c-1.62,0-2.3,1.48-2.43,2.57H634.32z M540.5,98.09c1.01,0,1.85,0.21,2.43,0.5  l0.4-1.28c-0.41-0.22-1.38-0.54-2.88-0.54c-3.76,0-6.34,2.55-6.34,6.37c0,4,2.56,6.16,5.979,6.16c1.48,0,2.65-0.29,3.21-0.58  l-0.31-1.24c-0.63,0.3-1.61,0.5-2.58,0.5c-2.931,0-4.642-1.89-4.642-4.88C535.77,99.91,537.66,98.09,540.5,98.09z M549.55,100.19  c-0.59,0-1.148,0.16-1.62,0.45c-0.479,0.26-0.88,0.67-1.13,1.12h-0.04v-5.44h-1.58v12.79h1.58v-5.26c0-0.31,0.021-0.54,0.11-0.76  c0.3-0.86,1.09-1.58,2.12-1.58c1.5,0,2.02,1.17,2.02,2.59v5.01h1.58v-5.19C552.59,100.91,550.72,100.19,549.55,100.19z   M561.3,107.01c0,0.76,0.04,1.49,0.13,2.09h-1.42l-0.14-1.1h-0.05c-0.472,0.68-1.42,1.3-2.66,1.3c-1.771,0-2.67-1.24-2.67-2.5  c0-2.11,1.87-3.26,5.24-3.24v-0.18c0-0.72-0.2-2.03-1.98-2.02c-0.83,0-1.67,0.23-2.29,0.65l-0.36-1.06  c0.722-0.45,1.78-0.76,2.882-0.76c2.68,0,3.33,1.82,3.33,3.56v3.26H561.3z M559.76,104.65c-1.729-0.04-3.688,0.27-3.688,1.96  c0,1.04,0.68,1.51,1.479,1.51c1.15,0,1.892-0.72,2.142-1.46c0.05-0.16,0.068-0.34,0.068-0.5V104.65L559.76,104.65z M573.43,100.19  c-0.83,0-1.39,0.21-1.91,0.61c-0.358,0.27-0.72,0.63-0.988,1.13h-0.04c-0.38-1.03-1.28-1.75-2.45-1.75c-1.46,0-2.271,0.77-2.76,1.6  h-0.05l-0.07-1.4h-1.392c0.03,0.72,0.07,1.44,0.07,2.36l0.01,6.36h1.552v-5.26c0-0.27,0.04-0.54,0.13-0.77  c0.25-0.79,0.989-1.58,1.96-1.58c1.21,0,1.82,0.99,1.82,2.39v5.22h1.55v-5.4c0-0.27,0.05-0.56,0.12-0.79  c0.289-0.75,0.97-1.42,1.89-1.42c1.26,0,1.89,0.99,1.89,2.68v4.93h1.552v-5.13C576.31,100.95,574.6,100.19,573.43,100.19z   M587.12,104.62c0,3.13-1.93,4.68-3.96,4.68c-1.17,0-2.16-0.5-2.68-1.37h-0.04v4.74h-1.58v-9.44h-0.012c0-1.12-0.02-2.02-0.068-2.84  h1.42l0.09,1.49h0.04c0.63-1.08,1.67-1.69,3.08-1.69C585.53,100.19,587.12,101.97,587.12,104.62z M585.52,104.68  c0-1.75-0.898-3.24-2.578-3.24c-1.08,0-2.11,0.76-2.41,1.94c-0.04,0.22-0.09,0.45-0.09,0.65v1.52c0,0.22,0.02,0.45,0.068,0.65  c0.271,1.1,1.24,1.85,2.36,1.85C584.54,108.05,585.52,106.68,585.52,104.68z M595.23,107.01c0,0.76,0.038,1.49,0.13,2.09h-1.42  L593.8,108h-0.05c-0.47,0.68-1.42,1.3-2.66,1.3c-1.77,0-2.67-1.24-2.67-2.5c0-2.11,1.87-3.26,5.24-3.24v-0.18  c0-0.72-0.2-2.03-1.98-2.02c-0.83,0-1.67,0.23-2.29,0.65l-0.358-1.06c0.72-0.45,1.78-0.76,2.88-0.76c2.68,0,3.33,1.82,3.33,3.56  L595.23,107.01z M593.69,104.65c-1.73-0.04-3.69,0.27-3.69,1.96c0,1.04,0.68,1.51,1.48,1.51c1.148,0,1.89-0.72,2.14-1.46  c0.05-0.16,0.07-0.34,0.07-0.5V104.65z M603.89,100.38h1.4c-0.05,0.61-0.07,1.31-0.07,2.38v5.06c0,2.02-0.409,3.22-1.238,4  c-0.86,0.77-2.092,1.04-3.19,1.04c-1.04,0-2.2-0.25-2.9-0.72l0.4-1.22c0.58,0.38,1.479,0.7,2.56,0.7c1.62,0,2.812-0.85,2.812-3.06  v-0.95h-0.04c-0.47,0.81-1.42,1.46-2.771,1.46c-2.158,0-3.71-1.84-3.71-4.27c0-2.95,1.932-4.61,3.94-4.61  c1.51,0,2.32,0.77,2.72,1.49h0.04L603.89,100.38z M603.66,103.81h-0.021c0-0.25-0.02-0.49-0.09-0.7c-0.29-0.94-1.04-1.69-2.21-1.69  c-1.51,0-2.59,1.28-2.59,3.31c0,1.69,0.88,3.13,2.58,3.13c0.99,0,1.87-0.61,2.2-1.64c0.09-0.25,0.13-0.56,0.13-0.85L603.66,103.81  L603.66,103.81z M612.18,100.18c-1.438,0-2.448,0.81-2.88,1.62h-0.04l-0.09-1.42h-1.41c0.05,0.72,0.07,1.44,0.07,2.36h0.02v6.36  h1.58v-5.26c0-0.25,0.04-0.54,0.11-0.74c0.28-0.88,1.09-1.62,2.12-1.62c1.5,0,2.02,1.19,2.02,2.59v5.02h1.58v-5.2  C615.26,100.9,613.39,100.18,612.18,100.18z M624.87,104.27c0,0.32-0.021,0.58-0.05,0.76l-6.102-0.02  c0.04,2.14,1.392,3.02,2.972,3.02c1.13,0,1.84-0.2,2.408-0.43l0.29,1.12c-0.56,0.25-1.528,0.56-2.92,0.56  c-2.67,0-4.29-1.78-4.29-4.39c0-2.65,1.57-4.72,4.11-4.72C624.13,100.17,624.87,102.67,624.87,104.27z M623.35,103.88  c0.021-0.99-0.42-2.57-2.18-2.57c-1.62,0-2.3,1.48-2.43,2.57H623.35z" />
<path
   id="path17"
   fill="#A8932A"
   d="M658.45,195.19h5.26v1.31h-6.84v-12.14h6.569v1.31h-4.989v3.83h4.7v1.31h-4.7V195.19z   M668.53,191.43c-1.142-0.43-1.642-0.75-1.642-1.49c0-0.65,0.5-1.19,1.44-1.19c0.81,0,1.438,0.3,1.78,0.5l0.38-1.13  c-0.46-0.31-1.24-0.54-2.12-0.54c-1.86,0-3.01,1.16-3.01,2.56c0,1.05,0.738,1.89,2.318,2.47c1.15,0.43,1.602,0.84,1.602,1.6  c0,0.74-0.54,1.3-1.67,1.3c-0.801,0-1.62-0.32-2.11-0.61l-0.37,1.18c0.61,0.36,1.49,0.61,2.45,0.61c2.03,0,3.24-1.08,3.24-2.63  C670.82,192.74,670.03,191.99,668.53,191.43z M677.02,189v-1.21h-2.27v-2.09l-1.55,0.49v1.6h-1.352V189h1.352v4.75  c0,1.03,0.18,1.8,0.608,2.29c0.381,0.42,0.972,0.67,1.711,0.67c0.619,0,1.101-0.11,1.409-0.22l-0.068-1.21  c-0.23,0.07-0.49,0.11-0.92,0.11c-0.882,0-1.19-0.61-1.19-1.69V189H677.02z" />
<path
   id="path19"
   fill="#FF4D4D"
   d="M638.53,416.191c0,1.868-1.37,3.51-4.23,3.51c-1.17,0-2.45-0.361-3.1-0.791l0.43-1.32  c0.7,0.451,1.71,0.791,2.79,0.791c1.6,0,2.54-0.83,2.54-2.07c0-1.118-0.65-1.778-2.29-2.391c-1.979-0.719-3.21-1.76-3.21-3.459  c0-1.891,1.57-3.291,3.93-3.291c1.222,0,2.142,0.291,2.66,0.59l-0.43,1.281c-0.38-0.23-1.19-0.58-2.29-0.58  c-1.66,0-2.29,0.99-2.29,1.82c0,1.129,0.74,1.688,2.41,2.34C637.5,413.429,638.53,414.4,638.53,416.191z M647.93,417.121v-6.34  h-1.58v5.33c0,0.309-0.05,0.59-0.14,0.809c-0.29,0.721-1.03,1.461-2.09,1.461c-1.432,0-1.95-1.131-1.95-2.791v-4.809h-1.58v5.1  c0,3.049,1.64,3.82,3.01,3.82c1.551,0,2.48-0.92,2.881-1.621h0.039l0.092,1.42h1.398c-0.05-0.689-0.07-1.48-0.07-2.379H647.93  L647.93,417.121z M658.09,417.25c0,0.77,0.021,1.66,0.07,2.25h-1.42l-0.07-1.51h-0.04c-0.489,0.971-1.53,1.711-2.95,1.711  c-2.108,0-3.738-1.781-3.738-4.433c-0.021-2.92,1.8-4.68,3.908-4.68c1.352,0,2.25,0.631,2.631,1.312h0.039v-5.189l1.57,0.01V417.25z   M656.51,414.33c0-0.219-0.02-0.469-0.068-0.68c-0.23-0.99-1.102-1.82-2.29-1.82c-1.642,0-2.61,1.438-2.61,3.35  c0,1.781,0.88,3.24,2.58,3.24c1.061,0,2.03-0.719,2.32-1.889c0.05-0.222,0.068-0.433,0.068-0.683V414.33L656.51,414.33z   M663.76,415.21h4.45v-1.15h-4.45V415.21z M675.5,413.81h4.7v-1.31h-4.7v-3.83h4.99v-1.309h-6.57V419.5h6.84v-1.309h-5.26V413.81z   M685.58,414.429c-1.141-0.43-1.641-0.75-1.641-1.487c0-0.65,0.5-1.191,1.439-1.191c0.811,0,1.44,0.301,1.78,0.5l0.38-1.129  c-0.46-0.312-1.24-0.541-2.12-0.541c-1.858,0-3.01,1.16-3.01,2.561c0,1.052,0.74,1.892,2.319,2.472c1.149,0.43,1.601,0.84,1.601,1.6  c0,0.74-0.54,1.299-1.67,1.299c-0.8,0-1.62-0.317-2.11-0.608l-0.37,1.18c0.61,0.361,1.5,0.611,2.45,0.611  c2.03,0,3.24-1.08,3.24-2.632C687.87,415.74,687.07,414.99,685.58,414.429z M694.07,412v-1.209H691.8v-2.09l-1.54,0.49v1.6h-1.35  V412h1.35v4.75c0,1.031,0.182,1.801,0.61,2.291c0.38,0.42,0.97,0.67,1.71,0.67c0.609,0,1.09-0.111,1.4-0.221l-0.07-1.209  c-0.24,0.067-0.49,0.108-0.92,0.108c-0.88,0-1.19-0.608-1.19-1.688V412H694.07z" />
<path
   id="path21"
   fill="#CE63A6"
   d="M224.05,363.49h-6.77v-12.129h1.58v10.817h5.19V363.49z M224.86,359.22  c0-2.92,1.93-4.631,4.32-4.631c2.5,0,4.2,1.82,4.2,4.461c0,3.24-2.25,4.65-4.32,4.65h-0.02  C226.7,363.701,224.86,361.97,224.86,359.22z M226.46,359.16c0,1.91,1.08,3.35,2.61,3.35h0.02c1.51,0,2.65-1.42,2.65-3.397  c0-1.48-0.74-3.33-2.61-3.33C227.28,355.781,226.46,357.509,226.46,359.16z M236.13,353.179h0.02c0.63,0,1.03-0.469,1.03-1.028  c0-0.561-0.4-1.011-1.01-1.011c-0.62,0-1.03,0.449-1.03,1.011C235.14,352.711,235.54,353.179,236.13,353.179z M235.37,363.5h1.58  v-8.709h-1.58V363.5z M241.17,363.5v-4.65c0-0.27,0.01-0.528,0.05-0.76c0.21-1.17,1-2.02,2.12-2.02c0.22,0,0.38,0.02,0.56,0.041  v-1.48c-0.14-0.031-0.27-0.051-0.43-0.051c-1.06,0-2.03,0.74-2.43,1.91h-0.05l-0.07-1.709h-1.39c0.05,0.809,0.07,1.688,0.07,2.719  l-0.01,6H241.17L241.17,363.5z M251.94,363.13c-0.56,0.25-1.53,0.562-2.92,0.562c-2.67,0-4.29-1.781-4.29-4.392  c0-2.649,1.57-4.721,4.11-4.721c2.84,0,3.58,2.5,3.58,4.111c0,0.317-0.02,0.577-0.05,0.76l-6.1-0.041  c0.04,2.141,1.39,3.031,2.97,3.031c1.13,0,1.84-0.201,2.41-0.433L251.94,363.13z M246.28,358.281h4.61  c0.02-0.99-0.41-2.58-2.18-2.58C247.09,355.701,246.41,357.179,246.28,358.281z M222.11,378.91c0,4.16-2.54,6.391-5.62,6.391h-0.01  c-3.22,0-5.46-2.49-5.46-6.16c0-3.85,2.38-6.371,5.62-6.371C219.97,372.769,222.11,375.31,222.11,378.91z M220.44,378.98  c0-2.41-1.26-4.931-3.87-4.931c-2.61,0-3.91,2.431-3.91,5.062c0,2.559,1.4,4.92,3.87,4.92h0.02v-0.012  C219.03,384.019,220.44,381.73,220.44,378.98z M228.25,377.441c0.87,0,1.46,0.209,1.84,0.407l0.36-1.209  c-0.44-0.239-1.26-0.471-2.2-0.471c-2.84,0-4.68,1.961-4.68,4.65c0,2.688,1.71,4.471,4.34,4.471c1.17,0,2.09-0.301,2.5-0.5  l-0.28-1.191c-0.45,0.191-1.04,0.41-1.94,0.41c-1.72,0-3.02-1.24-3.02-3.26C225.17,378.941,226.25,377.441,228.25,377.441z   M238.16,372.75h-1.74l-1.58,2.58h1.12L238.16,372.75z M239.31,380.269c0,0.32-0.02,0.58-0.05,0.763l-6.1-0.021  c0.04,2.142,1.39,3.021,2.97,3.021c1.13,0,1.84-0.201,2.41-0.433l0.29,1.121c-0.56,0.25-1.53,0.562-2.92,0.562  c-2.66,0-4.29-1.781-4.29-4.392c0-2.649,1.57-4.721,4.11-4.721C238.57,376.169,239.31,378.669,239.31,380.269z M237.79,379.88  c0.02-0.99-0.41-2.58-2.18-2.58c-1.62,0-2.3,1.48-2.43,2.58H237.79z M247.42,383.009c0,0.76,0.04,1.49,0.13,2.09h-1.42l-0.14-1.1  h-0.05c-0.47,0.68-1.42,1.301-2.67,1.301c-1.76,0-2.66-1.24-2.66-2.5c0-2.108,1.87-3.26,5.24-3.24v-0.18  c0-0.721-0.2-2.041-1.98-2.02c-0.83,0-1.67,0.229-2.29,0.647l-0.36-1.059c0.72-0.451,1.78-0.76,2.88-0.76  c2.68,0,3.33,1.817,3.33,3.559v3.26L247.42,383.009L247.42,383.009z M245.87,380.65c-1.73-0.039-3.69,0.27-3.69,1.961  c0,1.039,0.68,1.51,1.48,1.51c1.15,0,1.89-0.721,2.14-1.461c0.05-0.16,0.07-0.34,0.07-0.5V380.65z M254.29,376.179  c-1.44,0-2.45,0.812-2.88,1.621h-0.04l-0.09-1.42h-1.4c0.05,0.719,0.07,1.439,0.07,2.359l0.01,6.358h1.58v-5.26  c0-0.25,0.04-0.539,0.11-0.74c0.28-0.879,1.09-1.619,2.12-1.619c1.5,0,2.02,1.189,2.02,2.591v5.02h1.58v-5.199  C257.37,376.9,255.5,376.179,254.29,376.179z" />
<path
   id="path23"
   fill="#8CA305"
   d="M172.38,124.02c0-1.8-1.35-2.75-2.5-3.02v-0.05c1.26-0.45,2.05-1.47,2.05-2.66  c0-0.95-0.4-1.67-1.03-2.14c-0.74-0.61-1.74-0.88-3.31-0.88c-1.08,0-2.18,0.11-2.86,0.27v11.9c0.52,0.07,1.35,0.14,2.43,0.14  c1.98,0,3.35-0.36,4.18-1.13C171.97,125.86,172.38,125.06,172.38,124.02z M167.68,116.48c1.59,0,2.65,0.58,2.65,1.98  c0,1.17-0.97,2.05-2.61,2.05h-1.42l-0.01-3.92C166.55,116.53,166.96,116.48,167.68,116.48z M167.61,126.38  c-0.55,0-0.99-0.02-1.31-0.07v-4.63h1.3c1.71,0,3.13,0.7,3.13,2.34C170.73,125.79,169.23,126.38,167.61,126.38z M178.21,120.07  c-1.12,0-1.91,0.85-2.12,2.02c-0.04,0.23-0.05,0.49-0.05,0.76v4.65h-1.58l0.01-6c0-1.03-0.02-1.91-0.07-2.72h1.39l0.07,1.71h0.05  c0.4-1.17,1.37-1.91,2.43-1.91c0.16,0,0.29,0.02,0.43,0.05v1.48C178.59,120.09,178.43,120.07,178.21,120.07z M186.51,126  c-0.57,0.23-1.28,0.43-2.41,0.43c-1.58,0-2.93-0.88-2.97-3.02l6.1,0.03c0.03-0.18,0.05-0.44,0.05-0.76c0-1.61-0.74-4.11-3.58-4.11  c-2.54,0-4.11,2.07-4.11,4.72c0,2.61,1.62,4.39,4.29,4.39c1.39,0,2.36-0.31,2.92-0.56L186.51,126z M183.58,119.71  c1.77,0,2.2,1.58,2.18,2.57h-4.61C181.28,121.19,181.96,119.71,183.58,119.71z M189.62,120h-1.35v-1.21h1.35v-1.6l1.54-0.49v2.09  h2.27V120h-2.27v4.7c0,1.08,0.31,1.69,1.19,1.69c0.43,0,0.68-0.04,0.92-0.11l0.07,1.21c-0.31,0.11-0.79,0.22-1.4,0.22  c-0.74,0-1.33-0.25-1.71-0.67c-0.43-0.49-0.61-1.26-0.61-2.29V120z M199.87,126.4h0.05l0.14,1.1h1.42c-0.09-0.6-0.13-1.33-0.13-2.09  l0.01-3.26c0-1.74-0.65-3.56-3.33-3.56c-1.1,0-2.16,0.31-2.88,0.76l0.36,1.06c0.62-0.42,1.46-0.65,2.29-0.65  c1.78-0.01,1.98,1.3,1.98,2.02v0.18c-3.37-0.02-5.24,1.13-5.24,3.24c0,1.26,0.9,2.5,2.66,2.5  C198.45,127.7,199.4,127.08,199.87,126.4z M197.59,126.52c-0.8,0-1.48-0.47-1.48-1.51c0-1.69,1.96-2,3.69-1.96v1.51  c0,0.16-0.02,0.34-0.07,0.5C199.48,125.8,198.74,126.52,197.59,126.52z M211.34,126.22v-5.06c0-1.07,0.02-1.77,0.07-2.38h-1.4  l-0.05,1.3h-0.04c-0.4-0.72-1.21-1.49-2.72-1.49c-2.01,0-3.94,1.66-3.94,4.61c0,2.43,1.55,4.27,3.71,4.27c1.35,0,2.3-0.65,2.77-1.46  h0.04v0.95c0,2.21-1.19,3.06-2.81,3.06c-1.08,0-1.98-0.32-2.56-0.7l-0.4,1.22c0.7,0.47,1.86,0.72,2.9,0.72  c1.1,0,2.33-0.27,3.19-1.04C210.93,129.44,211.34,128.24,211.34,126.22z M209.63,124.62c-0.33,1.03-1.21,1.64-2.2,1.64  c-1.69,0-2.57-1.44-2.57-3.13c0-2.03,1.08-3.31,2.59-3.31c1.17,0,1.92,0.75,2.21,1.69c0.07,0.21,0.09,0.45,0.09,0.7l0.01,1.56  C209.76,124.06,209.72,124.37,209.63,124.62z M217.76,119.88c-1.03,0-1.84,0.74-2.12,1.62c-0.07,0.2-0.11,0.49-0.11,0.74v5.26h-1.58  v-6.36h-0.01c0-0.92-0.02-1.64-0.07-2.36h1.4l0.09,1.42h0.04c0.43-0.81,1.44-1.62,2.88-1.62c1.21,0,3.08,0.72,3.08,3.71v5.2h-1.58  v-5.02C219.78,121.07,219.26,119.88,217.76,119.88z M227.4,118.57c-2.54,0-4.11,2.07-4.11,4.72c0,2.61,1.63,4.39,4.29,4.39  c1.39,0,2.36-0.31,2.92-0.56l-0.29-1.12c-0.57,0.23-1.28,0.43-2.41,0.43c-1.58,0-2.93-0.88-2.97-3.02l6.1,0.03  c0.03-0.18,0.05-0.44,0.05-0.76C230.98,121.07,230.24,118.57,227.4,118.57z M224.85,122.28c0.13-1.09,0.81-2.57,2.43-2.57  c1.77,0,2.2,1.58,2.18,2.57H224.85z M164.14,136.95h1.48v12.14h-1.58l-3.85-6.16c-0.85-1.35-1.66-2.74-2.25-4.05l-0.05,0.02  c0.09,1.53,0.11,2.99,0.11,5.01v5.19h-1.49v-12.14h1.73l3.87,6.14c0.88,1.42,1.6,2.68,2.16,3.94l0.05-0.02  c-0.14-1.62-0.18-3.1-0.18-4.97V136.95L164.14,136.95z M171.97,140.19c-2.39,0-4.32,1.71-4.32,4.63c0,2.75,1.84,4.48,4.18,4.48v0.01  h0.02c2.07,0,4.32-1.41,4.32-4.65C176.17,142.01,174.47,140.19,171.97,140.19z M171.88,148.11h-0.02c-1.53,0-2.61-1.44-2.61-3.35  c0-1.65,0.82-3.38,2.67-3.38c1.87,0,2.61,1.85,2.61,3.33C174.53,146.69,173.39,148.11,171.88,148.11z M182.05,140.18  c0.16,0,0.29,0.02,0.43,0.05v1.48c-0.18-0.02-0.34-0.04-0.56-0.04c-1.12,0-1.91,0.85-2.12,2.02c-0.04,0.23-0.05,0.49-0.05,0.76v4.65  h-1.58l0.01-6c0-1.03-0.02-1.91-0.07-2.72h1.39l0.07,1.71h0.05C180.02,140.92,180.99,140.18,182.05,140.18z M196.58,143.97v5.13  h-1.55v-4.93c0-1.69-0.63-2.68-1.89-2.68c-0.92,0-1.6,0.67-1.89,1.42c-0.07,0.23-0.13,0.52-0.13,0.79v5.4h-1.55v-5.22  c0-1.4-0.61-2.39-1.82-2.39c-0.97,0-1.71,0.79-1.96,1.58c-0.09,0.23-0.13,0.5-0.13,0.77v5.26h-1.55v-6.36h0.01  c0-0.92-0.04-1.64-0.07-2.36h1.39l0.07,1.4h0.05c0.49-0.83,1.3-1.6,2.75-1.6c1.17,0,2.07,0.72,2.45,1.75h0.04  c0.27-0.5,0.63-0.86,0.99-1.13c0.52-0.4,1.08-0.61,1.91-0.61C194.87,140.19,196.58,140.95,196.58,143.97z M205.28,147.01v-3.26  c0-1.74-0.65-3.56-3.33-3.56c-1.1,0-2.16,0.31-2.88,0.76l0.36,1.06c0.62-0.42,1.46-0.65,2.29-0.65c1.78-0.01,1.98,1.3,1.98,2.02  v0.18c-3.37-0.02-5.24,1.13-5.24,3.24c0,1.26,0.9,2.5,2.66,2.5c1.25,0,2.2-0.62,2.67-1.3h0.05l0.14,1.1h1.42  c-0.09-0.6-0.13-1.33-0.13-2.09H205.28z M203.72,146.16c0,0.16-0.02,0.34-0.07,0.5c-0.25,0.74-0.99,1.46-2.14,1.46  c-0.8,0-1.479-0.47-1.479-1.51c0-1.69,1.96-2,3.689-1.96V146.16z M215.22,143.89v5.2h-1.58v-5.02c0-1.4-0.52-2.59-2.02-2.59  c-1.03,0-1.84,0.74-2.12,1.62c-0.07,0.2-0.11,0.49-0.11,0.74v5.26h-1.58v-6.36h-0.01c0-0.92-0.02-1.64-0.07-2.36h1.4l0.09,1.42h0.04  c0.43-0.81,1.44-1.62,2.88-1.62C213.35,140.18,215.22,140.9,215.22,143.89z M225.32,136.32l-1.58-0.01v5.19h-0.04  c-0.38-0.68-1.28-1.31-2.63-1.31c-2.11,0-3.93,1.76-3.91,4.68c0,2.65,1.64,4.43,3.75,4.43c1.42,0,2.46-0.74,2.95-1.71h0.04  l0.07,1.51h1.42c-0.05-0.59-0.07-1.48-0.07-2.25V136.32L225.32,136.32z M223.73,143.93v1.52c0,0.25-0.02,0.46-0.07,0.68  c-0.29,1.17-1.26,1.89-2.32,1.89c-1.69,0-2.57-1.46-2.57-3.24c0-1.91,0.97-3.35,2.61-3.35c1.19,0,2.06,0.83,2.29,1.82  c0.05,0.21,0.07,0.46,0.07,0.68H223.73z M227.95,140.39h1.58v8.71h-1.58V140.39z M229.75,137.75c0,0.56-0.4,1.03-1.03,1.03h-0.02  c-0.59,0-0.99-0.47-0.99-1.03s0.41-1.01,1.03-1.01C229.35,136.74,229.75,137.19,229.75,137.75z M239.21,144.27  c0-1.6-0.74-4.1-3.58-4.1c-2.54,0-4.11,2.07-4.11,4.72c0,2.61,1.63,4.39,4.29,4.39c1.39,0,2.36-0.31,2.92-0.56l-0.29-1.12  c-0.57,0.23-1.28,0.43-2.41,0.43c-1.58,0-2.93-0.88-2.97-3.02l6.1,0.02C239.19,144.85,239.21,144.59,239.21,144.27z M233.08,143.88  c0.13-1.09,0.81-2.57,2.43-2.57c1.771,0,2.2,1.58,2.18,2.57H233.08z" />
<path
   id="path25"
   fill="#33443B"
   d="M364.83,256.5c0,2.99,1.71,4.88,4.649,4.88c0.971,0,1.939-0.2,2.569-0.5l0.32,1.24  c-0.56,0.29-1.729,0.58-3.21,0.58c-3.42,0-5.98-2.16-5.98-6.16c0-3.82,2.57-6.37,6.34-6.37c1.49,0,2.472,0.32,2.881,0.54L372,251.99  c-0.58-0.29-1.42-0.5-2.431-0.5C366.729,251.49,364.83,253.31,364.83,256.5z M381.13,257.68c0,0.32-0.021,0.58-0.05,0.76  l-6.101-0.03c0.039,2.14,1.391,3.02,2.971,3.02c1.13,0,1.84-0.2,2.408-0.43l0.291,1.12c-0.561,0.25-1.529,0.56-2.92,0.56  c-2.67,0-4.291-1.78-4.291-4.39c0-2.65,1.57-4.72,4.11-4.72C380.392,253.57,381.13,256.07,381.13,257.68z M379.608,257.28  c0.021-0.99-0.408-2.57-2.18-2.57c-1.619,0-2.3,1.48-2.43,2.57H379.608z M387.438,253.58c-1.438,0-2.448,0.81-2.879,1.62h-0.041  l-0.09-1.42h-1.399c0.051,0.72,0.069,1.44,0.069,2.36l0.01,6.36h1.58v-5.26c0-0.25,0.041-0.54,0.11-0.74  c0.28-0.88,1.091-1.62,2.12-1.62c1.5,0,2.02,1.19,2.02,2.59v5.02h1.58v-5.2C390.521,254.3,388.649,253.58,387.438,253.58z   M394.931,251.7l-1.539,0.49v1.6h-1.352V255h1.352v4.75c0,1.03,0.18,1.8,0.608,2.29c0.38,0.42,0.97,0.67,1.71,0.67  c0.609,0,1.09-0.11,1.398-0.22l-0.068-1.21c-0.24,0.07-0.49,0.11-0.92,0.11c-0.88,0-1.19-0.61-1.19-1.69V255h2.271v-1.21h-2.271  L394.931,251.7L394.931,251.7z M400.431,255.49h-0.051l-0.068-1.71h-1.392c0.05,0.81,0.07,1.69,0.07,2.72l-0.011,6h1.58v-4.65  c0-0.27,0.01-0.53,0.049-0.76c0.211-1.17,1-2.02,2.121-2.02c0.221,0,0.379,0.02,0.561,0.04v-1.48c-0.141-0.03-0.271-0.05-0.432-0.05  C401.8,253.58,400.83,254.32,400.431,255.49z M411.76,258.44l-6.1-0.03c0.04,2.14,1.39,3.02,2.97,3.02c1.13,0,1.842-0.2,2.41-0.43  l0.29,1.12c-0.562,0.25-1.53,0.56-2.92,0.56c-2.67,0-4.29-1.78-4.29-4.39c0-2.65,1.568-4.72,4.109-4.72c2.851,0,3.58,2.5,3.58,4.11  C411.812,258,411.79,258.26,411.76,258.44z M410.278,257.28c0.021-0.99-0.408-2.57-2.18-2.57c-1.619,0-2.3,1.48-2.43,2.57H410.278z" />
<path
   id="path27"
   fill="#212121"
   d="M404.271,176.5h-1.58v-12.78h1.58V176.5z M408.479,163.72h-1.58v12.78h1.58V163.72z   M410.479,172.29c0-2.65,1.569-4.72,4.109-4.72c2.84,0,3.58,2.5,3.58,4.11c0,0.32-0.02,0.58-0.05,0.76l-6.101-0.03  c0.041,2.14,1.391,3.02,2.971,3.02c1.13,0,1.84-0.2,2.41-0.43l0.289,1.12c-0.561,0.25-1.529,0.56-2.92,0.56  C412.108,176.68,410.479,174.9,410.479,172.29z M412.028,171.28h4.611c0.021-0.99-0.41-2.57-2.181-2.57  C412.84,168.71,412.16,170.19,412.028,171.28z M431.48,174.25c0,0.77,0.02,1.66,0.068,2.25h-1.42l-0.07-1.51h-0.04  c-0.488,0.97-1.528,1.71-2.948,1.71c-2.11,0-3.74-1.78-3.74-4.43c-0.021-2.92,1.8-4.68,3.91-4.68c1.35,0,2.25,0.63,2.63,1.31h0.04  v-5.19h1.57v0.01V174.25z M429.89,171.33c0-0.22-0.02-0.47-0.068-0.68c-0.23-0.99-1.102-1.82-2.29-1.82  c-1.642,0-2.61,1.44-2.61,3.35c0,1.78,0.88,3.24,2.58,3.24c1.06,0,2.03-0.72,2.32-1.89c0.05-0.22,0.068-0.43,0.068-0.68V171.33z   M433.46,172.29c0-2.65,1.57-4.72,4.11-4.72c2.84,0,3.58,2.5,3.58,4.11c0,0.32-0.021,0.58-0.052,0.76l-6.1-0.03  c0.04,2.14,1.39,3.02,2.97,3.02c1.13,0,1.84-0.2,2.41-0.43l0.29,1.12c-0.56,0.25-1.53,0.56-2.92,0.56  C435.08,176.68,433.46,174.9,433.46,172.29z M435.02,171.28h4.61c0.021-0.99-0.42-2.57-2.18-2.57  C435.83,168.71,435.15,170.19,435.02,171.28z M400,198.09h1.58v-5.49h4.569v-1.3h-4.569v-4.03h4.948v-1.31h-6.538L400,198.09z   M409.71,191.09h-0.05l-0.07-1.71h-1.39c0.05,0.81,0.068,1.69,0.068,2.72l-0.01,6h1.58v-4.65c0-0.27,0.01-0.53,0.051-0.76  c0.209-1.17,1-2.02,2.119-2.02c0.221,0,0.381,0.02,0.561,0.04v-1.48c-0.141-0.03-0.271-0.05-0.43-0.05  C411.08,189.18,410.108,189.92,409.71,191.09z M420.17,196.01c0,0.76,0.04,1.49,0.12,2.09h-1.42l-0.141-1.1h-0.051  c-0.47,0.68-1.42,1.3-2.67,1.3c-1.76,0-2.66-1.24-2.66-2.5c0-2.11,1.87-3.26,5.24-3.24v-0.18c0-0.72-0.199-2.03-1.98-2.02  c-0.83,0-1.67,0.23-2.289,0.65l-0.359-1.06c0.72-0.45,1.78-0.76,2.88-0.76c2.681,0,3.33,1.82,3.33,3.56V196.01L420.17,196.01z   M418.62,193.65c-1.729-0.04-3.689,0.27-3.689,1.96c0,1.04,0.68,1.51,1.479,1.51c1.149,0,1.89-0.72,2.14-1.46  c0.051-0.16,0.07-0.34,0.07-0.5V193.65L418.62,193.65z M427.06,189.18c-1.438,0-2.448,0.81-2.88,1.62h-0.04l-0.09-1.42h-1.41  c0.052,0.72,0.07,1.44,0.07,2.36h0.021v6.36h1.579v-5.26c0-0.25,0.04-0.54,0.11-0.74c0.28-0.88,1.09-1.62,2.12-1.62  c1.5,0,2.02,1.19,2.02,2.59v5.02h1.58v-5.2C430.14,189.9,428.27,189.18,427.06,189.18z M436.75,190.44c0.87,0,1.46,0.21,1.84,0.41  l0.36-1.21c-0.44-0.24-1.261-0.47-2.2-0.47c-2.84,0-4.68,1.97-4.68,4.65c0,2.69,1.71,4.47,4.34,4.47c1.17,0,2.09-0.3,2.5-0.5  l-0.271-1.19c-0.449,0.19-1.04,0.41-1.938,0.41c-1.73,0-3.03-1.24-3.03-3.26C433.67,191.93,434.75,190.44,436.75,190.44z   M447.66,194.03l-6.102-0.02c0.04,2.14,1.392,3.02,2.972,3.02c1.13,0,1.84-0.2,2.41-0.43l0.29,1.12  c-0.562,0.25-1.53,0.56-2.922,0.56c-2.67,0-4.289-1.78-4.289-4.39c0-2.65,1.569-4.72,4.109-4.72c2.852,0,3.58,2.5,3.58,4.1  C447.71,193.59,447.69,193.85,447.66,194.03z M446.19,192.88c0.02-0.99-0.41-2.57-2.182-2.57c-1.62,0-2.3,1.48-2.43,2.57H446.19z" />
<polyline
   fill="none"
   stroke="#FFFFFF"
   stroke-width="2"
   stroke-miterlimit="10"
   points="664.635,564.179 654.791,567.629   654.01,567.221 650.382,556.439 647.736,555.363 647.245,552.226 641.365,546.442 635.483,543.109 634.307,539.678 620.977,537.621   "
   id="polyline22" />
</svg>