<?xml version="1.0" encoding="UTF-8" standalone="no"?>
<!-- Generator: Adobe Illustrator 15.1.0, SVG Export Plug-In . SVG Version: 6.00 Build 0)  -->

<svg
   xmlns:dc="http://purl.org/dc/elements/1.1/"
   xmlns:cc="http://creativecommons.org/ns#"
   xmlns:rdf="http://www.w3.org/1999/02/22-rdf-syntax-ns#"
   xmlns:svg="http://www.w3.org/2000/svg"
   xmlns="http://www.w3.org/2000/svg"
   xmlns:sodipodi="http://sodipodi.sourceforge.net/DTD/sodipodi-0.dtd"
   xmlns:inkscape="http://www.inkscape.org/namespaces/inkscape"
   version="1.1"
   id="Calque_1"
   sodipodi:docname="France-carte-noms-regions.svg"
   inkscape:version="0.48.4 r9939"
   x="0px"
   y="0px"
   width="569.73px"
   height="546.55px"
   viewBox="124.34 26.87 569.73 546.55"
   enable-background="new 124.34 26.87 569.73 546.55"
   xml:space="preserve"><metadata
   id="metadata31"><rdf:RDF><cc:Work
       rdf:about=""><dc:format>image/svg+xml</dc:format><dc:type
         rdf:resource="http://purl.org/dc/dcmitype/StillImage" /><dc:title></dc:title></cc:Work></rdf:RDF></metadata><defs
   id="defs29" />
<sodipodi:namedview
   id="namedview212"
   pagecolor="#ffffff"
   inkscape:window-width="640"
   inkscape:zoom="0.43179948"
   borderopacity="1"
   bordercolor="#666666"
   objecttolerance="10"
   gridtolerance="10"
   guidetolerance="10"
   inkscape:pageopacity="0"
   inkscape:pageshadow="2"
   inkscape:window-height="480"
   inkscape:cy="273.27499"
   showgrid="false"
   inkscape:cx="284.86499"
   inkscape:window-x="273"
   inkscape:window-y="115"
   inkscape:window-maximized="0"
   inkscape:current-layer="Calque_1">
	</sodipodi:namedview>
<path
   id="Centre"
   fill="#729B87"
   d="M548.74,265.2l-1.18,1.3l-1.76,8.2l-6.13,6.8l-0.95,4.1v-0.1l-15.15,1.5l-8.95,4.2l-5.6-6.3  l-5.49-1.9l-1.29-2.6l-5.68-1.7l-2.35-2.6l-1,0.3l-2.5,0.4v1.3l-3,1l0.1,5.9l-2.1,1.7l4,7l-1.9,2.1l0.7,2.9l-11.3,5.7l-7-2.8  l6.7,13.5l7.9,2.9l1.6,2.4l-0.5,5.5l-3.7,4.6l-3.9,1.3l-0.5,3l1.5,12.4l-5.5,4.8l-3.5-4.3l-6.4-0.4l-1.4-3.2l-13.1-0.5l-1.6-2.5  l-3.3,0.5l-4.4-4.5l1.2-2.8l-2.3-1.7l-11.2,8l-2.5-1.2l-0.5,4.1l2.3,6.7l-9.3,8.6l4.4,5.5l1.2,5.6l-1.7,2.4l1.2,7.9l0.7,6l-6.2-2  l-0.6,3.5l-7.6,9.5l1.8,2.2l-2.3,1.89l-0.3,3.49l-3.1,1.08l1.5,3.35l-3.2,1.8h-0.1l-6.7-0.1l-5.3,2.8l-6.7-6.1l-8.1,0.8l-3.5-7  l-3.2-0.7l-0.2-3l-2.3-1.5l2-1.8l-1.7-3l3.6-4.6l-2.9-4.7l-5.7-2.2l2-2.7l-7.2-5.6l-9.5,1.1l0.1-4.7l-6.2-3h-0.1l3.4-3.8l2.8-0.6  l4-8l2.6-1.1l0.6-3.2l-4.7-3.6l0.2-5.1l-4.8-0.6l-1.3,2.5l-3.8,1.4l-4.1-3.9l-2.2,1.8l1.4,2.4l-2.9,0.8l-9.1-3l0.8-2.8l-4.5-3  l3.2-8.5l-6.4-0.2l0.1-2.8l-2.1-2l-0.5-5.8l3.4-5.5l-1.5-3l-2.7,0.9l4.5-14.1l-2.69-1.2l0.81-3l-3.38-9l6.65-5.9V275l5.75-15.3  l1.65-9.3l0.7-2.4l-7.4-0.1l-5.2-3.3l-3.1,1.3l-2-2l-0.2-3.5l-6.7,0.2l-0.6-2.7l-5.1-1.7l-5.9,2.7l-3-0.4l-8.7-3.6l-2.1,1.9  l-10.5-3.5l3.6-8.59l5.5-2.18l-1.9-17.27l1.5-2.34l0.1-11.98l8.62,1.06h0.1l3.6-4.75l1.8-6.95l-4.1-4.2l5.4-2.9l0.9-2.7l2.7,1.3  l6.4-2.3l4.9,3l2.6-1.7l5.7,1.1l2.9-0.3l7.2-5.4l7-1.7l5.6,1l0.2,3.2l6.3,0.5l7.8,9.5l-1.7,2.3l3.4,2.1l2.4-2.6l6-1.1l5.3-3.2  l2.8,1.6l6-1.3l-0.2-2.8l6-6.9l3.6,6.6l0.5,10.9l6.2,5.4l1.2,5.6l2.3,2.2l3.1-0.7l2.8,10.6l6.9-0.7l1.9-2.9l1.5,2.7l2.8-1.8l3.7,0.6  l0.7,3.1l4.2,4.3l-0.6,2.7l-2.6,1.5l9.2,0.7l11.2-2.7l3.9-5.4l0.2-5.8l15.4-3l3.6,1.5l4.5,5.5l2.5,8.3l2-2.2l3.6,4.1l5,10.9  l12.6-1.6l2.9,1.4l2.2-2l6.1-0.9l4.7-3.9l3.9,0.5l3.5,0.7l0.5,2.7l2.6,1l-0.3,2.9l2.9,0.3l1.79,2.2l0.99,3.1l-2.82,2.4l2.25,4.8  l9.1,2l2.8,1.6v2.8l5.2-1.8h0.1l2.7-1.65l2,2.95l0.1,3.2l-4.6,4.1l2.6,1.4L548.74,265.2z" />
<path
   id="Loire-Ocean"
   fill="#CE63A6"
   d="M406.62,428.2l1.7-5.7l-3.8-5.95l-1-5.38l-6.7-0.19l-5.3,2.71l-6.7-6.1l-8.1,0.8l-3.5-7  l-3.2-0.7l-0.2-3l-2.3-1.5l2-1.8l-1.7-3l3.6-4.6l-2.9-4.7l-5.7-2.2l2-2.7l-7.2-5.6l-9.5,1.1l0.1-4.7l-6.2-3h-0.1l3.4-3.8l2.8-0.6  l4-8l2.6-1.1l0.6-3.2l-4.7-3.6l0.2-5.1l-4.8-0.6l-1.3,2.5l-3.8,1.4l-4.1-3.9l-2.2,1.8l1.4,2.4l-2.9,0.8l-9.1-3l0.8-2.8l-4.5-3  l3.2-8.5l-6.4-0.2l0.1-2.8l-2.1-2l-0.5-5.8l3.4-5.5l-1.5-3l-2.7,0.9l4.5-14.1l-2.7-1.2l0.8-3l-3.35-9l6.65-5.9V275l5.75-15.3  l1.68-9.3l0.69-2.4l-7.41-0.1l-5.2-3.3l-3.1,1.3l-2-2l-0.2-3.5l-6.7,0.2l-0.6-2.7l-5.1-1.7l-5.9,2.7l-3-0.4l-8.7-3.6l-2.1,1.9  l-10.5-3.5l-0.4,2.2l-6.8-3.6l-9,3.9l-1.6,2.9l-13.2,0.4l-5.2,3.4l-0.4,6l-13.18,3.89l0.18,0.31l0.9,2.2l-3,0.5l-0.9,2.5l0.5,4.9  l2.2,1.2l2.2-1l4.1,3.2l6.6-3.7l5.5,0.7l-5.8,1.1l-1.4,2.1l0.5,2.5l-0.6,2.2l-3,1.3l7.8,3l2.8,4.1l-1.8,1l-0.3,0.1l-0.8,2.6  l-3.4,4.3l-1.2,2.3l0.2,2.4l8.7,9.5l2.7,5.6l1.2,5.3l8,5.4l3.4,0.5l3.9,4.3l2.9-0.1l2,1.2l1.8,2.5l-0.9-2.1l3.9,3.3l0.5-2.7l2.4,0.3  l0.5,0.1l-0.6,3.4l-4.5,5.9l2.4,0.3l2.2,1.7l3,7.2l-1.5,1.9l-0.2,5.1l-3.3,3.1l-0.1,2.6l-2.2,0.4l-1.5,1.7l1.1,4.3l9,6.5l1.5,2.6  l4.3,2.7l3.7,4.8l1.81,7.3l0.59,2.4l-1.7,3.1l-2.8-7.6l-9-9l-1.4-4.7l-3.3,3.4l-0.9,2.8l-6.2,50l1.2-3.8l2.8-4l3.5,3.4l1.1,4.6  l-3.1,0.2l-1.8-1.4l-1.9,1.7l-0.3,2.3l-2,3.2v4.42l5.4-2.42l0.11,0.04l0.09-0.04l3.6,1.3l-0.49,1.82l0.48-1.82l-3.63-1.26  l-5.57,2.56v0.4l-2.2,11.7l-8.9,37.8l-3.95,7.1l-1.11,1.51l-3.53,4.89l-2.71,1.9l-4.5,0.9l1.9,4.5l4.5-0.2l0.2,2.2l2.4,1l2.2-2.1  l2.4,1.3l2.5,0.1l1.4,2.8l-2.5,6.7l-2.1,2.2l1.3,2.2l4.3-0.1l0.7-3.4l2.3-0.1l-1.3,2.4l5.9,2.4l1.5,1.9h2.5l6.1,3.7l5.8,0.35  l2.3-1.02l1.4,2.09l0.3,2.79l2.7,1.3l3.9,4l2.1,0.9l1.1-2.1l2.7,2.1l3.6-1.1l0.19-0.16l2.11-1.84l7.8,5.5l1.1,2.5l2.1,1.7l2.2,0.9  l6.9-2.1l3.9,0.3l1.9,1.7l2.5,0.5l2.4-1.8l2.3,1.6l0.7-0.2l1.7-0.3l8.8,0.7l-0.2-7.6l1.2-2.4l5.5,1.5l-0.5-1.4l3.6-5.2l2.6-1V528  l4.1-4l2.9-1.1l6.25,4.1l-0.38-5.6l5.41-1.6l-2.99-4.8l2.8-1.1l3.4,5.5l2.8-0.5l0.6-2.8l5.7,2.2l2-2.3l8.4-10l1.4,2.7l5.2-1.8  l0.5-0.8l-1-2.8l-14.3-9.3l0.7-5.4l-2.3-2.1l-0.2-2.8l-2.6-1.2l-1.4-6.3l0.5-2.8l4.8-3.2l1-2.7l-1.8-2.2l3-1.1l2.7,1.1l9.2-3.2  l-4.3-3.6l2.3-2.4l-3.1-2.7l0.4-3l-0.8-9.1l7.6-5l5.9-1.6l1.7-1.7h0.1L406.62,428.2z M267.72,442.09L267.72,442.09L267.72,442.09  l16.91-0.89l-0.08,0.2L267.72,442.09z M284.61,444.54l-0.49-0.34l0.04-0.18l0.45,0.42l10.51,7.61l0.01,0.05L284.61,444.54z   M302.12,457l1.6-3.8l2.1,2.6l0.01,0.04l-0.01-0.02l-2.1-2.61L302.12,457z M304.12,513.9l2.2-1.1l0.1,2.7L304.12,513.9z   M310.3,451.71l-1.48-2.49l0.01-0.01l1.49,2.48L310.3,451.71z M317.72,428L317.72,428l0.17,0.08L317.72,428z" />
<path
   id="Bretagne"
   fill="#97C00D"
   d="M286.12,176l-9.7-2.1l-1.8-2.4l4.5-5.3l-1.6-2.3l8.1-4.9l-2.2-8.2l2-2.6l-8.3-3.1l-0.4-6.6  v-0.1v-0.7l-1.15-4.3l-4.02-6.5l3.19-5.2l-0.91-2.7l-1.8-1.7l-5.1-0.75l-4,2.45h-2.4l-11.9-4.05l-2.1,0.28l1,2.54l2.2,1.12l0.5,2.31  l-0.1,2.8l-1.8,1.8l1.4,1.9l0.7,5.9l2.9,4.1l2.4,1.2l-0.3,2.2l2,5l2.5-0.3l-1.5,2l-0.4,7.4l1.8,3.6l0.3,4.9l-2,6.1l0.3,5.3l5.1,5.6  l2.4-1.3l-0.5,2.2l-2.5,1.1l-4.8-0.4l-1.9,0.2l-7.3,0.6l-2.9-2.4l1.5-2.3l-2.2-1l-2.3,0.6l-2.2,1.5l-0.7,2.5l2.3,5.1l-1.4,2.1  l0.5-2.1l-1.2-2l-1.6-4.4v0.3h-2.3l-0.7-0.1v0.75v0.76v0.09l-2.55-0.2l-1.33,1.9l-1.81-4.4l-2.91,1.1l2-2.5l-2.7,0.2l-8.1,3.3  l-2.4,2.7l-3,1l-0.7,2.2l-0.8-3.7l-3-2l-2.2-5.4l-7.2-7.8l1.1-2l-2.6,0.5l-1.7,3.1l1.2-4.4l0.1-2.3l-2.9,0.8l-3,3.6l1.5-2.6l-0.9-2  l-1.5,1.8l-2.2-0.35l-2.1,0.95h-2.5l-1.9-1.35l-2.2,0.63l-1.5,1.61l-1.1,7.71l-3.2,0.4l-1.2-1.4l-1.2-1.7l-4.7-0.3l-1.2,4.5  l-1.3-2.5l-2.2,1.5l-0.4-5l-2.9,0.5l-1,2.2l-3-1.6l-6.7,3.1l-2.3-2.6l-3.8,2l-2.9,0.1l-1.2,1.9l1.9,1.7l-1.6-1.4l-2.5,1.2l1.9,1.1  l-5.1-1.5l-2.1,0.8l-1.8,1.6l-0.8,2.6l2.2,0.9l-2.5,1.6l-0.6,5.3l1.5,1.8l2.7-1.2l2.7,1.2l7.5-2.9l2.3-0.1l4.4-2.2l-7.1,4.5l0.8,2.2  l2.7-0.8l2.6,0.2l-2,1.5l4.2,2l-2.2,0.5l2.8,2l3.7,0.9l-5.4-1l-2.1-3.1l-4.6,0.8l-4.9-1l-1.7-2.3l0.3,2.2l-1.3,1.8l2.6,4.2l1.5-2.6  l6.8,2.5l1.6,3.6l-0.7,2.5l-2,1.3l-1.8-1.8l-12.5,1.8l-2.2,1.3l7.5,2.2l2.1-1.4l-1.6,1.7l2.8,1.8l2.4,3.1l1.5,5.5l-1.5,1.6l2.1,1.6  l5.9,0.2l1-2.8l2.2-1l-1.3-1.9l2.4-4.3l-1.6,4.6l3.5,3.1l2.3-0.2l0.8-2.5l4.2,6.1l1.95,1l2.25-0.7v-2.7l0.55,2.7l3.12-0.8l-2.14,0.7  l1.23,1.9l5.52,1.2l0.81-1.4l0.1,1.5l2.9,4.4l2.3-0.2l1.5-1.7l-0.8-5.1l0.6,2.4l1.7,1.7l1.9-1.7l-2.5,4.2l2.2,1.4l-2.3-0.6l3.2,1.9  l0.1,0.1l1.6,1l1.7-2.5l-1.6,3.1l2.1,2.6l0.6,3.5l-0.9,2.8l2.1,1.1l-1.2-3l0.5-3.8l2.2,1.6l5.1,0.1l-0.7-5l1.4,2l2.1,1.5l4.8-0.5  l2.1,2.4l-1,2.2l-2.1-0.6l-4.8,0.4l3.8,3.3l12.9-0.9l3.1,1.5l-3.4,0.1l1.42,2.39l13.18-3.89l0.4-6l5.2-3.4l13.2-0.4l1.6-2.9l9-3.9  l6.8,3.6l0.4-2.2l3.6-8.6l5.5-2.2l-1.9-17.3l1.5-2.4l0.1-12.3l8.6,0.6h0.1l3.6-4.3l1.8-6.6L286.12,176z M172.82,204.4v-0.1  l0.04,0.01L172.82,204.4z" />
<path
   id="SUD-EST"
   fill="#FF4D4D"
   d="M653.52,456.4l-1.5-2.2l0.3-2.6l-2.7,1.8l-10.3,2.4l-1.8-1.4l-2.5,0.4l-4.2-2.8l-6.9-1.6  l-6.91-7.79l-0.19-0.21l1.8-4.8l-3.5-4l0.6-2.9l2.2-1.5l0.37-4.5l0.03-0.4l2-2.3l3-1.5l-3.2-4.7l0.7-2.1l-2.2-1.3l-5.7-0.5l-3-2.3  l-1.2-2.2l-0.4-3l-1.1-2l-2.55-0.6l-1.95-4.5v-0.1l2.15-1.8l5.17-1.3l2.54,1.4l1.52-2.4l4.51-3.4l2.2-0.7l3.1-1.4l1-10.3l-2.2-1.2  l-5.1-4l-1.3-5.2l0.7-3l-2.8-0.4l-1.5-1.9l-2.7-1.1l-1.88-4.66l-0.02-0.04l0.6-3.7l4.9-0.9l2.5-1.7l1.3-5l-4.6-6.6l-2,1.4l0.1-4.8  l-4.6-1.7l0.6-1.5l2.1-6.4l-4.2-4.1l0.5-2.7l-3.2-0.6l-9.5,1.3l-3.6,2.9l-2.3-1l-2.4,0.8l-1.8,5.1l2.8,1.3l-1,2.3l-2.1,1l-3.4,3.5  l-2.3-0.1l-2.3,1l-2.24-0.91l-0.46-0.19l-0.2-2.8l1.9-2l4.4-1.5l-0.3-2.5l1.8-4.7l-4.5-2.7l2.58-8.11l-3.68-3.49l3.6-7.4l2.1-2.3  l-4.2-4.1l-2.9-0.5l-5.8-10.1l-3,0.8l-1.5-2.5l-2,2.1l-1.2-2.5l3-5.1l-5.2-7.8l-5.4-0.1l-2.3-2l-1.2,1.3l-1.8,8.2l-6.05,6.8  l-0.95,4.1v-0.1l-15.15,1.5l-8.87,4.2l-5.64-6.3l-5.52-1.9l-1.31-2.6l-5.71-1.7l-2.4-2.6l-1.1,0.3l-2.7,1.7l-2.8,1l0.3,5.9l-2.1,1.7  l4,7l-1.9,2.1l0.7,2.9l-11.3,5.7l-7-2.8l6.7,13.5l7.9,2.9l1.6,2.4l-0.5,5.5l-3.7,4.6l-3.9,1.3l-0.5,3l1.5,12.4l-5.5,4.8l-3.5-4.3  l-6.4-0.4l-1.4-3.2l-13.1-0.5l-1.6-2.5l-3.3,0.5l-4.4-4.5l1.2-2.8l-2.3-1.7l-11.2,8l-2.5-1.2l-0.5,4.1l2.3,6.7l-9.3,8.6l4.4,5.5  l1.2,5.6l-1.7,2.4l1.2,7.9l0.7,6l-6.2-2l-0.6,3.5l-7.6,9.5l1.8,2.2l-2.3,1.9l-0.3,3.5l-3.1,1.1l1.5,3.3l-3.2,1.8h-0.1l1,5.5  l3.8,6.05l-1.7,5.62l3.3,4.83h-0.1l-1.7,1.7l-5.9,1.5l-7.6,5.05l0.8,9.12l-0.4,3.01l3.1,2.71l-2.3,2.4l4.3,3.6l-9.2,3.2l-2.7-1.1  l-3,1.1l1.8,2.2l-1,2.7l-4.8,3.2l-0.5,2.8l1.4,6.3l2.6,1.2l0.2,2.8l2.3,2.1l-0.7,5.4l14.3,9.3l1,2.8l-0.5,0.8l-5.2,1.8l-1.39-2.69  l-8.4,10l-2,2.3l-5.7-2.2l-0.6,2.8l-2.8,0.5l-3.4-5.5l-2.8,1.1l3,4.8l-5.4,1.6l0.4,5.6l-6.2-4.1l-3,1.1l-4.1,4v5.9l-2.6,1l-3.7,5.2  l0.55,1.4l13.22,3.9l1.31,2.8l10.01,0.6l2.8,5.9l2.4,0.8l1.3-2.1l2.8-0.4l1.7,1.7l3.7,0.1l2,2.1l2.6,1.1l-0.78,0.89l-2.02,2.31  l2,2.1l7.5,2l1.7,4.8l1.9,1.7l4.6-1.85l1-1.95h3l2.5-1.55l7,2.83l4,3.06l2.9-1.02l2.4,0.69l2.1-1.21l0.6-2.4l2.4-1.1l3,0.2l6.9-4.05  l8.1,2.55h2.3l-1.9-3.65l-3.9-3.22l-0.25-15.59l-0.15-9.55l0.9-3.49l5.2-9.29l1.47-1.53l1.13-0.92l5.5-3.75h6.8l4.3-6.85l-2.1,3.38  l4.3-4.26l7.2-4.63l3.6-3.21l5.9-2.61l2.4,0.09h0.1l1.1,3.4l1.9,1.6l2.8,0.8l0.2,0.3h13.2l2.2,0.7l1,2.1l-1.6,1.45l2.2,1.38  l7.4,0.09l3.2,1.29l1.8-1.7l-1.5-2.8l0.4-2.4l4.9,1l3,5.3l10-0.8l2.6-1.1l1.8,2l-0.2,2.5l1,1.9l-1.2,2.1h9.2l1.3,2.1l2.2-0.75  l1.7,0.22l0.5,0.11l6.4,4.11l-0.6,2.3l3,1.1l1.5-1.7l2.3,0.4l-0.9-2.2l3.1-0.1l1.6,1.6l2.2-0.7l2.4,1.7l-1.4,1.8l2.2-1.6l0.4-2.3  l1.6-1.6l2.7-0.5l4.9,1.5l-0.1-2.7l3.5-1.1l4.8-2.5l4-0.2l2-4.8l-5-0.7l5.5-5.7l0.7-2.5l6.8-1.7l1.38-2.53l0.42-0.77l0.1-2.2  l1.3-1.8l3.2,0.1l1.4-1.7l2.4-0.6l-0.1-2.8l1.8-2.4l2.3-0.5l1.5-2.1l3,0.9l0.9-2.4l2.3-0.5l3.5-2.9l1.1-2.7l-1.1-2.7l0.5-1.6l3.3-5  l2.7-1.6l0.2-2.3l1.6-1.9L653.52,456.4z M529.12,445.2l2.7-2.3l4.5,2.8l-2.5,3.5l-4,1.2l-1.9-2.2L529.12,445.2z M503.22,333.5  L503.22,333.5v0.1V333.5z M545.72,502l-2.1,1.8l-0.45,0.1l-4.62,0.9l-0.31-2.5l-2.11-1.4l-0.41-2.4v-0.2l0.9-2.7l4.2,2.5l2.3,2.6  l2.6-1.2V502L545.72,502z" />
<path
   id="SPC"
   fill="#4096EE"
   d="M562.72,226.29v-0.1l-1.45-2.5l-2.78,1.1l-0.24-3.1l-5.52-4.7l1.69-8.6l-12.7-9.5l2.4-2.3  l-16.9-10.4l-3.4-5.2l-0.5-4.1l-3.2-4.6l0.06-0.32l3.14,4.52l0.5,4.1l3.4,5.2l16.9,10.4l6.9-3.4l3,0.5l1.9-2.3l0.2-2.9l-2.5-2  l1.7-2.8l-1.3-8.6l2.2-13.8l0.9-2.7l-4.9-11.5l1.5-5.9l-1.2-2.7l-4.4-4.8l-5.3,2l-0.7-5.3l-1.9-5.6l-1.5-1.6l-1.2,0.07l-0.62,0.44  l-1.48,0.09l0.9-2.4l-2-1.7l-4.9-0.6l-2.8-3.8l-4.3-2.4l-3.3,0.9l-1.4-1.9l-0.6-3.1l1-2.4l-3.3-4.5l0.45-5.2l1.55-1.6v-3.8  l-2.65,0.2l-3.92,3.8l-1.06,6l-7.28,3.2l-9.79-0.4l-0.79-0.26l-2.91-0.94l-16.7-4.6l-5.2,1.8l-2.3-1.7l-2.6,2.2l-12.6,0.6l-3.3-2.6  l-8.6,1.8l-0.8-3.2l-2.4,1.7l-2.8-4.6l-0.8,2.8l-8.4-3.5l-2.5,3.1l-1.7-3.1l2.6-5.7l-12,2.5l-7.1-5.8l-1-3l-10.53-1.02l0.03,0.02  l-2.9-0.7l-1.2,5.1l5.6,6l-3.5-0.3l-1.4-1.8l-0.1,0.1l-1.9,1.1l-3.4,6.6l-2.39,1.91l-5.11,4.09l-8.5,4.4l-2.4-0.3l-4.8,1.8  l-10.3,2.1l-2.3,1.6l-13.8,7.4l-4.4,9.7l0.1,2.3l1.2,2l7.61,1.8l1.29,0.3l-0.8,0.35l0.9,0.25h-1.52l-0.28,0.05l-1.7,0.57l0.3,8.38  h-0.1l-0.3-8.5l-5.1,1l-4.1,3.65l-4.7,2.48l-5.7,0.69l-6.9-3.41l-13.9-1.5l-9.4-3.3l-3.4,0.3l-1.9,2.1l-1.7-0.8v0.7v0.1l0.4,6.6  l8.35,3.1l-2.02,2.6l2.19,8.2l-8.11,4.9l1.6,2.3l-4.5,5.3l1.8,2.4l9.7,2.1l5.4-2.9l0.9-2.7l2.7,1.3l6.4-2.3l4.9,3l2.6-1.7l5.7,1.1  l2.9-0.3l7.2-5.4l7-1.7l5.6,1l0.7-2.2l-2.3-4.1l1.4-3l-2.8-9.25l2.19-1.85h0.21l-2.3,1.95l2.8,9.33l-1.4,2.96l2.3,4.08l-0.7,2.19  l0.2,3.2l6.3,0.5l7.8,9.5l-1.7,2.3l3.4,2.1l2.4-2.6l6-1.1l5.3-3.2l2.8,1.6l6-1.3l-0.2-2.8l6-6.9l-1.8-5.8l2.3-2.6l3.8,0.1l4-9.5  l1.6,3.2l5.6,1.1l6.3-1.8l9.2,2.2l2.2-1.6l10.9,6.4l6.9,1l2-2.2l2.5,1.6l8.1-2.9l2.6,0.7l1.8,2.5l-0.7,2.8l3.9,4.2l9.3,6l-0.4,2  l-2.6,2.2l3.5,8.3l2.6,1.7l-3,5l-2.9,0.8l0.4,8.5l3.6,1.5l4.5,5.5l2.5,8.3l2-2.2l3.6,4.1l5,10.9l12.6-1.6l2.9,1.4l2.2-2l6.1-0.9  l4.7-3.9l3.9,0.5l3.5,0.7l0.5,2.7l2.6,1l-0.3,2.9l2.9,0.3l1.8,2.2l1,3.1l-2.8,2.4l2.3,4.8l8.95,2l2.74,1.58v2.8l5.05-1.9l1.33-2.5  l6.66-3.9l2.13,1.8l3.22-1l0.31-8.3l2-2.4l2.9,0.3l2.45-3.2L562.72,226.29z M524.86,161.46l-2.54-1.27l0.09-0.36l2.51,1.26  L524.86,161.46z M526.35,126.96l0.77,8.44l-0.03,0.05l-0.77-8.45L526.35,126.96z M524.04,140.71l1.28,2.29l-0.15,0.13l-1.25-2.23  L524.04,140.71z M520.72,147l0.26-0.05l2.24,8.75l-0.2,0.2l-2.3-8.8V147z" />
<path
   id="EST"
   fill="#CCB42F"
   d="M653.02,156l-2.8,9.4l-7.8,10.5l-2,1.5l-1.4,3.3l0.3,4.9l-2.4,7.2l0.7,3.6l-1.5,2l-1.2,5.5  l-3.16,6.22l-0.04,0.08v5.3l1.6,1.9l0.2,3.4l-2.2,11.1l0.1,6.7l1.8,1.51l0.6,3.5l-2.2,2.01l-0.2,2.33l-3.1,0.95l0.5,2.3l-1.5,1.8  h-2.7l-3.8,1.2l-3-1.3l0.3-2.5l-2.4-1.1l-0.4,0.1l-0.1,0.1l-2.79,0.39l-1.11-0.39l-3.19,4.34l-0.11,0.16l-2.2,4.9l7-0.7l-1.5,2.3  l-2.4,2.2l0.4,3l-4.8,6.2l-4.8,4l-0.4,2.9l-2.5,2.7l-5.7,1.7l-0.3,0.3l-1.7,2.3l0.9,2.7l-0.7,4.5l0.5,2.5l-9.5,8.8l-2.9,5.2  l-0.22,0.69l-3.68-3.49l3.6-7.4l2.1-2.3l-4.2-4.1l-2.9-0.5l-5.8-10.1l-3,0.8l-1.5-2.5l-2,2.1l-1.2-2.5l3-5.1l-5.2-7.8l-5.4-0.1  l-2.3-2l-3.9-8.2l-2.6-1.39l4.6-4.1l-0.1-3.19l-2-2.97l-2.7,1.65h-0.1l1.2-2.55l6.6-3.95l2.11,1.8l3.2-1l0.31-8.3l2.03-2.4l2.95,0.3  l2.4-3.2v-1.4v-0.1l-1.5-2.5l-2.9,1.1l-0.2-3.1l-5.5-4.7l1.7-8.6l-12.7-9.5l2.4-2.3l6.9-3.4l3,0.5l1.9-2.3l0.2-2.9l-2.5-2l1.7-2.8  l-1.3-8.6l2.2-13.8l0.9-2.7l-4.9-11.5l1.5-5.9l-1.2-2.69l-4.4-4.8l-5.3,2.01l-0.7-5.27l4.8-1.65l2-1.8h6.8l2.55,2.36l0.65,0.64h2.4  l1.5,1.95l2.3,0.55l2.3-0.5l1-2.3l2-1.2l2.2-0.2l4.51,2.3l4.9-0.1l3.12,3.8l2.32,1.9l-0.45,2l3.8,3.2l3,4.5v2.3l4,0.7l1-1.9  l-0.3-2.4l2.6-0.2l3.8,1.8l1.4,3.5l2.1-1.5l2.5,1.9l5.8-0.4l5.3-4.2l2.2,1.4l0.5,2.1l2.4,2.4l3.2,1.5h0.03l8.87,0.6l2.4-0.6  L653.02,156z" />
<path
   id="IDF"
   fill="#939392"
   d="M465.32,186.4l-2.6-1.7l-3.5-8.3l2.6-2.2l0.4-2l-9.3-6l-3.9-4.2l0.7-2.8l-1.8-2.5l-2.6-0.7  l-8.1,2.9l-2.5-1.6l-2,2.2l-6.9-1l-10.9-6.4l-2.2,1.6l-9.2-2.2l-6.3,1.8l-5.6-1.1l-1.6-3.2l-4,9.5l-3.8-0.1l-2.3,2.6l1.8,5.8  l3.6,6.6l0.5,10.9l6.2,5.4l1.2,5.6l2.3,2.2l3.1-0.7l2.8,10.6l6.9-0.7l1.9-2.9l1.5,2.7l2.8-1.8l3.7,0.6l0.7,3.1l4.2,4.3l-0.6,2.7  l-2.6,1.5l9.2,0.7l11.2-2.7l3.9-5.4l0.2-5.8l15.4-3l-0.4-8.5l2.9-0.8L465.32,186.4z" />
<path
   id="NPDC"
   fill="#FFB600"
   d="M491.52,96.1l-1.4-3.3l-2.6-0.2l1.4-4.7l2.1-2.4l-2.3-0.2l-5.5-6l-4.3,1.7l-2.4-1.1l-4.6,0.3  l-1.1,2.6l-1.4-1.9l-0.7-2.3l0.6-2.3l-1.8-4.4l-2.8-1l-2.2,0.7l0.5-2.2l-2.4,0.2l-2.1,1.2l-2.8-0.8h-0.1l-2-3.3l-1.3-5.1l-0.1-0.95  l-3.8-7.48l-8.1,3.21l-0.6,2.62h-2.1l-3.1-1.7l-2.7-5.3h-3.4l-1.2-5.8l-0.6-0.8l1.6-1.9l-2.3-3.7l-1.2-4.8v0.1l-4.4,1.9l-2.9-0.3  l-7.9,2.1l-1.1,2.1l-2-0.8l-0.87,0.26l-11.73,3.44l-6.4,5.4l0.9,5.6l-1.7,4.6l0.6,6.7l2,4.2l-1.7-1.4l-0.3,9.7l2.27,1.58l10.53,1.02  l1,3l7.1,5.8l12-2.5l-2.6,5.7l1.7,3.1l2.5-3.1l8.4,3.5l0.8-2.8l2.8,4.6l2.4-1.7l0.8,3.2l8.6-1.8l3.3,2.6l12.6-0.6l2.6-2.2l2.3,1.7  l5.2-1.8l16.7,4.6l-0.2-2.5L491.52,96.1z M444.72,93.5l-2.8,0.8l3.5-3.3L444.72,93.5z" />
<path
   id="Cont-intext"
   fill="none"
   stroke="#FFFFFF"
   stroke-width="2"
   stroke-miterlimit="10"
   d="M465.33,186.4l3.2,4.5l9,1.2v-3.3  l9.5-7.6l6.5-0.9l3.1,0.5l0.4,6.1l2.6,2c1.9,0.8,3.8,1.5,5.6,2.3l2.5-1.5 M507.73,189.7L507.73,189.7 M484.43,137.7l6.69,0.9   M507.73,189.7L507.73,189.7 M523.72,181l-8.6,2.2l2.2,2.5l-2.3,2.2l0.7,2.9h-4.7 M511.02,190.79l-3.29-1.1 M484.43,137.7l-1,2.8  l-5.3-1.8l-8,4l-1.2,2.6l3.2,8l-5.5,2.3l1.6,2.4l-0.8,2.7l2.5,1.3l-7.7,10.2 M459.83,200.7l-15.4,3l-0.2,5.8 M462.33,191.4l-2.9,0.8  l0.4,8.5 M445.33,156l2.6,0.7 M513.42,222.29l-0.2-4.8l5.6-2.5l0.1-2.7l-0.5-9.9l-5.6-3l-2.4-5.2l0.6-3.4 M317.43,200.1  L317.43,200.1 M484.43,137.7L484.43,137.7 M546.32,353.79L546.32,353.79 M440.03,244.5l-3-2.8l5.3-3.3l1.6-2.4l-1.1-2.9l4.6-4.9  l-0.4-5.8l-6.7-7.5l-11.2,2.7l-9.2-0.7l2.6-1.5l0.6-2.7l-4.2-4.3l-0.7-3.1 M542.03,318.29l2.8-1.1l-0.8-5.3l2.8-5l-2.2-8.7l-2.5-1.6  l5-3.7l-8.3-4.4l-0.4-2.9 M542.03,318.29l-4.8-3.3l-5.4,1.3l-5.9-1.5 M513.42,222.29l-3.9-0.5l-4.7,3.9l-6.1,0.9l-2.2,2 M546.32,326  L546.32,326 M546.32,353.79L546.32,353.79 M534.53,357.6l6,2l3-5.1l2.79-0.7 M539.53,281.5l-1.1,4.1 M493.03,276.4l1.1-0.3l2.4,2.6  l5.7,1.7l1.3,2.6l5.5,1.9l5.6,6.3l8.8-4.2l15-1.5v0.1 M539.52,281.5l6.2-6.8l1.8-8.2l1.2-1.3 M546.33,326l-4.3-7.7 M546.32,353.79  l11.2,15.2l5.7-6.7l2.3-13.6 M541.93,246.9h0.1l2.7-1.6l2,3l0.1,3.2l-4.6,4.1l2.6,1.4l3.9,8.2l2.3,2l5.39,0.1 M327.83,248l-0.7,2.4  l-1.7,9.3l-5.8,15.3v0.1l5.5,3.2l0.3,3.2l2.9-0.3l1.3,6.1l2.8,1.4l10-0.4l-1.4-2.9l5.3,3l0.3,3.1l7.1,10 M343.92,243.1l0.6-3.5  l3.2-1.1l6.3-10.6l-0.4-5.5l-1.7-2.2l2-2.1V218 M333.93,250.6L333.93,250.6 M343.92,243.1l-7.7,4.5l-2.8-0.3l0.5,3.3 M354.43,243.6  l-0.2,5.5l2.2-1.8l6,3.4l-0.7,2.7l3.4,5.1l-1.2,9.1l2.4,1.9l2.6-1.3l4.2,6.7 M343.92,243.1l10.5,0.5 M303.23,240.6l6.7-0.2l0.2,3.5  l2,2l3.1-1.3l5.2,3.3l7.4,0.1 M317.43,200.1l-4.3,2.7l0.3,6.9l-4.4,4l1.2,2.9l-5,4.6l1.4,3.4l-5.5,7.7l1.5,5.6 M320.42,200.2  l-2.99-0.1 M333.92,250.6L333.92,250.6 M353.73,301.5l5.6-0.5l-1-2.7l3.3-11.9l5.1-2.7l2.3,1.7l2.6-3.5l2.5-2.1l-1-4.9l0,0   M440.32,214.9l3.9-5.4 M333.92,250.6l-6.09-2.6 M425.12,182.29l1.1-4.09 M425.63,183.29l-0.5-1l-0.01-0.01 M411.53,248.29l13.5,3.1  l3.9,4.8l9-1.7 M413.23,322.29l-4.9-0.2 M432.72,159.5L432.72,159.5 M432.72,159.5L432.72,159.5 M408.33,322.1l1.5-3.5l-0.9-8.9  l-4.7-7.9l1.4-2.7l-2.3-2.2l2.5-5.1l-2.3-11.7l-11.6-1.6l2.8-5.5 M394.73,273L394.73,273l-5.21-3.5l-6.4,0.9l-1.5,2.6l-2.5-1.3  l-5.99,3.2 M394.73,273L394.73,273 M411.53,248.29l-5,2.4 M381.82,225.89L381.82,225.89 M394.73,273l2.79,0.1l0.6-2.8l9.7-2  l-2.1-5.9l5.9-4.1l-5.1-7.6 M459.83,200.7l3.6,1.5l4.5,5.5l2.5,8.3l2-2.2l3.6,4.1l5,10.9l12.6-1.6l2.89,1.4 M359.33,447.59l-7.5,2  v2.9l2.4,1.4l-4.4,5.5l1.3,2.7l-2.8-0.2l-3.6,4.7 M362.42,447.09l-3.09,0.5 M400.13,462.09l-9.2,3.2l-2.7-1.1l-3,1.1l1.8,2.2l-1,2.7  l-4.8,3.2l-0.5,2.8 M353.83,483.9l-2-6.9l-5.1-4.1l3.3-4.6l-5.3-1.7 M594.22,401.2l-7.69-3.5 M360.03,435.4l-3.4,3.1l2.7,9.1   M362.42,447.09l-2.1,2.3l4.5,4l2.7,1l2.4-1.5l0.5,4l8.7-2.5l2.6,2.3l7.5-5.5l6.2-0.8 M423.62,386.2L423.62,386.2 M473.83,352  l-3.5-4.3l-6.4-0.4l-1.4-3.2l-13.1-0.5l-1.6-2.5l-3.3,0.5l-4.4-4.5l1.2-2.8l-2.3-1.7l-11.2,8l-2.5-1.2 M423.63,386.2L423.63,386.2   M423.62,386.2l-6.19-2l-0.6,3.5l-7.6,9.5l1.8,2.2l-2.3,1.9l-0.3,3.5l-3.1,1.1l1.5,3.4l-3.2,1.9h-0.1 M430.42,383.7l-7.5-3.5l0.7,6   M395.42,450.4l-0.8-9.1l7.6-5l5.9-1.4l1.7-1.5h0.1l-3.3-5l1.7-5.8l-3.8-6 M323.03,423.1l-1.2,2.5l-2.7-0.9l-1.1,3.3l2.9,1.4  l-8.5,8.6l-0.6,8.9l-3,2.3l1.5,2.5l-4.5,4 M368.53,382.1l-5.7-2.2l2-2.7l-7.2-5.6l-9.5,1.1l0.1-4.7l-6.2-3l-5.7,6.1l-2.1,5.3  l-7.9,5.9l-0.7,5.7l-4.1,5.8l-5.5,0.7l-2,2 M310.83,348.5l-2.7,11.6l-2.7,0.1l-2.3-2l-8.1,3.3l3.2,5.6l-2.2,2.1l5,3.1l0.3,3l2.4,1.7  l-1.7,2.6l1.5,2.6l-2.4,1.7l2.3,2l-1.7,3l6,1.2l6.3,6.3v0.1 M314.03,396.5l-0.1,0.4l-2,5l3.7-0.6l1.2,2.8l-2.8,5.5l-0.2,5.7l-2,2  l9.8,2.3l2-3.2l2.4,2.6l-0.9,2.9l1,1.3 M324.03,341h-0.1l-0.8,0.8l-3.5-0.4l-5.8,2.5l-0.3,3l-2.7,1.6 M313.03,281L313.03,281l3.4,9   M360.03,435.4l-4.2-4.2l-5.4,2.7l-1.5-6l-6.1,1l-2.2-1.8l-2.8,2l-8.9,0.5 M304.13,513.9l2.3,1.6l-0.1-2.7L304.13,513.9z   M344.73,466.59l-2.7,1.3l-8.6-1l-5,2.9l-8.3-0.7l-1.4,2.5l-3.7-0.7v0.1 M315.03,471l-0.4,2.9l-2.5,1.3l-0.6-3l-9.4,2.7l0.5,6.4  l-4.2,11.1l1.6,2.7 M306.63,495.4l-6.6-0.3 M315.03,471l-0.7-2.6l3.6-5.2l-11.7-2.9l-0.4-4.6 M395.82,458.5l2.3-2.4l-3.1-2.7l0.4-3   M560.12,456.7l2.3-0.1l1-0.2 M555.83,461.5l2.2,5.4l-1.2,3l3.7,5.2l-1.7,2.5l3.4,1.1l6.1,6 M555.83,461.5l4.3-4.8 M555.83,461.5  l-5.2-2.3l-0.1-2.8l-9.3-0.9l-0.5-5.8l-2.5,2.2l-2.4-1.4l-8.7,3.9l-3.5-4.2 M567.62,424.5l-0.3,3.4l-5.8,0.3l-2.5,6.7l3,2.3  l-2.5,2.5l-4.2-1.4l-3.2,5.1l1.5,2.6l10,5.7l-0.2,4.7 M531.52,386.7l4.9,2.7l3.3,7.8l-1.1,6.3l2.7-1l8.2,1.9l3-1.7l0.8,17.5l3-0.5  l5.4,4l5.9,0.8 M581.33,396.2l-1-5.4l2.3-5.5l-2.7-6.3l-9.4-2.1l-0.3,2.8l-6.2-0.2l-6.5-10.5 M586.53,397.7L586.53,397.7l-5.21-1.5   M586.53,397.7L586.53,397.7 M517.82,453.19L517.82,453.19 M568.63,421.39l5.5-1.2l0.9-2.8l12.6-3.9l3.1,1.1l0.4-5.8l-4.4-3.1  l-1.8-4.2l1.6-3.8 M567.62,424.5l1-3.1 M461.43,460.5l7.8,3.4l3.9-0.5l0.1-3.3l8.7,2.2l6.3-1.8l-1.4-3l1.2-2.9l-3.9-7.7l3.6-2.5  l1.1-2.1 M460.33,411.2l2.3,1.7l1.5,5.7l6.4,1.2l0.1-2.8l2.9,0.2l9,7.7 M430.43,383.7l1.5,2.5l6.7,0.3l6.5,5.4l3.7-4.1   M482.53,424.89l2.1,9.1l4.2,8.3 M483.23,387.1l-11.1,0.7l-5.2-3.2l-8.5-0.1l-9.6,3.2v0.1 M460.33,411.2l-1,1l-6.8,5.7l-1.7-2.3  l-6.9,15.9 M460.33,411.2l-3.5-8l3.4-0.2l-2.6-1.1l-3.3-8.7l-5.5-1.5v-3.9 M503.24,333.52l2.08,2.98l-4.9,3.5l-1.6,8.6l5.2,6.7  l-1.7,5.9l2.3,1.6l-1.3,2.5l1.1,3l4.6,4.1l5.9,2.1l0.9,3 M482.53,424.89l6.7-6.4 M279.53,285.29l2.3,5.7 M508.83,394l3.5-0.8  l3.2-4.9l5-2.7 M523.62,450.2l-5.9-0.7 M489.22,418.5l5.9-1.9l3.4-5.9l3.4-0.4l-0.7-2.8l2.6-2.3l1.5-5.2l2.6,1.2v-3.1l0.9-4.1  l-2.2-2.4l-2.6,1l-0.7-5.5l-6-2.2l-6.2,3l-2.8,0.4l-2.3-2 M517.72,449.5l2.1-14.4l3-5.9l-1-7.1l3.5-4.5l1.5-6.2l-3.8-11.3   M531.52,386.7L531.52,386.7 M517.82,453.19l-0.1-3.69 M525.93,314.79L525.93,314.79 M525.93,314.79L525.93,314.79 M520.03,335.7  l-1.5,8l3.1,9.2l2.8-0.5l3.7,5.7l6.4-0.5 M520.03,335.7l5.9-20.9 M404.53,416.6l-1-5.4 M323.02,423.1L323.02,423.1 M415.33,174.7  l-0.4,4.1 M400.13,462.09l-4.3-3.6 M425.12,182.29L425.12,182.29 M323.03,423.1L323.03,423.1 M328.92,429.59l-2.8-6.4l-3.09-0.1   M398.63,196.79l2.8,10.6 M520.03,335.7l-5.7-7.7l-1.6,2.3l-2.5-1.5l-2.2,1.6l-2.2-1.7l-2.3,1.9l-0.29,2.92 M520.43,380.1l-4.6-2.6   M373.13,274.9L373.13,274.9 M376.23,326.7l1.2,2.6 M377.42,329.29l-3,5.3l6.6,9.8l1.8,5.2l-0.9,3.4l2.9,1.5l0.1,2.8l6.4,0.5l4.7,3  l0.6,5.9 M520.53,385.6v-4.4l-0.2-1.1h0.1 M522.53,389.79l0.5,10.3 M527.93,448.2l1.9,2.2l4-1.2l2.5-3.5l-4.5-2.8l-2.7,2.3  L527.93,448.2z M531.52,386.7L531.52,386.7 M531.52,386.7l-8.99,3.1 M520.53,385.6l2,4.2 M520.43,380.1l4.4-3.9l-1.9-2.5l2.5-2.5  l6.9-1.5l2.5-5l-0.3-7.1 M396.13,508.7l5.19-1.8 M445.42,91l-3.5,3.3l2.8-0.8L445.42,91z M390.03,149l-4,9.5 M491.13,103.44v-0.04   M303.23,240.6L303.23,240.6 M236.42,180.7h-0.69l-0.01,0.1 M235.72,180.79L235.72,180.79 M235.63,182.5l0.09-1.71 M448.88,543.57  l0.05,0.03 M235.63,182.5L235.63,182.5 M217.55,252.39l-0.02,0.01 M391.05,558.9h-0.02 M243.53,496.5l0.02,0.01 M562.33,226.29  l8-5.8 M556.42,267.29L556.42,267.29 M425.83,506.9l-0.5,2.8 M235.72,180.79l0.7-0.1 M403.63,363.29L403.63,363.29 M570.32,220.5  L570.32,220.5 M570.32,220.5L570.32,220.5 M401.83,506.09l-0.5,0.8 M284.94,386.79l3.78-0.5 M260.92,192.2l-4.7-9.6 M378.63,516.09  L378.63,516.09 M396.13,508.7L396.13,508.7 M396.13,508.7L396.13,508.7 M617.02,442.61l0.01-0.01 M403.63,363.29L403.63,363.29   M425.33,339.39l-0.5,4.1 M376.73,408.39l8.1-0.8l6.7,6.1l5.3-2.7l6.7,0.2 M362.43,447.09L362.43,447.09 M368.53,382.1l2.9,4.7  l-3.6,4.6l1.7,3l-2,1.8l2.3,1.5l0.2,3l3.2,0.7l3.5,7 M360.03,435.4l4.7-6.5l6-3.4l-0.6-3.6l4.5-3.2l1.4-5.3l0.7-5 M445.03,299.1  l1.3-8.9l0.2-5.8l-2.2-2l-0.3-5.9l-3.1-7.6l-2.7-2.1l1.7-5.8l-2-6.5 M445.03,299.1h-0.1h-4l-4.8,3.7l-8.4,2.9l-2.3,1.9l1.7,5.3  l-1.7,2.4l-8.7,1l-3.5,5.9v0.1 M425.33,339.39l-3.6-8.4c-2.5-1.6-4.9-3.2-7.4-4.8l-1.1-3.9 M408.33,322.1l-2.7,0.8l-13.2-2.7  l-1.9,2.5l-11.5,1.1l-2.8,2.9 M403.63,363.29l11.19,5.2l2.3-2.6l2.7,0.8l2.4-2.4l-4.4-5.5l9.3-8.6l-2.3-6.7 M422.23,364.29l1.2,5.6  l-1.7,2.4l1.2,7.9 M362.42,447.09L362.42,447.09 M313.03,281L313.03,281 M333.13,344l-9.1-3 M316.43,290l-0.8,3l2.7,1.2l-4.5,14.1  l2.7-0.9l1.5,3l-3.4,5.5l0.5,5.8l2.1,2l-0.1,2.8l6.4,0.2l-3.2,8.5l4.5,3l-0.8,2.8 M319.62,275.1l-6.59,5.9 M303.23,240.6  L303.23,240.6 M302.63,237.9l0.6,2.7 M353.73,301.5l2.1,3l-0.8,5.8l4.6,4.4h2.9l2.6,5.4l2.5,1.3l-1.5,2.8 M376.23,326.7l-1.7-2.5  l-5.8,1.1l-2.6-1.1 M366.13,324.2l-0.8-0.3l-1.3,2.4l-3.3-0.9l-1.3,3l-5.6,2.7l-3,5v3.5 M333.13,344L333.13,344 M342.02,365h-0.1  l3.4-3.8l2.8-0.6l4-8l2.6-1.1l0.6-3.2l-4.7-3.6l0.2-5.1l-4.8-0.6l-1.3,2.5l-3.8,1.4l-4.1-3.9l-2.2,1.8l1.4,2.4l-2.89,0.8   M333.13,344L333.13,344 M403.63,363.29l-7,3.4l-8.7,4l-4.9,4.6l-5.7,1.3l-4.7,4l-2.5-1.2l-1.6,2.7 M489.53,264.9h0.09l-1.3-2.7  l1.3-8.1l6.7-10.4l-1.7-2.3l2.8-2.1l0.3-3.7l-3.1-3.9l1.9-3.1l0,0 M496.52,228.6L496.52,228.6 M494.12,276.1v-0.8l0.4-3.2l-3.7-1.2   M493.03,276.4l-2.7,0.4v1.3 M490.83,270.9l-1.3-6 M493.03,276.4l-2.7,1.7 M476.93,315.1l-6.7-13.5 M487.53,279.1l2.8-1   M439.43,252.1l-1.5,2.4 M442.22,251.4l-2.2-6.9 M439.42,252.1l2.8-0.7 M445.03,299.1l5.7,6.3l6.4,0.2l2.8-1.7l4.4,3.7l5.9-6   M470.23,301.6L470.23,301.6 M470.23,301.6l6.99,2.8l11.3-5.7l-0.7-2.9l1.9-2.1l-4-7l2.1-1.7l-0.3-5.9 M470.23,301.6L470.23,301.6  L470.23,301.6 M482.22,330.5l3.7-4.6l0.5-5.5l-1.6-2.4l-7.9-2.9 M489.53,264.9L489.53,264.9l-5.51,0.4l-1.5-2.8l-2.8,0.9l-0.9-3.7  l-5.8,0.9l-5.5-3l-3.9-5.6l-4.6,4.3h-6l-7.4-4.8h-3.4v-0.1 M470.23,301.6L470.23,301.6 M503.24,333.52l-0.01,0.08 M482.23,333.5v-3  l-3.9,1.3l-0.5,3l1.5,12.4l-5.5,4.8 M483.23,387.1l3-7.1l-2.7-7.5l-4.6-3.8l-4.7-7.7l2.1-6.3l-2.5-2.7 M486.02,386.29L486.02,386.29   M482.22,333.5l5.2,3.3l8-1.5l2.1,2.1l5.7-3.8v-0.1l0.02,0.02 M483.23,387.1l2.79-0.8 M486.02,386.29L486.02,386.29 M172.83,204.5  l-6.8,3.2l0.5,3.5l3.4,5.5l8.1,1.3l0.1,5.4l-2.5,2.8l-2.8-0.8l2,3.4l0,0 M283.93,326.89l-2.4-1.8l-6.5,0.3l1.4-2.9l-7.1,2.7   M234.32,280.5l5.6,5.6l11.7,5l0.2-9.5l3.4-0.2v3.1l2.3,1.7l2.4-2.1l-0.5-3l3.2-0.7l1.5-2.4l4.8,3.5 M313.03,281l-2.29-2.29  l-9.6,0.2l-5.6,0.8l-3.7,4.8l-12.3,0.8 M266.93,235.5l-6.8-3.6l-9,3.9l-1.6,2.9l-13.2,0.4l-5.2,3.4 M172.87,204.41l-0.04,0.09   M217.55,252.39l13.18-3.89l0.4-6 M283.93,326.89L283.93,326.89v3.7l5.9,6.5l17.4,6.7l3.6,4.7 M283.93,326.89L283.93,326.89   M288.72,386.29l0.7,2.8l6.4,1.7l0.6,5.8l6.1,4.3l9.4,1 M288.72,386.29L288.72,386.29 M305.83,455.7l-2.1-2.7l-1.6,3.6h-6.4  l-0.6-4.7l-11-7.7l0.4-2.8l-17.2,0.7l1.5-5.4l-3.7-1.3l-5.8,2.6 M172.87,204.41l-0.04-0.01v0.1 M283.93,326.89l9.09-4.5l-2.5-2  l0.2-7.4l-4.7-17.9l-4.2-4.1 M288.72,386.29L288.72,386.29 M378.34,98.21l-5.11,4.09l-8.5,4.4l-2.4-0.3l-4.8,1.8l-10.3,2.1l-2.3,1.6  l-13.8,7.4l-4.4,9.7l0.1,2.3l1.2,2l7.61,1.8 M378.33,98.2L378.33,98.2 M333.53,136.38l-5.1,1.12l-4.1,3.7l-4.7,2.5l-5.7,0.7  l-6.9-3.4l-13.9-1.5l-9.4-3.3l-3.4,0.3l-1.9,2.1l-1.8-0.8l-1.1-4.3l-4-6.5l3.2-5.2l-0.9-2.7l-1.8-1.7l-5.1-0.6l-4,2.6h-2.4  l-11.9-4.2l-2.1,0.2l1,2.5l2.2,1.1l0.5,2.3l-0.1,2.8l-1.8,1.8l1.4,1.9l0.7,5.9l2.9,4.1l2.4,1.2l-0.3,2.2l2,5l2.5-0.3l-1.5,2  l-0.4,7.4l1.8,3.6l0.3,4.9l-2,6.1l0.3,5.3l5.1,5.6l2.4-1.3l-0.5,2.2l-2.5,1.1l-4.8-0.4l-9.2,0.8l-2.9-2.4l1.5-2.3l-2.2-1l-2.3,0.6  l-2.2,1.5l-0.7,2.5l2.3,5.1l-1.4,2.1l0.5-2.1l-1.3-2l-1.7-4.5h-2.11 M335.64,135.1l5.89-2.4l7.6,5l3.4-0.7l4.9,3l-1.9,2.4l2.1,2.1  l5.4,2.4l1.4-2.7l8.2-2.5l4.8-7l13.1,3.3 M381.73,166.79l-6,6.9 M235.63,182.5l1.6,3.99l2.5,0.3 M237.22,186.5h-0.3 M172.42,173.7  l-1.1,4.3l3.6,4.7l-2.5,8.3l2.5,9.3 M172.87,204.41l2.06-4.11 M229.92,204.2l-4.9,7.1 M231.13,242.5l-1-5.8l3-0.7l-2.8-1.5l2.4-2.2  l1-3.2l-2.4-1.7l1.6-2.6l-1.2-2.5l-5.1-2.8l-0.5-2.8l3.5-0.9l-3.6-0.1l-1-4.4l-2.9,1.1l-1.5-2.7l-3.5-0.9l-6.2,7.5l-1.8-6l-3,0.9  l-12.9-6.5l-7.9,3l-12.46-3.29 M229.93,204.2l9-2.5l1.9-13l-0.4-1.7l-0.3-0.2 M337.73,513l3.1-1.1l3.5-5.3l11.4,2.5l0.7-5.8l6.5-6.1  l-9.1-13.3 M396.13,508.7l-1.4-2.7l-8.4,10 M378.63,516.09l5.69,2.2 M407.73,553.7l-7.4,0.2l-1.3,2.6l-7.98,2.4 M380.73,476.2  l1.4,6.3l2.6,1.2l0.2,2.8l2.3,2.1l-0.7,5.4l14.3,9.3l1,2.8 M401.83,506.09l1.8,2.3l6.3,0.9l1.1-3.3l2.8-0.5l12,1.4 M284.94,386.79  l0.59,2.4l-1.7,3.1l-2.8-7.6l-9-9l-1.4-4.7l-3.3,3.4l-0.9,2.8l-6.2,50l1.2-3.8l2.8-4l3.5,3.4l1.1,4.6l-3.1,0.2l-1.8-1.4l-1.9,1.7  l-0.5,2.3l-2.2,3.2v4.6 M386.33,516l2.2,5.5l8.7,3.9l2.2,5.2l0.2,3.1l-2.2,2.3l2.4,2.5l-1.2,3l-3.2,0.6l0.8,5.7l3.4,1.5l3.3-1.2  l4.8,5.6 M442.23,490l-1.3-2.8l-11.1-1.3l-4.2-5l-4.3-11.5l-4.8-4.3l-10.3-5.8l-6.1,2.8 M443.93,431.5l-2.6-5.1l0.5-3l-2.4-1.6  l-1.3-4.2l-5.2-4l-4.7,4.2l-3,9.1l-3.8,4.8l-6.4-1.5l-5.1,3.2 M442.23,490c-2.2,1.5-4.5,2.9-6.8,4.4l-6.1-2.2l0.7,9.7l-0.8,3l-3.4,2   M448.88,543.57l-9.45-5.57l-8.2,5.4l-13.6-1l-2.7,1.4l1.4,6l-8.6,3.9 M456.12,519.5l-1.7-2l-13.8-4.7l-1-2.9l-3.8,5.3l-3.1,0.8  l-1.4-2.9l-2.5,1.6l-3.5-5 M386.33,516l-2,2.3 M243.55,496.5l1.08-1.51l3.9-7.1l8.8-37.8l2-11.7V438 M443.93,431.5v0.1l4.2,4.5  l2.9,8.8l-0.5,8.7l1.5,2.4l9.4,4.5 M243.55,496.5l3.98,1.89l11-2.5l1.2,2.8l2.7-1.3l2.5,1.4l1.6-2.2l9.8-2l2.5,2.3l2.3-1.5l2.2,2  l4.8-1.9l3.3,1.1l8.6-1.5 M262.63,351.39l1.4,5l1.3-3.2l-1.4-8.4l-2.9-0.5l-1.7-1.8l-1.5,3.6l1.3,2.3L262.63,351.39z M295.33,540.2  l1.2-8.7l1.6-2.8l3.4-0.8l-0.4-2.9l8-9.3l-0.8-3.1l2.7-1.4l-0.5-7.2h-2.9l1.5-2.8l-2.5-5.8 M284.94,386.79L284.94,386.79   M386.03,158.5l-3.8-0.1l-2.3,2.6l1.8,5.8 M378.63,516.09L378.63,516.09 M378.63,516.09l-0.6,2.8l-2.8,0.5l-3.4-5.5l-2.8,1.1l3,4.8  l-5.4,1.6l0.4,5.6l-6.2-4.1l-2.8,1.1l-3.9,4v5.9l-2.8,1l-3.8,5.2l0.5,1.4 M337.73,513l-7.1,11.2l4.6,4l-0.6,3.5l3.1-0.3l0.8,2.7  l-2.6,5.3l-5.5,3.2l0.6,7 M306.63,495.4l3.9-0.5l2,3.5l3.3,1.3l2.6,8.7l5.5-0.6l1.4,3l12.4,2.2 M353.83,483.9l9.9-0.9l1.7,2.3  l5.8-2.5l-2.2-2.3l11.7-4.3 M263.13,334.2l-5.8-4.5l-4.4-1.5l-0.6,2.9l2.7,0.1l4.8,3.3L263.13,334.2z M617.02,442.61l-6.79,7.79  l-2,5.3l4.3,8.5l7,7.7l-5.2-0.6l-5.2,3.8l1.2,2.6l-3,1.4 M621.51,497.07l-2.18-3.97l0.8-2.9l-5.6-2.6l-1.7-5.6l-5.5-2.9   M495.32,496.9l3.3-4.4 M495.32,496.9h0.11l1.1,3.4l1.9,1.6l3,0.7h13.2l2.2,0.9l1,2.2l-1.6,1.5l2.2,1.4l7.4,0.1l3.2,1.3l1.8-1.7  l-1.5-2.8l0.4-2.4l4.9,1l3,5.3l10-0.8l2.6-1.1l1.8,2l-0.2,2.5l1,2l-1.2,2.2h9.2l1.3,2l2.2-0.8l2.2,0.3l6.4,4.1l-0.6,2.3l3,1.1  l1.5-1.7l2.3,0.4l-0.9-2.2l3.1-0.1l1.6,1.6l2.2-0.7l2.4,1.7l-1.4,1.8l2.2-1.6l0.4-2.3l1.6-1.6l2.7-0.5l4.9,1.5l-0.1-2.7l3.5-1.1  l4.8-2.5l4-0.2l2-4.8l-5-0.7l5.5-5.7l0.7-2.5l6.8-1.7l1.38-2.53 M495.32,496.9L495.32,496.9 M381.73,166.79l3.6,6.6l0.5,10.9  l6.2,5.4l1.2,5.6l2.3,2.2l3.1-0.7 M621.72,497.4l-0.2-0.3 M621.51,497.07l0.02,0.03 M608.18,253.79l-0.15,0.21l-2.2,4.9l7-0.7  l-1.5,2.3l-2.4,2.2l0.4,3l-4.8,6.2l-4.8,4l-0.4,2.9l-2.5,2.7l-5.7,1.7l-0.3,0.3l-1.7,2.3l0.9,2.7l-0.7,4.5l0.5,2.5l-9.5,8.8  l-2.9,5.2l-2.8,8.8l4.5,2.7l-1.8,4.7l0.3,2.5l-4.4,1.5l-1.9,2l0.2,2.8l2.7,1.1l2.3-1l2.3,0.1l3.4-3.5l2.1-1l1-2.3l-2.8-1.3l1.8-5.1  l2.4-0.8l2.3,1l3.6-2.9l9.5-1.3l3.2,0.6l-0.5,2.7l4.2,4.1l-2.1,6.4l-0.6,1.5l4.6,1.7l-0.1,4.8l2-1.4l4.6,6.6l-1.3,5l-2.5,1.7  l-4.9,0.9l-0.6,3.7l1.9,4.7l2.7,1.1l1.5,1.9l2.8,0.4l-0.7,3l1.3,5.2l5.1,4l2.2,1.2l-1,10.3l-3.1,1.4l-2.2,0.7l-4.5,3.4l-1.5,2.4  l-2.5-1.4l-5.1,1.3l-2,1.8l1.8,4.6l2.4,0.6l1.1,2l0.4,3l1.2,2.2l3,2.3l5.7,0.5l2.2,1.3l-0.7,2.1l3.2,4.7l-3,1.5l-2,2.3l-0.4,4.9  l-2.2,1.5l-0.6,2.9l3.5,4l-1.8,4.8l0.19,0.21 M621.51,497.07l0.42-0.77l0.1-2.2l1.3-1.8l3.2,0.1l1.4-1.7l2.4-0.6l-0.1-2.8l1.8-2.4  l2.3-0.5l1.5-2.1l3,0.9l0.9-2.4l2.3-0.5l3.5-2.9l1.1-2.7l-1.1-2.7l0.5-1.6l3.3-5l2.7-1.6l0.2-2.3l1.6-1.9l-0.3-3.2l-1.5-2.2l0.3-2.6  l-2.7,1.8l-10.3,2.4l-1.8-1.4l-2.5,0.4l-4.2-2.8l-6.9-1.6l-6.91-7.79 M495.32,496.9l-2.39-0.1l-5.9,2.6l-3.6,3.2l-7.2,4.6l-4.3,4.2  l2.1-3.5l-4.3,6.6h-6.8l-5.5,4l-1.13,1.17 M184.33,257.29l1.3,2.7l5.1,1.2l1.1-2.1l-2.9-1.2l-2.1-2.2l-2.1-1.4L184.33,257.29z   M284.94,386.79l-1.81-7.3l-3.7-4.8l-4.3-2.7l-1.5-2.6l-9-6.5l-1.1-4.3l1.5-1.7l2.2-0.4l0.1-2.6l3.3-3.1l0.2-5.1l1.5-1.9l-3-7.2  l-2.2-1.7l-2.4-0.3l4.5-5.9l0.6-3.4l-2.9-0.4l-0.5,2.7l-3.9-3.3l0.9,2.1l-1.8-2.5l-2-1.2l-2.9,0.1l-3.9-4.3l-3.4-0.5l-8-5.4  l-1.2-5.3l-2.7-5.6l-8.7-9.5l-0.2-2.4l1.2-2.3l3.4-4.3l0.8-2.6l2.1-1.1l-2.8-4.1l-7.8-3l3-1.3l0.6-2.2l-0.5-2.5l1.4-2.1l5.8-1.1  l-5.5-0.7l-6.6,3.7l-4.1-3.2l-2.2,1l-2.2-1.2l-0.5-4.9l0.9-2.5l3-0.5l-0.9-2.2l-0.18-0.31 M174.83,228.79l0.1,1.5l2.9,4.4l2.3-0.2  l1.5-1.7l-0.8-5.1l0.6,2.4l1.7,1.7l1.9-1.7l-2.5,4.2l2.2,1.4l-2.3-0.6l4.9,3l1.7-2.5l-1.6,3.1l2.1,2.6l0.6,3.5l-0.9,2.8l2.1,1.1  l-1.2-3l0.5-3.8l2.2,1.6l5.1,0.1l-0.7-5l1.4,2l2.1,1.5l4.8-0.5l2.1,2.4l-1,2.2l-2.1-0.6l-4.8,0.4l3.8,3.3l12.9-0.9l3.1,1.5l-3.4,0.1  l1.42,2.39 M174.83,228.79v0.1 M217.62,297.7l1.8,1.5l2.1-0.9L217.62,297.7z M235.63,182.5v0.09l-2.5-0.2l-1.3,1.9l-1.8-4.4  l-2.9,1.1l2-2.5l-2.7,0.2l-8.1,3.3l-2.4,2.7l-3,1l-0.7,2.2l-0.8-3.7l-3-2l-2.2-5.4l-7.2-7.8l1.1-2l-2.6,0.5l-1.7,3.1l1.2-4.4  l0.1-2.3l-2.9,0.8l-3,3.6l1.5-2.6l-0.9-2l-1.5,1.8l-2.2-0.3l-2.1,1h-2.5l-1.9-1.4l-2.2,0.6l-1.5,1.6l-1.1,7.7l-3.2,0.4l-2.4-3.1  l-4.7-0.3l-1.2,4.5l-1.3-2.5l-2.2,1.5l-0.4-5l-2.9,0.5l-1,2.2l-3-1.6l-6.7,3.1l-2.3-2.6l-3.8,2l-2.9,0.1l-1.2,1.9l1.9,1.7l-1.6-1.4  l-2.5,1.2l1.9,1.1l-5.1-1.5l-2.1,0.8l-1.8,1.6l-0.8,2.6l2.2,0.9l-2.5,1.6l-0.6,5.3l1.5,1.8l2.7-1.2l2.7,1.2l7.5-2.9l2.3-0.1l4.4-2.2  l-7.1,4.5l0.8,2.2l2.7-0.8l2.6,0.2l-2,1.5l4.2,2l-2.2,0.5l2.8,2l3.7,0.9l-5.4-1l-2.1-3.1l-4.6,0.8l-4.9-1l-1.7-2.3l0.3,2.2l-1.3,1.8  l2.6,4.2l1.5-2.6l6.8,2.5l1.6,3.6l-0.7,2.5l-2,1.3l-1.8-1.8l-12.5,1.8l-2.2,1.3l7.5,2.2l2.1-1.4l-1.6,1.7l2.8,1.8l2.4,3.1l1.5,5.5  l-1.5,1.6l2.1,1.6l5.9,0.2l1-2.8l2.2-1l-1.3-1.9l2.4-4.3l-1.6,4.6l3.5,3.1l2.3-0.2l0.8-2.5l4.2,6.1l2.2,1l2.5-0.7v-2.7l0.3,2.7  l3-0.8l-2.2,0.7l1.2,1.9l5.5,1.2l0.8-1.4 M456.13,519.5l0.17,0.17 M456.3,519.67l-1.47,1.53l-5.2,9.3l-0.9,3.5l0.15,9.57   M461.03,476.4l-3.7,1l-3,5.3l-6.3-1.3l-0.1,8.7l-5.7-0.1 M243.55,496.5l-3.52,4.89l-2.7,1.9l-4.5,0.9l1.9,4.5l4.5-0.2l0.2,2.2  l2.4,1l2.2-2.1l2.4,1.3l2.5,0.1l1.4,2.8l-2.5,6.7l-2.1,2.2l1.3,2.2l4.3-0.1l0.7-3.4l2.3-0.1l-1.3,2.4l5.9,2.3l1.5,1.8h2.5l6.1,3.8  l5.8,0.4l2.3-1l1.4,2.1l0.3,2.8l2.7,1.3l3.9,4l2.1,0.9l1.1-2.1l2.7,2.1l3.6-1.1l2.3-2l7.8,5.5l1.1,2.5l2.1,1.7l2.2,0.9l6.9-2.1  l3.9,0.3l1.9,1.7l2.5,0.5l2.4-1.8l2.3,1.6l2.4-0.5l8.8,0.7l-0.2-7.6l1.2-2.4l18.7,5.4l1.3,2.8l10,0.6l2.8,5.9l2.4,0.8l1.3-2.1  l2.8-0.4l1.7,1.7l3.7,0.1l2,2.1l2.6,1.1l-0.78,0.9 M391.05,558.9l-2.02,2.3l2,2.1l7.5,2l1.7,4.8l1.9,1.7l4.6-2l1-2.1h3l2.5-1.4  l7,2.9l4,3.1l2.9-1l2.4,0.7l2.1-1.2l0.6-2.4l2.4-1.1l3,0.2l6.9-3.9l8.1,2.7h2.3l-1.9-3.8l-3.9-3.3l-0.25-15.63 M222.53,281.1  l3.2,1.8l2.9,4.1l-1.4-3.8l-1.9-1.2l0.5-2.2l-2.1-0.9L222.53,281.1z M456.3,519.67l0.03,0.03 M387.93,80.1l12.1,1.1l1,3l7.1,5.8  l12-2.5l-2.6,5.7l1.7,3.1l2.5-3.1l8.4,3.5l0.8-2.8l2.8,4.6l2.4-1.7l0.8,3.2l8.6-1.8 M445.53,98.2l3.5-10.6l-1.8-2.4l-3-0.4l0.7-2.7  l-3.9-5.2l3.1-1.6l-3.8-5.3l-5.9-1l1-6.1l-1.3-2.5l-1.7,2.2l-11.6-0.5l-4.1-4.2l0.6-2.8l-5.5-2.6l-6.27-12.14 M405.56,40.35  l-11.73,3.44l-6.4,5.4l0.9,5.6l-1.7,4.6l0.6,6.7l2,4.2l-1.7-1.4l-0.3,9.7l2.3,1.6l-2.9-0.7l-1.2,5.1l5.6,6l-3.5-0.3l-1.4-1.8l-2,1.2  l-3.4,6.6l-2.39,1.91 M491.13,103.44l-2.9-0.94l-0.2-2.5l3.5-3.9l-1.4-3.3l-2.6-0.2l1.4-4.7l2.1-2.4l-2.3-0.2l-5.5-6l-4.3,1.7  l-2.4-1.1l-4.6,0.3l-1.1,2.6l-1.4-1.9l-0.7-2.3l0.6-2.3l-1.8-4.4l-2.8-1l-2.2,0.7l0.5-2.2l-2.4,0.2l-2.1,1.4l-2.8-0.6l-2.1-3.5  l-1.3-5.2l-0.1-1l-3.8-7.5l-8.1,3l-0.6,2.4h-2.1l-3.1-1.5l-2.7-5.1h-3.4l-1.2-5.8l-0.6-0.8l1.6-1.9l-2.3-3.7l-1.2-4.8v0.1l-4.4,1.9  l-2.9-0.3l-7.9,2.1l-1.1,2.1l-2-0.8l-0.87,0.26 M537.43,123.27l-2.1,0.13l0.9-2.4l-2-1.7l-4.9-0.6l-2.8-3.8l-4.3-2.4l-3.3,0.9  l-1.4-1.9l-0.6-3.1l1-2.4l-3.3-4.5l0.6-5.2l1.7-1.6v-3.8l-2.8,0.2l-4,3.8l-1.1,6l-7.3,3.2l-9.8-0.4l-0.8-0.26 M405.56,40.35  l-0.03-0.06 M393.53,116.6l-3.4-8.4l-11.79-9.99 M410.03,169l-5.5-6.1l-9-3.6l-9.5-0.8 M537.43,123.27l-1.6,1.13l-2,2.7l-5.7-2.1  l-1.9,2l0.8,8.8l-3.2,5.1l1.4,2.5l-4.2,3.6 M425.83,158.5l-10.9-6.4l-2.2,1.6l-9.2-2.2l-6.3,1.8l-5.6-1.1l-1.6-3.2 M661.72,569.5  l-3.79-0.5 M393.53,116.6l-3.1,4.7l1.4,8.7l-1.3,8 M390.03,149l4-2.6l-3.5-8.4 M630.24,152.9l0.12-0.31 M615.39,249.46l0.34-0.16  l2.4,1.1l-0.3,2.5l3,1.1l3.8-1.4h2.7l1.5-1.6l-0.5-2.2l3.1-0.9l0.2-2.3l2.2-2l-0.6-3.5l-1.8-1.5l-0.1-6.7l2.2-11.1l-0.2-3.4  l-1.6-1.9v-5.3l3.2-6.3l1.2-5.5l1.5-2l-0.7-3.6l2.4-7.2l-0.3-4.9l1.4-3.3l2-1.5l7.8-10.5l2.8-9.4l-11.5-3.1l-2.4,0.6l-8.89-0.6   M661.72,569.5L661.72,569.5 M624.22,538.59v0.2h0.01 M661.72,569.5L661.72,569.5 M661.72,569.5l3.2-1.7 M537.43,123.27l0.1-0.07   M527.13,186.2l16.9,10.4l6.9-3.4l3,0.5 M630.24,152.9l-1.71,4.4l-1.4,2.6l-8.9,0.3l-9.1-4.6l-0.8-2.8l-5,10.8l5.5,2.4l-1.6,2.5  l2.3,1.7l1.3-2.5l3,0.3l4.3,3.4l-3,13.3l-2.3,1.8l-3.4-0.3 M542.03,130.4l-1.9-5.6l-1.5-1.6l-1.2,0.07 M630.24,152.9L630.24,152.9  l-3.21-1.5l-2.4-2.4l-0.5-2.1l-2.2-1.4l-5.3,4.2l-5.8,0.4l-2.5-1.9l-2.1,1.5l-1.4-3.5l-3.8-1.8l-2.6,0.2l0.3,2.4l-1.2,1.9l-4.2-0.7  v-2.3l-2.8-4.5l-3.7-3.2l0.5-2l-2.3-1.9l-3.1-3.8l-4.9,0.1l-4.5-2.3l-2.2,0.2l-2,1.2l-1,2.3l-2.3,0.5l-2.3-0.7l-1.5-2.1h-2.4  l-3.2-2.9h-6.8l-2,1.9l-4.8,1.7 M555.83,191.4l0.2-2.9l-2.5-2l1.7-2.8l-1.3-8.6l2.2-13.8l0.9-2.7l-4.9-11.5l1.5-5.9l-1.2-2.7  l-4.4-4.8l-5.3,2l-0.7-5.3 M266.93,235.5l7.2,13.3l-2.7-0.4l-1.9,2.4l8.5,3.3l0.3,5.9l-14.3,2.1l-2.9,2.2l3,0.8l3.6,4.7l0.8,2.8  l-2.8,4.5l2.8,1.4l0.4,3l10.6,3.8 M408.32,206.7l1.9-2.9l1.5,2.7l2.8-1.8l3.7,0.6l3.4-4.8l4-17.2 M418.83,172.7l-0.8-2.7l-3.2-0.5   M425.12,182.29l-2.29-2.19l-2.8,0.8l-5.1-2.1 M415.33,174.7l5.3-0.1l-1.8-1.9 M414.83,169.5l0.1-1.1l-1.3-2 M413.63,166.4l3.3-1.3  l2.6,1.1c1.6-1.1,3.2-2.2,4.7-3.3 M411.23,177.29l-7.1,5.4l-1.6,2.6l0.7,2.9l-4.6,8.6 M488.22,102.5l-16.69-4.6 M461.43,460.5  l-2,3.9l-2.8,1.1l8.4,4.1l-4.3,5.3l0.3,1.5 M408.33,206.7l-6.9,0.7 M414.83,169.5l-2.5,1.7l3,3.5 M414.93,178.79l-3.7-1.6v0.1   M410.03,169l3.6-2.6 M381.82,225.89L381.82,225.89l2.51,7.11l-1.8,3.2l1.7,5.6l3-1.3l2.4,1.5l1.1,3.8l2.9,0.6l1.9-2.3l15.2,1.6  l0.8,2.6 M462.32,191.4l3-5l-2.6-1.7l-3.5-8.3l2.6-2.2l0.4-2l-9.3-6l-3.9-4.2l0.7-2.8l-1.8-2.5 M432.72,159.5l2-2.2l2.5,1.6l8.1-2.9  l2.1-1.7l-0.5-2.8l-2.9-1.1l-2.4,1.5l-0.7-2.9l3,0.2l-2.9-4.5l2.6-1.7l2.4-5.7l2.6-1.1l-2.2-1.8l0.8-4.5l-0.4-10.2l-10.3,1.5   M448.83,100.79l-0.4,3.8l-3.9,8.1l2.3,7 M471.53,97.9L471.53,97.9 M448.83,100.79l12.6-0.6l2.6-2.2l2.3,1.7l5.2-1.8 M471.53,97.9  L471.53,97.9 M424.23,162.9l0.1-0.1l1.7-2.3l-0.2-2 M426.23,178.2l-0.3-2.9 M425.93,175.29v-0.1l-1.3-4.7l1.3-2.5l-1.7-5.1   M432.72,159.5l-6.89-1 M448.83,100.79l-3.3-2.6 M393.53,116.6l4.1,3.7l3.1-1.2l14.4,2.2l12.8,6.7l8.6-6.8 M425.93,175.29l-7.1-2.6   M337.43,165.5l-5.6-1l-7,1.7l-7.2,5.4l-2.9,0.3l-5.7-1.1l-2.6,1.7l-4.9-3l-6.4,2.3l-2.7-1.3l-0.9,2.7l-5.4,2.9 M284.83,191.5  l3.6-4.5l1.8-6.7l-4.1-4.2 M333.53,136.38l1.7-0.38l0.28-0.1 M267.33,233.29l10.5,3.5l2.1-1.9l8.7,3.6l3,0.4l5.9-2.7l5.1,1.7   M335.51,135.9h-0.08 M381.63,223.1l6-2.8l8.5-0.6l4.8-10.8l0.5-1.5 M317.43,200.1L317.43,200.1V200v-2.9l-3.3-1.6l-1.9-6l-2.7-0.2  l-0.7,2.7h-9.1l-6.7,3.3l-2.5-1.7l-2.4,1.6l-3.3-3.7 M267.33,233.29l3.6-8.6l5.5-2.2l-1.9-17.3l1.5-2.4l0.1-12.1 M267.33,233.29  l-0.4,2.2 M276.13,190.7l-5.4-2.3l-7.1,4.8l-2.7-1 M276.13,190.7l8.6,0.8h0.1 M276.43,137.7l0.1,0.8v0.1l0.5,6.6l8.4,3.1l-2,2.6  l2.2,8.2l-8.1,4.9l1.6,2.3l-4.5,5.3l1.8,2.4l9.7,2.1 M333.53,136.38V136 M352.23,212.4l-1.1-7.5l7.5-5.1l-0.5-4.6l0.2-4.5l-4.8-4.4  l-0.1-3.2 M352.23,212.4l-3.2-0.7l-3.1-3.5l-2.9,1l-7.2-5l-1.6-8.4l-2.8-1.5l-11,5.9 M353.43,183.1l-3.4-2.1l1.7-2.3l-7.8-9.5  l-6.3-0.5l-0.2-3.2 M353.43,183.1l2.4-2.6l6-1.1l5.3-3.2l2.8,1.6l6-1.3l-0.2-2.8 M352.23,212.4l2.1,3.8l-0.4,1.8l6.3-1.3l12.8,10.8  l5.5-3.5l3.29,1.89 M335.42,135.9l-1.9,0.1 M381.62,223.1l0.2,2.79 M335.64,135.1L335.64,135.1l-0.51,0.3l0.97,0.29 M337.43,165.5  l0.7-2.2l-2.3-4.1l1.4-3l-2.8-9.4l2.3-2.1h-2.9l-0.3-8.3v-0.02 M335.51,135.9l0.59-0.21 M335.51,135.9h1.52l-0.9-0.2l-0.03-0.01   M336.1,135.69l0.83-0.29l-1.29-0.3 M410.03,169l-2,3.1l3.2,5.2 M546.33,326h2.89l0.1,3l2.9-0.1l4-4.4l3.4,1.6l0.4,2.8l3.8-0.2  l5.5-3.2l5.3-7.2 M601.72,246.7l-0.2,0.1l-5.9-0.8l-0.5,2.8l-3.2,0.4l-1.8,2.2l-2.8-0.9l-5.6,1.9l-3,4.7l-22.3,10.2 M570.32,336.5  l-2.7,2.9h-2.9l0.8,9.3 M576.62,309.7l-3.1-3l3.6-7.4l2.1-2.3l-4.2-4.1l-2.9-0.5l-5.8-10.1l-3,0.8l-1.5-2.5l-2,2.1l-1.2-2.5l3-5.1  l-5.2-7.8l0,0 M603.03,397.29l-6.8,1.9l-2,2 M565.52,348.7l2.7,6.7l2.7,0.9l1.3,2.5l3,1.7l2.6-1.6l3.2,0.8l4.6,3.6l9.4-13.9l2.4,1.6  l-0.6,3l2.3,1.8l6.2,2.3l2.2-1.5l0.1-0.4 M555.83,191.4l5.8,0.6l-0.1,2.9l4.1,4.8l5.7-0.7l1.1-2.8l5.4-2l2.4,1.8l6-1l5.3-3.8  l1.6,2.7l6.09,1.6 M573.63,484.9l2.7-1.8l4,4.8l10.1-8.5l5.9,3.6l1.2-3.5l9.8-0.4 M601.52,231.2l-2.3,5.7l1.1,4.3l1.4,5.5   M599.22,195.5L599.22,195.5 M601.52,231.2l-8.4-6.6l-5.1,2.2l-4.9-3.6l-5.8,1.6l-7-4.3 M599.23,195.5L599.23,195.5 M543.12,503.9  l0.4-0.1l2-1.8v-2.5l-2.5,1.2l-2.2-2.6l-4.2-2.5l-0.9,2.7v0.2l0.4,2.4l2.1,1.4l0.3,2.5L543.12,503.9 M501.22,502.5l3.1-4.9l5.8-1.8  l-1-2.7l4.2-4.8l3.3,0.9l1.9-10.6 M522.43,474.5L522.43,474.5l4.49-5l-6.3-6.4l-0.2-5.5l-2.6-4.4v-0.01 M522.43,474.5l-3.9,4.1   M488.83,442.29l2.7,5.9l7.8,5l7.1-4.3l0.1,3.1l2.5-2.3h2.8l5.99,3.49 M522.43,474.5L522.43,474.5 M498.63,492.5l-1.5-3l-6.1-6.7  l-3-0.2l-0.2-3l-6.8-1.4l0.9-2.7l-1.9-2.6l-3.9,0.6l-4.2,3.9l-0.1,2.8l-5.3-2.5l-2.2,1.7l-0.4-2.9l-2.9-0.1 M558.33,129.9l2.5,9.4  l2.5,1.6l1.2,3.6l-1.7,3.1l1,5.6l-2.8,0.1l4.3,7.5l11.5,4l-0.3,2.9l2.7,5.1l8.5,1.5l5.3,3.9l14.4,5.3l2,2.7 M484.43,137.7  L484.43,137.7l-0.3-14.3l2.7-0.3l5-7.2l-1.3-3.1l1.3-3.5l-0.7-5.86 M573.62,484.9l-5.3-0.2l-0.1,0.4 M543.12,503.9l-0.5,0.9   M522.43,474.5l10.39,2.9l5.5,5.7l4.5,2.3l3.5-0.7l12,4.8l3.2-0.2l6.6-4.3l0.1,0.1 M617.92,424.89l-0.2,0.3l-6,3.3l-9,10.2  l-11.1-3.3l-3.8,4.2l-0.7,3.8l-3.5-4.5l-3.3,0.7l-5.3,4l-1.4,8.6l-3.9-1.1l3.4,4.9l-3.8-1l-5.9,1.4 M566.02,517.59l0.2-2.1l2.5-2  l-2.2-6.3l1.1-2.6l2.7-0.5l-5.5-9.1l2-5.3l3.3-0.8l-1.9-3.8 M527.12,186.2l-3.4-5.2 M615.22,249.5L615.22,249.5 M553.93,193.7  L553.93,193.7 M553.93,193.7L553.93,193.7 M513.42,222.29l3.5,0.7l0.5,2.7l2.6,1l-0.3,2.9l2.9,0.3l1.8,2.2l1,3.1l-2.8,2.4l2.3,4.8  l9.2,2l3,1.6v2.8l4.8-1.9l1.2-2.5l6.6-3.9l2.1,1.8l3.2-1l0.3-8.3l2-2.4l2.9,0.3l2.3-3.2l-0.2-1.4v-0.1l-1.3-2.5l-2.7,1.1l-0.2-3.1  l-5.5-4.7l1.7-8.6l-12.7-9.5l2.4-2.3 M609.43,186.2l1.9,1.3l-1.3,10l5.2,2.2l3.1,0.2l8.5,5.6l0.3,2.8l4.2,2 M553.93,193.7l1.9-2.3   M491.13,138.6l9.8,6.6l20.09,1.9 M521.02,147.1V147 M521.02,147.1L521.02,147.1 M523.22,156.1l-1,4.1l2.6,1.3l-0.6,3.9l-3.1,1.1  l-1.1,5.8l3.2,4.6l0.5,4.1 M523.22,156.1l-2.2-9l0,0 M615.39,249.46l-0.06-0.06l-2-5l-2.8,0.2l-0.5-9l-7.6-5 M612.44,249.89  l-1.11-0.39l-3.15,4.29 M608.18,253.79l0.54-0.59l2.8-3.2 M611.32,187.5l-1.5,0.4l-10.6,7.6 M608.18,253.79l-0.46,0.51l-1.4-2.4  l1.4-2.5l-5.9-2.7h-0.1 M611.53,250l0.8-0.1l0.11-0.01 M601.52,231.2l0.9-0.6l2.8-2.4V222l4.8-7.8l4.1-13.5l1.1-1 M612.44,249.89  l1.19,0.41l1.68-0.8 M615.31,249.5l0.08-0.04 M615.42,249.5h-0.11 M615.23,249.5l-2.79,0.39 M615.39,249.46l0.04,0.04 M615.23,249.5  h0.08" />
<path
   fill="#E8A000"
   d="M322.68,40.35h1.48V52.5h-1.58l-3.85-6.16c-0.85-1.35-1.66-2.74-2.25-4.05l-0.05,0.02  c0.09,1.53,0.11,2.99,0.11,5.01v5.19l-1.49-0.01V40.36h1.73l3.87,6.14c0.88,1.42,1.6,2.68,2.16,3.94l0.05-0.02  c-0.14-1.62-0.18-3.1-0.18-4.97V40.35z M334.71,48.06c0,3.24-2.25,4.65-4.32,4.65l-0.02-0.01c-2.34,0-4.18-1.73-4.18-4.48  c0-2.92,1.93-4.63,4.32-4.63C333.01,43.59,334.71,45.41,334.71,48.06z M333.07,48.11c0-1.48-0.74-3.33-2.61-3.33  c-1.85,0-2.67,1.73-2.67,3.38c0,1.91,1.08,3.35,2.61,3.35h0.02C331.93,51.51,333.07,50.09,333.07,48.11z M338.29,52.5v-4.65  c0-0.27,0.01-0.53,0.05-0.76c0.21-1.17,1-2.02,2.12-2.02c0.22,0,0.38,0.02,0.56,0.04v-1.48c-0.14-0.03-0.27-0.05-0.43-0.05  c-1.06,0-2.03,0.74-2.43,1.91h-0.05l-0.07-1.71h-1.39c0.05,0.81,0.07,1.69,0.07,2.72l-0.01,6H338.29z M341.85,48.27  c-0.02-2.92,1.8-4.68,3.91-4.68c1.35,0,2.25,0.63,2.63,1.31h0.04v-5.19l1.58,0.01v10.53c0,0.77,0.02,1.66,0.07,2.25h-1.42  l-0.07-1.51h-0.04c-0.49,0.97-1.53,1.71-2.95,1.71C343.49,52.7,341.85,50.92,341.85,48.27z M343.45,48.18  c0,1.78,0.88,3.24,2.57,3.24c1.06,0,2.03-0.72,2.32-1.89c0.05-0.22,0.07-0.43,0.07-0.68l0.01-1.52c0-0.22-0.02-0.47-0.07-0.68  c-0.23-0.99-1.1-1.82-2.29-1.82C344.42,44.83,343.45,46.27,343.45,48.18z M292.81,62.89c0.67,0.58,1.08,1.46,1.08,2.54  c0,1.1-0.32,1.96-0.95,2.59c-0.83,0.88-2.18,1.33-3.71,1.33c-0.47,0-0.9-0.02-1.26-0.11v4.86h-1.57V62.13  c0.76-0.14,1.75-0.25,3.01-0.25C290.96,61.88,292.09,62.24,292.81,62.89z M292.31,65.52c0-1.62-1.13-2.4-2.86-2.4  c-0.68,0-1.21,0.07-1.48,0.13v4.71c0.34,0.09,0.79,0.13,1.3,0.13C291.18,68.09,292.31,67.15,292.31,65.52z M301.6,72.01  c0,0.76,0.04,1.49,0.13,2.09h-1.42l-0.14-1.1h-0.05c-0.47,0.68-1.42,1.3-2.67,1.3c-1.76,0-2.66-1.24-2.66-2.5  c0-2.11,1.87-3.26,5.24-3.24v-0.18c0-0.72-0.2-2.03-1.98-2.02c-0.83,0-1.67,0.23-2.29,0.65l-0.36-1.06  c0.72-0.45,1.78-0.76,2.88-0.76c2.68,0,3.33,1.82,3.33,3.56L301.6,72.01z M300.05,69.65c-1.73-0.04-3.69,0.27-3.69,1.96  c0,1.04,0.68,1.51,1.48,1.51c1.15,0,1.89-0.72,2.14-1.46c0.05-0.16,0.07-0.34,0.07-0.5V69.65z M306.95,69.03  c-1.14-0.43-1.64-0.75-1.64-1.49c0-0.65,0.5-1.19,1.44-1.19c0.81,0,1.44,0.3,1.78,0.5l0.38-1.13c-0.46-0.31-1.24-0.54-2.12-0.54  c-1.86,0-3.01,1.16-3.01,2.56c0,1.05,0.74,1.89,2.32,2.47c1.15,0.43,1.6,0.84,1.6,1.6c0,0.74-0.54,1.3-1.67,1.3  c-0.8,0-1.62-0.32-2.11-0.61l-0.37,1.18c0.61,0.36,1.5,0.61,2.45,0.61c2.03,0,3.24-1.08,3.24-2.63  C309.24,70.34,308.44,69.59,306.95,69.03z M322.6,71.85c0,0.77,0.02,1.66,0.07,2.25h-1.42l-0.07-1.51h-0.04  c-0.49,0.97-1.53,1.71-2.95,1.71c-2.11,0-3.75-1.78-3.75-4.43c-0.02-2.92,1.8-4.68,3.91-4.68c1.35,0,2.25,0.63,2.63,1.31h0.04v-5.19  l1.58,0.01V71.85z M321.02,68.93c0-0.22-0.02-0.47-0.07-0.68c-0.23-0.99-1.1-1.82-2.29-1.82c-1.64,0-2.61,1.44-2.61,3.35  c0,1.78,0.88,3.24,2.57,3.24c1.06,0,2.03-0.72,2.32-1.89c0.05-0.22,0.07-0.43,0.07-0.68L321.02,68.93z M332.28,69.27  c0,0.32-0.02,0.58-0.05,0.76l-6.1-0.02c0.04,2.14,1.39,3.02,2.97,3.02c1.13,0,1.84-0.2,2.41-0.43l0.29,1.12  c-0.56,0.25-1.53,0.56-2.92,0.56c-2.67,0-4.29-1.78-4.29-4.39c0-2.65,1.57-4.72,4.11-4.72C331.54,65.17,332.28,67.67,332.28,69.27z   M330.76,68.88c0.02-0.99-0.41-2.57-2.18-2.57c-1.62,0-2.3,1.48-2.43,2.57H330.76z M343.78,63.09c1.01,0,1.85,0.21,2.43,0.5  l0.4-1.28c-0.41-0.22-1.39-0.54-2.88-0.54c-3.76,0-6.34,2.55-6.34,6.37c0,4,2.56,6.16,5.98,6.16c1.48,0,2.65-0.29,3.21-0.58  l-0.32-1.24c-0.63,0.3-1.6,0.5-2.57,0.5c-2.94,0-4.65-1.89-4.65-4.88C339.04,64.91,340.94,63.09,343.78,63.09z M354.52,72.01  c0,0.76,0.04,1.49,0.13,2.09h-1.42l-0.14-1.1h-0.05c-0.47,0.68-1.42,1.3-2.67,1.3c-1.76,0-2.66-1.24-2.66-2.5  c0-2.11,1.87-3.26,5.24-3.24v-0.18c0-0.72-0.2-2.03-1.98-2.02c-0.83,0-1.67,0.23-2.29,0.65l-0.36-1.06  c0.72-0.45,1.78-0.76,2.88-0.76c2.68,0,3.33,1.82,3.33,3.56L354.52,72.01z M352.97,69.65c-1.73-0.04-3.69,0.27-3.69,1.96  c0,1.04,0.68,1.51,1.48,1.51c1.15,0,1.89-0.72,2.14-1.46c0.05-0.16,0.07-0.34,0.07-0.5V69.65z M357.05,74.1h1.58V61.32h-1.58V74.1z   M367.41,72.01c0,0.76,0.04,1.49,0.13,2.09h-1.42l-0.14-1.1h-0.05c-0.47,0.68-1.42,1.3-2.67,1.3c-1.76,0-2.66-1.24-2.66-2.5  c0-2.11,1.87-3.26,5.24-3.24v-0.18c0-0.72-0.2-2.03-1.98-2.02c-0.83,0-1.67,0.23-2.29,0.65l-0.36-1.06  c0.72-0.45,1.78-0.76,2.88-0.76c2.68,0,3.33,1.82,3.33,3.56L367.41,72.01z M365.86,69.65c-1.73-0.04-3.69,0.27-3.69,1.96  c0,1.04,0.68,1.51,1.48,1.51c1.15,0,1.89-0.72,2.14-1.46c0.05-0.16,0.07-0.34,0.07-0.5V69.65z M370.74,61.74  c-0.62,0-1.03,0.45-1.03,1.01s0.4,1.03,0.99,1.03h0.02c0.63,0,1.03-0.47,1.03-1.03S371.35,61.74,370.74,61.74z M369.94,74.1h1.58  v-8.71h-1.58V74.1z M376.97,69.03c-1.14-0.43-1.64-0.75-1.64-1.49c0-0.65,0.5-1.19,1.44-1.19c0.81,0,1.44,0.3,1.78,0.5l0.38-1.13  c-0.46-0.31-1.24-0.54-2.12-0.54c-1.86,0-3.01,1.16-3.01,2.56c0,1.05,0.74,1.89,2.32,2.47c1.15,0.43,1.6,0.84,1.6,1.6  c0,0.74-0.54,1.3-1.67,1.3c-0.8,0-1.62-0.32-2.11-0.61l-0.37,1.18c0.61,0.36,1.5,0.61,2.45,0.61c2.03,0,3.24-1.08,3.24-2.63  C379.26,70.34,378.46,69.59,376.97,69.03z"
   id="path13" />
<path
   fill="#4096EE"
   d="M530.57,84.18c0,1.87-1.37,3.51-4.23,3.51c-1.17,0-2.45-0.36-3.1-0.79l0.43-1.31  c0.7,0.45,1.71,0.79,2.79,0.79c1.6,0,2.54-0.83,2.54-2.07c0-1.12-0.65-1.78-2.29-2.39c-1.98-0.72-3.21-1.76-3.21-3.46  c0-1.89,1.57-3.29,3.92-3.29c1.22,0,2.14,0.29,2.67,0.59l-0.43,1.28c-0.38-0.23-1.19-0.58-2.29-0.58c-1.66,0-2.29,0.99-2.29,1.82  c0,1.13,0.74,1.69,2.41,2.34C529.54,81.43,530.57,82.4,530.57,84.18z M536.45,87.68c-2.67,0-4.29-1.78-4.29-4.39  c0-2.65,1.57-4.72,4.11-4.72c2.85,0,3.58,2.5,3.58,4.11c0,0.32-0.02,0.58-0.05,0.76l-6.1-0.03c0.04,2.14,1.39,3.02,2.97,3.02  c1.13,0,1.84-0.2,2.41-0.43l0.29,1.12C538.81,87.37,537.84,87.68,536.45,87.68z M533.71,82.28h4.61c0.02-0.99-0.41-2.57-2.18-2.57  C534.52,79.71,533.84,81.19,533.71,82.28z M541.81,87.5h1.58v-8.71h-1.58V87.5z M542.61,75.14c-0.62,0-1.03,0.45-1.03,1.01  s0.4,1.03,0.99,1.03h0.02c0.63,0,1.03-0.47,1.03-1.03S543.23,75.14,542.61,75.14z M550.38,78.58c-1.44,0-2.45,0.81-2.88,1.62h-0.04  l-0.09-1.42h-1.41c0.05,0.72,0.07,1.44,0.07,2.36h0.02v6.36h1.58v-5.26c0-0.25,0.04-0.54,0.11-0.74c0.28-0.88,1.09-1.62,2.12-1.62  c1.5,0,2.02,1.19,2.02,2.59v5.02h1.58v-5.2C553.46,79.3,551.59,78.58,550.38,78.58z M563.07,82.68c0,0.32-0.02,0.58-0.05,0.76  l-6.1-0.03c0.04,2.14,1.39,3.02,2.97,3.02c1.13,0,1.84-0.2,2.41-0.43l0.29,1.12c-0.56,0.25-1.53,0.56-2.92,0.56  c-2.67,0-4.29-1.78-4.29-4.39c0-2.65,1.57-4.72,4.11-4.72C562.33,78.57,563.07,81.07,563.07,82.68z M561.54,82.28  c0.02-0.99-0.41-2.57-2.18-2.57c-1.62,0-2.3,1.48-2.43,2.57H561.54z M572.52,82.06h-4.45v1.15h4.45V82.06z M579.81,87.5h-1.57  l0.01-11.97c0.76-0.14,1.75-0.25,3.01-0.25c1.55,0,2.68,0.36,3.4,1.01c0.67,0.58,1.08,1.46,1.08,2.54c0,1.1-0.32,1.96-0.96,2.59  c-0.83,0.88-2.18,1.33-3.71,1.33c-0.47,0-0.9-0.02-1.26-0.11V87.5z M579.81,81.36c0.34,0.09,0.79,0.13,1.3,0.13  c1.91,0,3.04-0.94,3.04-2.57c0-1.62-1.13-2.4-2.86-2.4c-0.68,0-1.21,0.07-1.48,0.13V81.36z M588.44,77.18h0.02  c0.63,0,1.03-0.47,1.03-1.03s-0.39-1.01-1.01-1.01c-0.62,0-1.03,0.45-1.03,1.01S587.85,77.18,588.44,77.18z M589.26,78.79h-1.58  v8.71h1.58V78.79z M597.84,86c-0.46,0.19-1.05,0.41-1.95,0.41c-1.73,0-3.03-1.24-3.03-3.26c0-1.82,1.08-3.31,3.08-3.31  c0.87,0,1.46,0.21,1.84,0.41l0.36-1.21c-0.44-0.24-1.26-0.47-2.2-0.47c-2.84,0-4.68,1.97-4.68,4.65c0,2.69,1.71,4.47,4.34,4.47  c1.17,0,2.09-0.3,2.5-0.5L597.84,86z M606.11,85.41c0,0.76,0.04,1.49,0.12,2.09h-1.42l-0.14-1.1h-0.05c-0.47,0.68-1.42,1.3-2.67,1.3  c-1.76,0-2.66-1.24-2.66-2.5c0-2.11,1.87-3.26,5.24-3.24v-0.18c0-0.72-0.2-2.03-1.98-2.02c-0.83,0-1.67,0.23-2.29,0.65l-0.36-1.06  c0.72-0.45,1.78-0.76,2.88-0.76c2.68,0,3.33,1.82,3.33,3.56V85.41z M604.56,83.05c-1.73-0.04-3.69,0.27-3.69,1.96  c0,1.04,0.68,1.51,1.48,1.51c1.15,0,1.89-0.72,2.14-1.46c0.05-0.16,0.07-0.34,0.07-0.5V83.05z M608.66,87.5h1.58v-4.65  c0-0.27,0.01-0.53,0.05-0.76c0.21-1.17,1-2.02,2.12-2.02c0.22,0,0.38,0.02,0.56,0.04v-1.48c-0.14-0.03-0.27-0.05-0.43-0.05  c-1.06,0-2.03,0.74-2.43,1.91h-0.05l-0.07-1.71h-1.39c0.05,0.81,0.07,1.69,0.07,2.72L608.66,87.5z M613.8,83.27  c-0.02-2.92,1.8-4.68,3.91-4.68c1.35,0,2.25,0.63,2.63,1.31h0.04v-5.19l1.58,0.01v10.53c0,0.77,0.02,1.66,0.07,2.25h-1.42  l-0.07-1.51h-0.04c-0.49,0.97-1.53,1.71-2.95,1.71C615.44,87.7,613.8,85.92,613.8,83.27z M615.4,83.18c0,1.78,0.88,3.24,2.57,3.24  c1.06,0,2.04-0.72,2.32-1.89c0.05-0.22,0.07-0.43,0.07-0.68l0.01-1.52c0-0.22-0.02-0.47-0.07-0.68c-0.23-0.99-1.1-1.82-2.29-1.82  C616.37,79.83,615.4,81.27,615.4,83.18z M624.58,87.5h1.58v-8.71h-1.58V87.5z M625.38,75.14c-0.62,0-1.03,0.45-1.03,1.01  s0.4,1.03,0.99,1.03h0.02c0.63,0,1.03-0.47,1.03-1.03S625.99,75.14,625.38,75.14z M635.79,83.44l-6.1-0.03  c0.04,2.14,1.39,3.02,2.97,3.02c1.13,0,1.84-0.2,2.41-0.43l0.29,1.12c-0.56,0.25-1.53,0.56-2.92,0.56c-2.67,0-4.29-1.78-4.29-4.39  c0-2.65,1.57-4.72,4.11-4.72c2.84,0,3.58,2.5,3.58,4.11C635.84,83,635.82,83.26,635.79,83.44z M634.32,82.28  c0.02-0.99-0.42-2.57-2.18-2.57c-1.62,0-2.3,1.48-2.43,2.57H634.32z M540.5,98.09c1.01,0,1.85,0.21,2.43,0.5l0.4-1.28  c-0.41-0.22-1.38-0.54-2.88-0.54c-3.76,0-6.34,2.55-6.34,6.37c0,4,2.56,6.16,5.98,6.16c1.48,0,2.65-0.29,3.21-0.58l-0.31-1.24  c-0.63,0.3-1.61,0.5-2.58,0.5c-2.93,0-4.64-1.89-4.64-4.88C535.77,99.91,537.66,98.09,540.5,98.09z M549.55,100.19  c-0.59,0-1.15,0.16-1.62,0.45c-0.48,0.26-0.88,0.67-1.13,1.12h-0.04v-5.44h-1.58v12.79h1.58v-5.26c0-0.31,0.02-0.54,0.11-0.76  c0.3-0.86,1.09-1.58,2.12-1.58c1.5,0,2.02,1.17,2.02,2.59v5.01h1.58v-5.19C552.59,100.91,550.72,100.19,549.55,100.19z   M561.3,107.01c0,0.76,0.04,1.49,0.13,2.09h-1.42l-0.14-1.1h-0.05c-0.47,0.68-1.42,1.3-2.66,1.3c-1.77,0-2.67-1.24-2.67-2.5  c0-2.11,1.87-3.26,5.24-3.24v-0.18c0-0.72-0.2-2.03-1.98-2.02c-0.83,0-1.67,0.23-2.29,0.65l-0.36-1.06  c0.72-0.45,1.78-0.76,2.88-0.76c2.68,0,3.33,1.82,3.33,3.56v3.26H561.3z M559.76,104.65c-1.73-0.04-3.69,0.27-3.69,1.96  c0,1.04,0.68,1.51,1.48,1.51c1.15,0,1.89-0.72,2.14-1.46c0.05-0.16,0.07-0.34,0.07-0.5V104.65z M573.43,100.19  c-0.83,0-1.39,0.21-1.91,0.61c-0.36,0.27-0.72,0.63-0.99,1.13h-0.04c-0.38-1.03-1.28-1.75-2.45-1.75c-1.46,0-2.27,0.77-2.76,1.6  h-0.05l-0.07-1.4h-1.39c0.03,0.72,0.07,1.44,0.07,2.36l0.01,6.36h1.55v-5.26c0-0.27,0.04-0.54,0.13-0.77  c0.25-0.79,0.99-1.58,1.96-1.58c1.21,0,1.82,0.99,1.82,2.39v5.22h1.55v-5.4c0-0.27,0.05-0.56,0.12-0.79  c0.29-0.75,0.97-1.42,1.89-1.42c1.26,0,1.89,0.99,1.89,2.68v4.93h1.55v-5.13C576.31,100.95,574.6,100.19,573.43,100.19z   M587.12,104.62c0,3.13-1.93,4.68-3.96,4.68c-1.17,0-2.16-0.5-2.68-1.37h-0.04v4.74h-1.58v-9.44h-0.01c0-1.12-0.02-2.02-0.07-2.84  h1.42l0.09,1.49h0.04c0.63-1.08,1.67-1.69,3.08-1.69C585.53,100.19,587.12,101.97,587.12,104.62z M585.52,104.68  c0-1.75-0.9-3.24-2.58-3.24c-1.08,0-2.11,0.76-2.41,1.94c-0.04,0.22-0.09,0.45-0.09,0.65v1.52c0,0.22,0.02,0.45,0.07,0.65  c0.27,1.1,1.24,1.85,2.36,1.85C584.54,108.05,585.52,106.68,585.52,104.68z M595.23,107.01c0,0.76,0.04,1.49,0.13,2.09h-1.42  l-0.14-1.1h-0.05c-0.47,0.68-1.42,1.3-2.66,1.3c-1.77,0-2.67-1.24-2.67-2.5c0-2.11,1.87-3.26,5.24-3.24v-0.18  c0-0.72-0.2-2.03-1.98-2.02c-0.83,0-1.67,0.23-2.29,0.65l-0.36-1.06c0.72-0.45,1.78-0.76,2.88-0.76c2.68,0,3.33,1.82,3.33,3.56  L595.23,107.01z M593.69,104.65c-1.73-0.04-3.69,0.27-3.69,1.96c0,1.04,0.68,1.51,1.48,1.51c1.15,0,1.89-0.72,2.14-1.46  c0.05-0.16,0.07-0.34,0.07-0.5V104.65z M603.89,100.38h1.4c-0.05,0.61-0.07,1.31-0.07,2.38v5.06c0,2.02-0.41,3.22-1.24,4  c-0.86,0.77-2.09,1.04-3.19,1.04c-1.04,0-2.2-0.25-2.9-0.72l0.4-1.22c0.58,0.38,1.48,0.7,2.56,0.7c1.62,0,2.81-0.85,2.81-3.06v-0.95  h-0.04c-0.47,0.81-1.42,1.46-2.77,1.46c-2.16,0-3.71-1.84-3.71-4.27c0-2.95,1.93-4.61,3.94-4.61c1.51,0,2.32,0.77,2.72,1.49h0.04  L603.89,100.38z M603.66,103.81h-0.02c0-0.25-0.02-0.49-0.09-0.7c-0.29-0.94-1.04-1.69-2.21-1.69c-1.51,0-2.59,1.28-2.59,3.31  c0,1.69,0.88,3.13,2.58,3.13c0.99,0,1.87-0.61,2.2-1.64c0.09-0.25,0.13-0.56,0.13-0.85V103.81z M612.18,100.18  c-1.44,0-2.45,0.81-2.88,1.62h-0.04l-0.09-1.42h-1.41c0.05,0.72,0.07,1.44,0.07,2.36h0.02v6.36h1.58v-5.26  c0-0.25,0.04-0.54,0.11-0.74c0.28-0.88,1.09-1.62,2.12-1.62c1.5,0,2.02,1.19,2.02,2.59v5.02h1.58v-5.2  C615.26,100.9,613.39,100.18,612.18,100.18z M624.87,104.27c0,0.32-0.02,0.58-0.05,0.76l-6.1-0.02c0.04,2.14,1.39,3.02,2.97,3.02  c1.13,0,1.84-0.2,2.41-0.43l0.29,1.12c-0.56,0.25-1.53,0.56-2.92,0.56c-2.67,0-4.29-1.78-4.29-4.39c0-2.65,1.57-4.72,4.11-4.72  C624.13,100.17,624.87,102.67,624.87,104.27z M623.35,103.88c0.02-0.99-0.42-2.57-2.18-2.57c-1.62,0-2.3,1.48-2.43,2.57H623.35z"
   id="path15" />
<path
   fill="#A8932A"
   d="M658.45,195.19h5.26v1.31h-6.84v-12.14h6.57v1.31h-4.99v3.83h4.7v1.31h-4.7V195.19z M668.53,191.43  c-1.14-0.43-1.64-0.75-1.64-1.49c0-0.65,0.5-1.19,1.44-1.19c0.81,0,1.44,0.3,1.78,0.5l0.38-1.13c-0.46-0.31-1.24-0.54-2.12-0.54  c-1.86,0-3.01,1.16-3.01,2.56c0,1.05,0.74,1.89,2.32,2.47c1.15,0.43,1.6,0.84,1.6,1.6c0,0.74-0.54,1.3-1.67,1.3  c-0.8,0-1.62-0.32-2.11-0.61l-0.37,1.18c0.61,0.36,1.49,0.61,2.45,0.61c2.03,0,3.24-1.08,3.24-2.63  C670.82,192.74,670.03,191.99,668.53,191.43z M677.02,189v-1.21h-2.27v-2.09l-1.55,0.49v1.6h-1.35V189h1.35v4.75  c0,1.03,0.18,1.8,0.61,2.29c0.38,0.42,0.97,0.67,1.71,0.67c0.62,0,1.1-0.11,1.41-0.22l-0.07-1.21c-0.23,0.07-0.49,0.11-0.92,0.11  c-0.88,0-1.19-0.61-1.19-1.69V189H677.02z"
   id="path17" />
<path
   fill="#FF4D4D"
   d="M638.53,416.19c0,1.87-1.37,3.51-4.23,3.51c-1.17,0-2.45-0.36-3.1-0.79l0.43-1.32  c0.7,0.45,1.71,0.79,2.79,0.79c1.6,0,2.54-0.83,2.54-2.07c0-1.12-0.65-1.78-2.29-2.39c-1.98-0.72-3.21-1.76-3.21-3.46  c0-1.89,1.57-3.29,3.93-3.29c1.22,0,2.14,0.29,2.66,0.59l-0.43,1.28c-0.38-0.23-1.19-0.58-2.29-0.58c-1.66,0-2.29,0.99-2.29,1.82  c0,1.13,0.74,1.69,2.41,2.34C637.5,413.43,638.53,414.4,638.53,416.19z M647.93,417.12v-6.34h-1.58v5.33c0,0.31-0.05,0.59-0.14,0.81  c-0.29,0.72-1.03,1.46-2.09,1.46c-1.43,0-1.95-1.13-1.95-2.79v-4.81h-1.58v5.1c0,3.05,1.64,3.82,3.01,3.82  c1.55,0,2.48-0.92,2.88-1.62h0.04l0.09,1.42h1.4c-0.05-0.69-0.07-1.48-0.07-2.38H647.93z M658.09,417.25c0,0.77,0.02,1.66,0.07,2.25  h-1.42l-0.07-1.51h-0.04c-0.49,0.97-1.53,1.71-2.95,1.71c-2.11,0-3.74-1.78-3.74-4.43c-0.02-2.92,1.8-4.68,3.91-4.68  c1.35,0,2.25,0.63,2.63,1.31h0.04v-5.19l1.57,0.01V417.25z M656.51,414.33c0-0.22-0.02-0.47-0.07-0.68  c-0.23-0.99-1.1-1.82-2.29-1.82c-1.64,0-2.61,1.44-2.61,3.35c0,1.78,0.88,3.24,2.58,3.24c1.06,0,2.03-0.72,2.32-1.89  c0.05-0.22,0.07-0.43,0.07-0.68V414.33z M663.76,415.21h4.45v-1.15h-4.45V415.21z M675.5,413.81h4.7v-1.31h-4.7v-3.83h4.99v-1.31  h-6.57v12.14h6.84v-1.31h-5.26V413.81z M685.58,414.43c-1.14-0.43-1.64-0.75-1.64-1.49c0-0.65,0.5-1.19,1.44-1.19  c0.81,0,1.44,0.3,1.78,0.5l0.38-1.13c-0.46-0.31-1.24-0.54-2.12-0.54c-1.86,0-3.01,1.16-3.01,2.56c0,1.05,0.74,1.89,2.32,2.47  c1.15,0.43,1.6,0.84,1.6,1.6c0,0.74-0.54,1.3-1.67,1.3c-0.8,0-1.62-0.32-2.11-0.61l-0.37,1.18c0.61,0.36,1.5,0.61,2.45,0.61  c2.03,0,3.24-1.08,3.24-2.63C687.87,415.74,687.07,414.99,685.58,414.43z M694.07,412v-1.21h-2.27v-2.09l-1.54,0.49v1.6h-1.35V412  h1.35v4.75c0,1.03,0.18,1.8,0.61,2.29c0.38,0.42,0.97,0.67,1.71,0.67c0.61,0,1.09-0.11,1.4-0.22l-0.07-1.21  c-0.24,0.07-0.49,0.11-0.92,0.11c-0.88,0-1.19-0.61-1.19-1.69V412H694.07z"
   id="path19" />
<path
   fill="#CE63A6"
   d="M224.05,363.49h-6.77v-12.13h1.58v10.82h5.19V363.49z M224.86,359.22c0-2.92,1.93-4.63,4.32-4.63  c2.5,0,4.2,1.82,4.2,4.46c0,3.24-2.25,4.65-4.32,4.65h-0.02C226.7,363.7,224.86,361.97,224.86,359.22z M226.46,359.16  c0,1.91,1.08,3.35,2.61,3.35h0.02c1.51,0,2.65-1.42,2.65-3.4c0-1.48-0.74-3.33-2.61-3.33C227.28,355.78,226.46,357.51,226.46,359.16  z M236.13,353.18h0.02c0.63,0,1.03-0.47,1.03-1.03s-0.4-1.01-1.01-1.01c-0.62,0-1.03,0.45-1.03,1.01S235.54,353.18,236.13,353.18z   M235.37,363.5h1.58v-8.71h-1.58V363.5z M241.17,363.5v-4.65c0-0.27,0.01-0.53,0.05-0.76c0.21-1.17,1-2.02,2.12-2.02  c0.22,0,0.38,0.02,0.56,0.04v-1.48c-0.14-0.03-0.27-0.05-0.43-0.05c-1.06,0-2.03,0.74-2.43,1.91h-0.05l-0.07-1.71h-1.39  c0.05,0.81,0.07,1.69,0.07,2.72l-0.01,6H241.17z M251.94,363.13c-0.56,0.25-1.53,0.56-2.92,0.56c-2.67,0-4.29-1.78-4.29-4.39  c0-2.65,1.57-4.72,4.11-4.72c2.84,0,3.58,2.5,3.58,4.11c0,0.32-0.02,0.58-0.05,0.76l-6.1-0.04c0.04,2.14,1.39,3.03,2.97,3.03  c1.13,0,1.84-0.2,2.41-0.43L251.94,363.13z M246.28,358.28h4.61c0.02-0.99-0.41-2.58-2.18-2.58  C247.09,355.7,246.41,357.18,246.28,358.28z M222.11,378.91c0,4.16-2.54,6.39-5.62,6.39h-0.01c-3.22,0-5.46-2.49-5.46-6.16  c0-3.85,2.38-6.37,5.62-6.37C219.97,372.77,222.11,375.31,222.11,378.91z M220.44,378.98c0-2.41-1.26-4.93-3.87-4.93  c-2.61,0-3.91,2.43-3.91,5.06c0,2.56,1.4,4.92,3.87,4.92h0.02v-0.01C219.03,384.02,220.44,381.73,220.44,378.98z M228.25,377.44  c0.87,0,1.46,0.21,1.84,0.41l0.36-1.21c-0.44-0.24-1.26-0.47-2.2-0.47c-2.84,0-4.68,1.96-4.68,4.65s1.71,4.47,4.34,4.47  c1.17,0,2.09-0.3,2.5-0.5l-0.28-1.19c-0.45,0.19-1.04,0.41-1.94,0.41c-1.72,0-3.02-1.24-3.02-3.26  C225.17,378.94,226.25,377.44,228.25,377.44z M238.16,372.75h-1.74l-1.58,2.58h1.12L238.16,372.75z M239.31,380.27  c0,0.32-0.02,0.58-0.05,0.76l-6.1-0.02c0.04,2.14,1.39,3.02,2.97,3.02c1.13,0,1.84-0.2,2.41-0.43l0.29,1.12  c-0.56,0.25-1.53,0.56-2.92,0.56c-2.66,0-4.29-1.78-4.29-4.39c0-2.65,1.57-4.72,4.11-4.72  C238.57,376.17,239.31,378.67,239.31,380.27z M237.79,379.88c0.02-0.99-0.41-2.58-2.18-2.58c-1.62,0-2.3,1.48-2.43,2.58H237.79z   M247.42,383.01c0,0.76,0.04,1.49,0.13,2.09h-1.42l-0.14-1.1h-0.05c-0.47,0.68-1.42,1.3-2.67,1.3c-1.76,0-2.66-1.24-2.66-2.5  c0-2.11,1.87-3.26,5.24-3.24v-0.18c0-0.72-0.2-2.04-1.98-2.02c-0.83,0-1.67,0.23-2.29,0.65l-0.36-1.06  c0.72-0.45,1.78-0.76,2.88-0.76c2.68,0,3.33,1.82,3.33,3.56v3.26H247.42z M245.87,380.65c-1.73-0.04-3.69,0.27-3.69,1.96  c0,1.04,0.68,1.51,1.48,1.51c1.15,0,1.89-0.72,2.14-1.46c0.05-0.16,0.07-0.34,0.07-0.5V380.65z M254.29,376.18  c-1.44,0-2.45,0.81-2.88,1.62h-0.04l-0.09-1.42h-1.4c0.05,0.72,0.07,1.44,0.07,2.36l0.01,6.36h1.58v-5.26  c0-0.25,0.04-0.54,0.11-0.74c0.28-0.88,1.09-1.62,2.12-1.62c1.5,0,2.02,1.19,2.02,2.59v5.02h1.58v-5.2  C257.37,376.9,255.5,376.18,254.29,376.18z"
   id="path21" />
<path
   fill="#8CA305"
   d="M172.38,124.02c0-1.8-1.35-2.75-2.5-3.02v-0.05c1.26-0.45,2.05-1.47,2.05-2.66c0-0.95-0.4-1.67-1.03-2.14  c-0.74-0.61-1.74-0.88-3.31-0.88c-1.08,0-2.18,0.11-2.86,0.27v11.9c0.52,0.07,1.35,0.14,2.43,0.14c1.98,0,3.35-0.36,4.18-1.13  C171.97,125.86,172.38,125.06,172.38,124.02z M167.68,116.48c1.59,0,2.65,0.58,2.65,1.98c0,1.17-0.97,2.05-2.61,2.05h-1.42  l-0.01-3.92C166.55,116.53,166.96,116.48,167.68,116.48z M167.61,126.38c-0.55,0-0.99-0.02-1.31-0.07v-4.63h1.3  c1.71,0,3.13,0.7,3.13,2.34C170.73,125.79,169.23,126.38,167.61,126.38z M178.21,120.07c-1.12,0-1.91,0.85-2.12,2.02  c-0.04,0.23-0.05,0.49-0.05,0.76v4.65h-1.58l0.01-6c0-1.03-0.02-1.91-0.07-2.72h1.39l0.07,1.71h0.05c0.4-1.17,1.37-1.91,2.43-1.91  c0.16,0,0.29,0.02,0.43,0.05v1.48C178.59,120.09,178.43,120.07,178.21,120.07z M186.51,126c-0.57,0.23-1.28,0.43-2.41,0.43  c-1.58,0-2.93-0.88-2.97-3.02l6.1,0.03c0.03-0.18,0.05-0.44,0.05-0.76c0-1.61-0.74-4.11-3.58-4.11c-2.54,0-4.11,2.07-4.11,4.72  c0,2.61,1.62,4.39,4.29,4.39c1.39,0,2.36-0.31,2.92-0.56L186.51,126z M183.58,119.71c1.77,0,2.2,1.58,2.18,2.57h-4.61  C181.28,121.19,181.96,119.71,183.58,119.71z M189.62,120h-1.35v-1.21h1.35v-1.6l1.54-0.49v2.09h2.27V120h-2.27v4.7  c0,1.08,0.31,1.69,1.19,1.69c0.43,0,0.68-0.04,0.92-0.11l0.07,1.21c-0.31,0.11-0.79,0.22-1.4,0.22c-0.74,0-1.33-0.25-1.71-0.67  c-0.43-0.49-0.61-1.26-0.61-2.29V120z M199.87,126.4h0.05l0.14,1.1h1.42c-0.09-0.6-0.13-1.33-0.13-2.09l0.01-3.26  c0-1.74-0.65-3.56-3.33-3.56c-1.1,0-2.16,0.31-2.88,0.76l0.36,1.06c0.62-0.42,1.46-0.65,2.29-0.65c1.78-0.01,1.98,1.3,1.98,2.02  v0.18c-3.37-0.02-5.24,1.13-5.24,3.24c0,1.26,0.9,2.5,2.66,2.5C198.45,127.7,199.4,127.08,199.87,126.4z M197.59,126.52  c-0.8,0-1.48-0.47-1.48-1.51c0-1.69,1.96-2,3.69-1.96v1.51c0,0.16-0.02,0.34-0.07,0.5C199.48,125.8,198.74,126.52,197.59,126.52z   M211.34,126.22v-5.06c0-1.07,0.02-1.77,0.07-2.38h-1.4l-0.05,1.3h-0.04c-0.4-0.72-1.21-1.49-2.72-1.49c-2.01,0-3.94,1.66-3.94,4.61  c0,2.43,1.55,4.27,3.71,4.27c1.35,0,2.3-0.65,2.77-1.46h0.04v0.95c0,2.21-1.19,3.06-2.81,3.06c-1.08,0-1.98-0.32-2.56-0.7l-0.4,1.22  c0.7,0.47,1.86,0.72,2.9,0.72c1.1,0,2.33-0.27,3.19-1.04C210.93,129.44,211.34,128.24,211.34,126.22z M209.63,124.62  c-0.33,1.03-1.21,1.64-2.2,1.64c-1.69,0-2.57-1.44-2.57-3.13c0-2.03,1.08-3.31,2.59-3.31c1.17,0,1.92,0.75,2.21,1.69  c0.07,0.21,0.09,0.45,0.09,0.7l0.01,1.56C209.76,124.06,209.72,124.37,209.63,124.62z M217.76,119.88c-1.03,0-1.84,0.74-2.12,1.62  c-0.07,0.2-0.11,0.49-0.11,0.74v5.26h-1.58v-6.36h-0.01c0-0.92-0.02-1.64-0.07-2.36h1.4l0.09,1.42h0.04  c0.43-0.81,1.44-1.62,2.88-1.62c1.21,0,3.08,0.72,3.08,3.71v5.2h-1.58v-5.02C219.78,121.07,219.26,119.88,217.76,119.88z   M227.4,118.57c-2.54,0-4.11,2.07-4.11,4.72c0,2.61,1.63,4.39,4.29,4.39c1.39,0,2.36-0.31,2.92-0.56l-0.29-1.12  c-0.57,0.23-1.28,0.43-2.41,0.43c-1.58,0-2.93-0.88-2.97-3.02l6.1,0.03c0.03-0.18,0.05-0.44,0.05-0.76  C230.98,121.07,230.24,118.57,227.4,118.57z M224.85,122.28c0.13-1.09,0.81-2.57,2.43-2.57c1.77,0,2.2,1.58,2.18,2.57H224.85z   M164.14,136.95h1.48v12.14h-1.58l-3.85-6.16c-0.85-1.35-1.66-2.74-2.25-4.05l-0.05,0.02c0.09,1.53,0.11,2.99,0.11,5.01v5.19h-1.49  v-12.14h1.73l3.87,6.14c0.88,1.42,1.6,2.68,2.16,3.94l0.05-0.02c-0.14-1.62-0.18-3.1-0.18-4.97V136.95z M171.97,140.19  c-2.39,0-4.32,1.71-4.32,4.63c0,2.75,1.84,4.48,4.18,4.48v0.01h0.02c2.07,0,4.32-1.41,4.32-4.65  C176.17,142.01,174.47,140.19,171.97,140.19z M171.88,148.11h-0.02c-1.53,0-2.61-1.44-2.61-3.35c0-1.65,0.82-3.38,2.67-3.38  c1.87,0,2.61,1.85,2.61,3.33C174.53,146.69,173.39,148.11,171.88,148.11z M182.05,140.18c0.16,0,0.29,0.02,0.43,0.05v1.48  c-0.18-0.02-0.34-0.04-0.56-0.04c-1.12,0-1.91,0.85-2.12,2.02c-0.04,0.23-0.05,0.49-0.05,0.76v4.65h-1.58l0.01-6  c0-1.03-0.02-1.91-0.07-2.72h1.39l0.07,1.71h0.05C180.02,140.92,180.99,140.18,182.05,140.18z M196.58,143.97v5.13h-1.55v-4.93  c0-1.69-0.63-2.68-1.89-2.68c-0.92,0-1.6,0.67-1.89,1.42c-0.07,0.23-0.13,0.52-0.13,0.79v5.4h-1.55v-5.22c0-1.4-0.61-2.39-1.82-2.39  c-0.97,0-1.71,0.79-1.96,1.58c-0.09,0.23-0.13,0.5-0.13,0.77v5.26h-1.55v-6.36h0.01c0-0.92-0.04-1.64-0.07-2.36h1.39l0.07,1.4h0.05  c0.49-0.83,1.3-1.6,2.75-1.6c1.17,0,2.07,0.72,2.45,1.75h0.04c0.27-0.5,0.63-0.86,0.99-1.13c0.52-0.4,1.08-0.61,1.91-0.61  C194.87,140.19,196.58,140.95,196.58,143.97z M205.28,147.01v-3.26c0-1.74-0.65-3.56-3.33-3.56c-1.1,0-2.16,0.31-2.88,0.76  l0.36,1.06c0.62-0.42,1.46-0.65,2.29-0.65c1.78-0.01,1.98,1.3,1.98,2.02v0.18c-3.37-0.02-5.24,1.13-5.24,3.24  c0,1.26,0.9,2.5,2.66,2.5c1.25,0,2.2-0.62,2.67-1.3h0.05l0.14,1.1h1.42c-0.09-0.6-0.13-1.33-0.13-2.09H205.28z M203.72,146.16  c0,0.16-0.02,0.34-0.07,0.5c-0.25,0.74-0.99,1.46-2.14,1.46c-0.8,0-1.48-0.47-1.48-1.51c0-1.69,1.96-2,3.69-1.96V146.16z   M215.22,143.89v5.2h-1.58v-5.02c0-1.4-0.52-2.59-2.02-2.59c-1.03,0-1.84,0.74-2.12,1.62c-0.07,0.2-0.11,0.49-0.11,0.74v5.26h-1.58  v-6.36h-0.01c0-0.92-0.02-1.64-0.07-2.36h1.4l0.09,1.42h0.04c0.43-0.81,1.44-1.62,2.88-1.62  C213.35,140.18,215.22,140.9,215.22,143.89z M225.32,136.32l-1.58-0.01v5.19h-0.04c-0.38-0.68-1.28-1.31-2.63-1.31  c-2.11,0-3.93,1.76-3.91,4.68c0,2.65,1.64,4.43,3.75,4.43c1.42,0,2.46-0.74,2.95-1.71h0.04l0.07,1.51h1.42  c-0.05-0.59-0.07-1.48-0.07-2.25V136.32z M223.73,143.93v1.52c0,0.25-0.02,0.46-0.07,0.68c-0.29,1.17-1.26,1.89-2.32,1.89  c-1.69,0-2.57-1.46-2.57-3.24c0-1.91,0.97-3.35,2.61-3.35c1.19,0,2.06,0.83,2.29,1.82c0.05,0.21,0.07,0.46,0.07,0.68H223.73z   M227.95,140.39h1.58v8.71h-1.58V140.39z M229.75,137.75c0,0.56-0.4,1.03-1.03,1.03h-0.02c-0.59,0-0.99-0.47-0.99-1.03  s0.41-1.01,1.03-1.01C229.35,136.74,229.75,137.19,229.75,137.75z M239.21,144.27c0-1.6-0.74-4.1-3.58-4.1  c-2.54,0-4.11,2.07-4.11,4.72c0,2.61,1.63,4.39,4.29,4.39c1.39,0,2.36-0.31,2.92-0.56l-0.29-1.12c-0.57,0.23-1.28,0.43-2.41,0.43  c-1.58,0-2.93-0.88-2.97-3.02l6.1,0.02C239.19,144.85,239.21,144.59,239.21,144.27z M233.08,143.88c0.13-1.09,0.81-2.57,2.43-2.57  c1.77,0,2.2,1.58,2.18,2.57H233.08z"
   id="path23" />
<path
   fill="#33443B"
   d="M364.83,256.5c0,2.99,1.71,4.88,4.65,4.88c0.97,0,1.94-0.2,2.57-0.5l0.32,1.24  c-0.56,0.29-1.73,0.58-3.21,0.58c-3.42,0-5.98-2.16-5.98-6.16c0-3.82,2.57-6.37,6.34-6.37c1.49,0,2.47,0.32,2.88,0.54l-0.4,1.28  c-0.58-0.29-1.42-0.5-2.43-0.5C366.73,251.49,364.83,253.31,364.83,256.5z M381.13,257.68c0,0.32-0.02,0.58-0.05,0.76l-6.1-0.03  c0.04,2.14,1.39,3.02,2.97,3.02c1.13,0,1.84-0.2,2.41-0.43l0.29,1.12c-0.56,0.25-1.53,0.56-2.92,0.56c-2.67,0-4.29-1.78-4.29-4.39  c0-2.65,1.57-4.72,4.11-4.72C380.39,253.57,381.13,256.07,381.13,257.68z M379.61,257.28c0.02-0.99-0.41-2.57-2.18-2.57  c-1.62,0-2.3,1.48-2.43,2.57H379.61z M387.44,253.58c-1.44,0-2.45,0.81-2.88,1.62h-0.04l-0.09-1.42h-1.4  c0.05,0.72,0.07,1.44,0.07,2.36l0.01,6.36h1.58v-5.26c0-0.25,0.04-0.54,0.11-0.74c0.28-0.88,1.09-1.62,2.12-1.62  c1.5,0,2.02,1.19,2.02,2.59v5.02h1.58v-5.2C390.52,254.3,388.65,253.58,387.44,253.58z M394.93,251.7l-1.54,0.49v1.6h-1.35V255h1.35  v4.75c0,1.03,0.18,1.8,0.61,2.29c0.38,0.42,0.97,0.67,1.71,0.67c0.61,0,1.09-0.11,1.4-0.22l-0.07-1.21  c-0.24,0.07-0.49,0.11-0.92,0.11c-0.88,0-1.19-0.61-1.19-1.69V255h2.27v-1.21h-2.27V251.7z M400.43,255.49h-0.05l-0.07-1.71h-1.39  c0.05,0.81,0.07,1.69,0.07,2.72l-0.01,6h1.58v-4.65c0-0.27,0.01-0.53,0.05-0.76c0.21-1.17,1-2.02,2.12-2.02  c0.22,0,0.38,0.02,0.56,0.04v-1.48c-0.14-0.03-0.27-0.05-0.43-0.05C401.8,253.58,400.83,254.32,400.43,255.49z M411.76,258.44  l-6.1-0.03c0.04,2.14,1.39,3.02,2.97,3.02c1.13,0,1.84-0.2,2.41-0.43l0.29,1.12c-0.56,0.25-1.53,0.56-2.92,0.56  c-2.67,0-4.29-1.78-4.29-4.39c0-2.65,1.57-4.72,4.11-4.72c2.85,0,3.58,2.5,3.58,4.11C411.81,258,411.79,258.26,411.76,258.44z   M410.28,257.28c0.02-0.99-0.41-2.57-2.18-2.57c-1.62,0-2.3,1.48-2.43,2.57H410.28z"
   id="path25" />
<path
   fill="#212121"
   d="M404.27,176.5h-1.58v-12.78h1.58V176.5z M408.48,163.72h-1.58v12.78h1.58V163.72z M410.48,172.29  c0-2.65,1.57-4.72,4.11-4.72c2.84,0,3.58,2.5,3.58,4.11c0,0.32-0.02,0.58-0.05,0.76l-6.1-0.03c0.04,2.14,1.39,3.02,2.97,3.02  c1.13,0,1.84-0.2,2.41-0.43l0.29,1.12c-0.56,0.25-1.53,0.56-2.92,0.56C412.11,176.68,410.48,174.9,410.48,172.29z M412.03,171.28  h4.61c0.02-0.99-0.41-2.57-2.18-2.57C412.84,168.71,412.16,170.19,412.03,171.28z M431.48,174.25c0,0.77,0.02,1.66,0.07,2.25h-1.42  l-0.07-1.51h-0.04c-0.49,0.97-1.53,1.71-2.95,1.71c-2.11,0-3.74-1.78-3.74-4.43c-0.02-2.92,1.8-4.68,3.91-4.68  c1.35,0,2.25,0.63,2.63,1.31h0.04v-5.19h1.57v0.01V174.25z M429.89,171.33c0-0.22-0.02-0.47-0.07-0.68  c-0.23-0.99-1.1-1.82-2.29-1.82c-1.64,0-2.61,1.44-2.61,3.35c0,1.78,0.88,3.24,2.58,3.24c1.06,0,2.03-0.72,2.32-1.89  c0.05-0.22,0.07-0.43,0.07-0.68V171.33z M433.46,172.29c0-2.65,1.57-4.72,4.11-4.72c2.84,0,3.58,2.5,3.58,4.11  c0,0.32-0.02,0.58-0.05,0.76l-6.1-0.03c0.04,2.14,1.39,3.02,2.97,3.02c1.13,0,1.84-0.2,2.41-0.43l0.29,1.12  c-0.56,0.25-1.53,0.56-2.92,0.56C435.08,176.68,433.46,174.9,433.46,172.29z M435.02,171.28h4.61c0.02-0.99-0.42-2.57-2.18-2.57  C435.83,168.71,435.15,170.19,435.02,171.28z M400,198.09h1.58v-5.49h4.57v-1.3h-4.57v-4.03h4.95v-1.31h-6.54L400,198.09z   M409.71,191.09h-0.05l-0.07-1.71h-1.39c0.05,0.81,0.07,1.69,0.07,2.72l-0.01,6h1.58v-4.65c0-0.27,0.01-0.53,0.05-0.76  c0.21-1.17,1-2.02,2.12-2.02c0.22,0,0.38,0.02,0.56,0.04v-1.48c-0.14-0.03-0.27-0.05-0.43-0.05  C411.08,189.18,410.11,189.92,409.71,191.09z M420.17,196.01c0,0.76,0.04,1.49,0.12,2.09h-1.42l-0.14-1.1h-0.05  c-0.47,0.68-1.42,1.3-2.67,1.3c-1.76,0-2.66-1.24-2.66-2.5c0-2.11,1.87-3.26,5.24-3.24v-0.18c0-0.72-0.2-2.03-1.98-2.02  c-0.83,0-1.67,0.23-2.29,0.65l-0.36-1.06c0.72-0.45,1.78-0.76,2.88-0.76c2.68,0,3.33,1.82,3.33,3.56V196.01z M418.62,193.65  c-1.73-0.04-3.69,0.27-3.69,1.96c0,1.04,0.68,1.51,1.48,1.51c1.15,0,1.89-0.72,2.14-1.46c0.05-0.16,0.07-0.34,0.07-0.5V193.65z   M427.06,189.18c-1.44,0-2.45,0.81-2.88,1.62h-0.04l-0.09-1.42h-1.41c0.05,0.72,0.07,1.44,0.07,2.36h0.02v6.36h1.58v-5.26  c0-0.25,0.04-0.54,0.11-0.74c0.28-0.88,1.09-1.62,2.12-1.62c1.5,0,2.02,1.19,2.02,2.59v5.02h1.58v-5.2  C430.14,189.9,428.27,189.18,427.06,189.18z M436.75,190.44c0.87,0,1.46,0.21,1.84,0.41l0.36-1.21c-0.44-0.24-1.26-0.47-2.2-0.47  c-2.84,0-4.68,1.97-4.68,4.65c0,2.69,1.71,4.47,4.34,4.47c1.17,0,2.09-0.3,2.5-0.5l-0.27-1.19c-0.45,0.19-1.04,0.41-1.94,0.41  c-1.73,0-3.03-1.24-3.03-3.26C433.67,191.93,434.75,190.44,436.75,190.44z M447.66,194.03l-6.1-0.02c0.04,2.14,1.39,3.02,2.97,3.02  c1.13,0,1.84-0.2,2.41-0.43l0.29,1.12c-0.56,0.25-1.53,0.56-2.92,0.56c-2.67,0-4.29-1.78-4.29-4.39c0-2.65,1.57-4.72,4.11-4.72  c2.85,0,3.58,2.5,3.58,4.1C447.71,193.59,447.69,193.85,447.66,194.03z M446.19,192.88c0.02-0.99-0.41-2.57-2.18-2.57  c-1.62,0-2.3,1.48-2.43,2.57H446.19z"
   id="path27" />
</svg>